%YAML 1.1
%TAG !u! tag:unity3d.com,2011:
--- !u!114 &11400000
MonoBehaviour:
  m_ObjectHideFlags: 0
  m_CorrespondingSourceObject: {fileID: 0}
  m_PrefabInstance: {fileID: 0}
  m_PrefabAsset: {fileID: 0}
  m_GameObject: {fileID: 0}
  m_Enabled: 1
  m_EditorHideFlags: 0
  m_Script: {fileID: 11500000, guid: f8ecede2929b6024cb347ef9dc77f85d, type: 3}
  m_Name: F-adele-Water-1-E
  m_EditorClassIdentifier: 
  midiFileBytes: 4d546864000000060001000300604d54726b0000000b00ff51030ea60000ff2f004d54726b0000164b00c000009034780090407800904778278034000080470001903b780090497827803b00008049000190407800904b7827804b000190477875903b780080400027803b000080470001903678009042780090477827803600008047000190397800904978278039000080490001903d7800904b7827804b000190457875803d000190397827803900008042000080450001902d7800903978009040780090457827802d0000804500019034780090477827803400008047000190397800904978278049000190447875803900019034782780340000803900008040000080440001902f7800903b78009040780090447827802f00019036782780360001903b7827803b00008040000080440001903f780090427875803f0001903b7827803b0000803f00008042000190347800904078009047782780340001903b7827803b000190407827804000008047000190347800903b7800904078009047782780340001903b7827803b0001903b7827803b0000804000008047000190347800903b78009040780090477827803400008040000080470001903678009040780090477827803600008047000190397800904578278039000080400001903d780090407827803d000080450001903178009045782780310000804500019039780090477827803900008040000080470001903678009040780090497827803600008040000080490001902f7800903f780090477827802f00019036782780360001903b7827803b0000803f000080470001902f7800903b7800903f780090477827802f00019036782780360001903b7827803b0000803f000080470001903b7800903f780090457827803b0000803f0000804500019034780090407800904578278034000080450001903b780090447827803b000190407827804000008044000190347800903b78009044782780340000803b0001903b7800903d7827803b0000803d000190407827804000008044000190317800903b780090407813803100019033781280330000803b00008040000190347800904078009047782780340001903b7827803b000190407827804000008047000190347800903b7800904078009047782780340001903b7827803b0001903b7827803b0000804000008047000190347800903b78009040780090477827803400008040000080470001903678009040780090477827803600008047000190397800904578278039000080400001903d780090407827803d0000804500019045782780450001903d780090477827803d0000804000008047000190407800904978278040000080490001902f7800903f780090477827802f00019036782780360001903b7827803b0000803f000080470001902f7800903b7800903f780090477827802f00019036782780360001903b7827803b0000803f00008047000190367800903d7800904078009045782780360001902d7827802d00008045000190397800904778278039000080470001903d780090407827803d00019039782780390001903d7827803d0000804000019036782780360000803d00008040000190337800903b780090427827803300019036782780360001903b7827803b000080420001902f7800903f7827802f00019036782780360001903b7827803b0000803f0001902f780090347800903b780090447827802f0000803b000080440001902d7800903d780090457827802d00008045000190347800904478278034000080440001903978009042782780390000803d0001902d7800903d7827802d000080420001903978009040782780390000804000019036780090387800903f78278036000080380000803d0001903378009036782780330000803f000190367800903b7827803600019039782780390001902f7827802f00019036782780360001903378278033000080360000803b000190257800903d7800904178009044782780250001902c7827802c0001903178278031000190317827803100019038782780380001903d7827803d00008041000080440001902f780090387800903b7800903f7827802f000190337827803300019038782680380000803b0000803f0001902a780090397800903d7827802a00019031782780310001903678278036000080390000803d000190257800903d7800904178009044782780250001902c7827802c000190317827803100019038782780380001903d7827803d0001903f7827803f0000804100008044000190287800903b7800904078009044782780280001902f7827802f00019034782680340000803b00008040000080440001902a7800903d78009040780090427826802a000190317826803100019036782780360000803d00008040000080420001902f7800903f780090427827802f000190337813803300019036781280360001903b78289023782880420000904478278023002880440001902878009044782780280001902f7827802f00019034782780340000803b0000803f000080440001902d7800903d780090457827802d000190347827803400019039782780390000803d000080450001902f7800903f780090447827802f00019036782780360001903b7827803b0000803f00008044000190287800903b7800904078009044782780280001902f7827802f000190347827803400019034782780340001903b7827803b000190407827803b0000804000008044000190287800903b7800904078009044782780280001902f7827802f00019034782780340000803b00008040000080440001902a7800903d78009040780090427827802a000190317827803100019036782780360000803d00008040000080420001902c7800903d7800903f780090447827802c0000803d0000803f00008044000190337800903b7800903f780090447827803300019038782780380000803b0000803f000080440001902d7800903d7800903f780090447813802d0001903178128031000190347813803400019039783a80390000803d0000803f000080440001902c7800903b7800903f780090447827802c000190337827803300019038782780380000803b0000803f000080440001902d7800903d7800903f780090447827802d000190317827803100019034782680340000803d0000803f000080440001902c7800903b7800903d780090427826802c000190337827803300019036782780360000803b0000803d000080420001902a780090397800903b780090427827802a0001902d7813802d000190317812803100019040782890367827804200508036000080390000803b000080400001902c7800903b7800903f780090447827802c0001903378278033000190387827803b0000803f000080440001903b7800903f78009044787580380000803b0000803f00008044000190347800904078009047780090537827803400008047000080530001903b78009049780090557827803b0000804900008055000190407800904b7800905778278040000080470000804b00008057000190347800903b78009040780090477800904b78009057782780340001903b7827803b0001903b7827803b00008040000080470000804b00008057000190347800903b78009040780090477800904b780090577827803400008040000080470000804b000080570001903678009040780090477800904b7800905778278036000080470000804b000080570001903978009045780090497800905578278039000080400001903d780090407827803d000080450000804900008055000190317800904578009049780090557827803100008045000080490000805500019039780090477800904b780090577827803900008040000080470000804b000080570001903678009040780090497800904c780090587827803600008040000080490000804c000080580001902f7800903f780090477800904b780090577827802f00019036782780360000804b000080570001903b78009049780090557827803b0000803f0000804700008049000080550001902f7800903b7800903f780090477800904b780090577827802f00019036782780360000804b000080570001903b78009049780090557827803b0000803f000080470001903b7800903f780090457827803b0000803f0000804500008049000080550001903478009040780090457800904978009055782780340000804500008049000080550001903b7800904478009047780090537827803b0001904078278040000080440000804700008053000190347800903b7800904478009050782780340000803b0001903b7800903d7827803b0000803d00019040782780400000804400008050000190317800903b780090407800904478009050781380310000804400008050000190337800904578009051781280330000803b0000804000008045000080510001903478009040780090477800904c78009058782780340000804c000080580001903b78009049780090557827803b0000804900008055000190407800904b7800905778278040000080470000804b00008057000190347800903b78009040780090477800904b78009057782780340001903b7827803b0001903b7827803b00008040000080470000804b00008057000190347800903b78009040780090477800904b780090577827803400008040000080470000804b000080570001903678009040780090477800904b7800905778278036000080470000804b000080570001903978009045780090497800905578278039000080400001903d780090407827803d0000804500008049000080550001904578009049780090557827804500008049000080550001903d780090477800904b780090577827803d00008040000080470000804b0000805700019040780090497800904c7800905878278040000080490000804c000080580001902f7800903f780090477800904b780090577827802f00019036782780360000804b000080570001903b78009049780090557827803b0000803f0000804700008049000080550001902f7800903b7800903f780090477800904b780090577827802f00019036782780360000804b000080570001903b78009049780090557827803b0000803f000080470000804900008055000190367800903d78009040780090457800904978009055782780360001902d7827802d00019039782780390001903d7827803d00019039782780390001903d7827803d0000804000008045000080490000805500019036782780360000803d00008040000080450001902f7800903b7800904578009049780090557827802f00008045000080490000805500019036780090447800904778009053782780360000804400008047000080530001903b780090427800904578009051782380420000804500019042780090457801803b0000804200008045000080510075803b0000804200008045000190337800903b7800904b7800904e7800905a782780330000804b0000804e0000805a00019036780090497800904c7800905878278036000080490000804c000080580001903b780090477800904b78009057782380470000904b780190477801803b000080470000804b00008057007380470000804b0001803b00019034780090407800904c780090507800905c782780340000804c000080500000805c0001903b7800904b7800904e7800905a7827803b0000804b0000804e0000805a00019034780090497800904c78009058782380490000804c000190487800904b7801803400008040000080480000804b00008058000190337800903b7800904b7800904e7800905a782780330000804b0000804e0000805a000190367800904778009053782780360001903b7827803b0000804700008053000190317800903d780090497800904c7800905878278031000080490000804c00008058000190387800904478009049780090557827803800008044000080490000805500019031780090477800904c78009058782780310000803d000080470000804c00008058000190317800903878009044780090497800905578278038000080440000804900008055000190387800903d780090477800904c780090587827803d000080470000804c000080580001904078009045780090497800905578138049000080550001904b78009057781280310000803800008040000080450000804b000080570001902d780090397800904478009049780090557827802d000190387827803900008044000190397828903d782780390000803d000080490000805500019034780090407827803400008040000190397800904578278039000080450001902d780090477800904b780090577827802d000080470000804b000080570001902d7800904578009049780090557827802d0000804500008049000080550001904078009044780090477800905378238044000080470001904478009047780180400000804400008047000080530001903d780090477800904c780090587827803d000080470000804c0000805800019039780090407800904578009049780090557827804000008045000080490000805500019045780090477800904b780090577827802d0000803900008045000080470000804b000080570001902878009034780090537800905f782780340001903b7827803b000190407827802800008040000190447827804400019040782780400001903b7827803b000080530000805f000190287828902f7827802f00019034782780280000803400019034782780340001903b7827803b000190407827803400008040000190347800904078009047782780340001903b7827803b000190407827804000008047000190347800903b7800904078009047782780340001903b7827803b0001903b7827803b0000804000008047000190347800903b78009040780090477828803400009036780090407800904778298036000090397800904578008047002980390000903d78009040782990317800803d00009045782980310000804500019039780090477829903678008039000090407800804700009049782a803600008040000080490001902f7800903f78009047782a802f00009036782b80360000903b782c902f7800903b7800903f78009047782c802f00009036782c80360001903b782b803b0000803f000080470001903b7800903f78009045782c90347800803b0000803f0000904078009045782c80340000903b7800904478008045002c803b00009040782c804000008044000190347800903b78009044782b80340000803b0001903b7800903d782c803b0000803d00009040782c90317800903b7800904078008044001580310001903378158033000090347800803b0000904078009047782c80340001903b782b803b00019040782c90347800903b7800904078009047782c80340000903b782c903b782c803b0000804000008047000190347800903b7800904078009047782b80340000804000008047000190367800904078009047782c8036000090397800904578008047002c80390000903d78009040782c803d00009045782c80450001903d78009047782b803d00008040000080470001904078009049782c902f7800903f780080400000904778008049002c802f00009036782c80360000903b782c803b0000803f000080470001902f7800903b7800903f78009047782b802f00019036782c80360000903b782c90367800803b0000903d7800803f000090407800904578008047002c902d78008036002c802d000080450001903978009047782b8039000080470001903d78009040782c90397800803d002c80390000903d782c90367800803d00008040002c80360000803d0000ff2f004d54726b000003d500c6478857964c5027864c00019649502786490001964b5027864b0001964b5077864b0001964b5027864b0001964b5027864b00019649504f864900019649502786490001964b5027864b0001964c5027864c0001964b504f864b00019649502786490001964b504f864b00019649504f8649000196495027864900019647504f8647007996445013864400019645501286450001964c5027864c00019649502786490001964b5027864b0001964b5077864b0001964b5027864b0001964b5027864b00019649504f864900019649502786490001964b5027864b0001964c5027864c0001964b504f864b00019649502786490001964b504f864b000196495027864900019649504f8649000196445027864400019645504f864500019642502786420001964050278640000196445027864400019642502786420001963f504f863f00019642504f86420029964950278649000196475027864700019645504f8645000196445027864400019642504f86420001963f5027863f00019640504f864000019642504f86420001964450811f8644008121964b5013864b0001964c5012864c0001964e5027864e00019649504f86490001965050816f86500051964c5013864c0001964e5012864e0001965050138650000196515012865100019650502686500001964e5027864e00019650502786500001964b5077864b0000964c504f864c0079964c5077864c0001964b5077864b0001965050816f865000019650502786500001964c5027864c00019650502786500001965150811f865100019650502786500001964b5027864b0001964c504d864c0001964e5027864e000196505077865000519649501386490001964b5012864b0001964c5013864c0001964e5012864e0001964c5027864c0001964b5027864b0001964c5027864c00019649507686490001964b5027864b00019649502786490001964750816d8647009f38964c5027864c00019649502786490001964b5027864b0001964b5077864b0001964b5028964b502996495000864b00529649502986490001964b5029864b0000964c502a864c0001964b505596495000864b002c86490000964b5058864b0001964950589649502c9647500086490058864700810596445015864400019645501586450000964c502c864c00019649502b86490001964b502c964b508104864b0001964b502b864b0001964b502c96495000864b00589649502c86490001964b502b864b0001964c502c964b5000864c005896495000864b002c86490001964b505896495000864b002c96495058864900019644502b8644000196455058964250008645002c9640500086420000ff2f00
