%YAML 1.1
%TAG !u! tag:unity3d.com,2011:
--- !u!114 &11400000
MonoBehaviour:
  m_ObjectHideFlags: 0
  m_CorrespondingSourceObject: {fileID: 0}
  m_PrefabInstance: {fileID: 0}
  m_PrefabAsset: {fileID: 0}
  m_GameObject: {fileID: 0}
  m_Enabled: 1
  m_EditorHideFlags: 0
  m_Script: {fileID: 11500000, guid: f8ecede2929b6024cb347ef9dc77f85d, type: 3}
  m_Name: F-eltonjohn-Chance-1-E
  m_EditorClassIdentifier: 
  midiFileBytes: 4d546864000000060001000300604d54726b0000000b00ff51030ea60000ff2f004d54726b000002df00c9000099235000992a50009931501e992a500e99265000992a50009933501e992a500f99235000992a50009933501e99235000992a500f99265000992a50009933500f9923500f992a500f99235000992a50009933501e992a500f99265000992a50009933501d992a500f99235000992a50009933501e99235000992a500e99265000992a50009933501d99235000992e500f99235000992a50009933501e992a501099265000992a50009933501d992a500f99235000992a50009933501e99235000992a500f99265000992a50009933501e99235000992a500f99235000992a50009933501d992a500f99265000992a50009933501e992a500f99235000992a50009933501e99235000992a500f99265000992a50009933501e99235000992e500f99235000992a50009933501f992a500e99265000992a50009933501e992a500f99235000992a50009933501e99235000992a500f99265000992a50009933500f9923500f992a501099235000992a50009933501d992a500f99265000992a50009933501e992a500f99235000992a50009933501e99235000992a500f99265000992a50009933501e99235000992e500f99235000992a50009933501e992a500e99265000992a50009933501e992a500f99235000992a50009933501e99235000992a501099265000992a50009933501d99235000992a500f99235000992a50009933501e992a500f99265000992a50009933501e992a500f99235000992a50009933500f9923500e99235000992a500f99265000992a50009933501e99235000992e500f99235000992a50009933501f992a500f99265000992a50009933501e992a500f99235000992a50009933501f99235000992a500f99265000992a50009933500f9923500f992a500e99235000992a50009933501e992a500f99265000992a50009933501e992a500f99235000992a50009933501e99235000992a500089230000892a0000893100008926000089330000892e0000ff2f004d54726b0000055700c0000090267801903278019041780d903e700f903970018041000d9041700d80390002903e70048026000a804100019039700e902678019041780e80390001903e680e80410001803200009039700a80390000803e00038026000290297800903578009041780f903e700f90396801804100098039000480290001902b780080350000903778009043780e802b0001903e68088037000280430005902b78009037700f9043780f903e7004802b000980370001902b7800903770038043000c9043780e802b0001902b6800903e680a802b0005902978009037700580430001803500058029000280370001902c7800903878009043780e803e0001903e7008802c000480380002902d7800903978018043000e9045780f9040680d803900029039700d80450001802d00029045700d804000019040680b804500049039700f902d78009045700e804000019040680f9039700a802d0001804500049045780a80400005902d700090406806802d000680390003902d78009039680b802d00028045000290227800902e7800803900009041780f903e700e9041700f9046780f904170018022000e902e7800903e700f9046780f903a700c804100039041780d804600029046780f9041680f903a7008803e00008041000080460005802e0000803a000290267800802e0000903278019041780f903e700e804100019039700e9041700d8039000280260001903e700d804100019039700f902678009041780d80390002903e680e80410001803200009039700a80390000803e00048026000190297800903578009041780f903e700f9039680180410009803900048029000180350001902b7800903778009043780e903e680880370002804300059037700f90437806802b0009903e700e80370001902b7800903770028043000d90437808802b0007902b6800903e6805802b000a9029780090377005804300018035000680290001902c780180370001903878009043780d803e0002903e700b802c000180380003902d7800903978008043000f9045780f9040680c803900039039700d8045000190457003802d000b804000019040680a804500059039700f902d78009045700e804000019040680f90397009802d0002804500059045780980400005902d700090406806802d000580390004902d78009039680c802d00008045000390227800902e7800803900009041780f903e700f9041700f9046780f9041700f902278009046700f904a700f9046700e90227800802e00009041780f902e780f90227000903e680f8022000090267800802e0000903e70008041000080460000804a000e80260000803e000190267800903e7801903e78009041780090457801903278009041780e903e700f903970018041000780450007904170048041000980390001803e0001903e70048026000a804100019039700e90267800903e780090417800904578019041780a803e000380390002903e680280450001804100058041000690407801804100009043780090477801803200009039700a80390000803e00048026000190297800903578009041780f903e7004804000008043000280470009903968019040780080410003903c780090407800904378058039000480290001902b7800903778009043780e802b000080350000803e0001903e68098037000180430005902b78009037700f9043780780400003803c00008040000280430003903e7003802b000b80370001902b780090377001804000018043000d903c7800904078009043780190407805803c00008040000180430007802b0001902b6800903e680190417801903e78028040000280410002802b0000803e000390437802903f7801904078019029780090377000ff2f00
