%YAML 1.1
%TAG !u! tag:unity3d.com,2011:
--- !u!114 &11400000
MonoBehaviour:
  m_ObjectHideFlags: 0
  m_CorrespondingSourceObject: {fileID: 0}
  m_PrefabInstance: {fileID: 0}
  m_PrefabAsset: {fileID: 0}
  m_GameObject: {fileID: 0}
  m_Enabled: 1
  m_EditorHideFlags: 0
  m_Script: {fileID: 11500000, guid: f8ecede2929b6024cb347ef9dc77f85d, type: 3}
  m_Name: F-chopin-Think-Fast-1-E
  m_EditorClassIdentifier: 
  midiFileBytes: 4d546864000000060001000200604d54726b0000000b00ff51030ea60000ff2f004d54726b00005c2700c00000902a40009036400090425000904e5012802a0000902c400080360000903840008042000090445000804e000090505012802c0000902d4000803800009039400080440000904550008050000090515024902c4000802d0000903840008039000090445000804500009050500080510012802c0000902d4000803800009039400080440000904550008050000090515013902a4000802d000090364000803900009042500080450000904e50008051002490264000802a00009032400080360000903e500080420000904a5000804e00128026000080320000803e0000804a001290234000902f4000903b50009047501280230000802f0000803b0000804700129026400090324000903e5000904a50128026000080320000803e0000804a0013902a40009036400090425000904e5024802a00008036000080420000804e0024901e4000902a400090364000903d50009042600090465024801e0000802a000080360000803d0000804200008046002490234000902f40009032400090364000903b6000903e4000904240009047501380230000802f000080360000803b0000803e0000804200008047000090325000903e5010903e50109026500080320000803e0000904250009045501080420000904550108026000090325000803e00009042500080450000904a501090455000804a001180320000903e50008042000080450000904e5010904a5000804e001090315000903d5000803e0000804a0010903d50109025500080310000803d0000904050009045501080400000904550118025000090315000803d0000904050008045000090495010904550008049001080310000903d50008040000080450000904c501090495000804c0010902f5000903b5000803d000080490010903b501190235000802f0000803b0000903e500090455010803e00009045501080230000902f5000803b0000903e500080450000904a501090455000804a0010802f0000903b5000803e000080450000904e5010904a5000804e0011902d500090395000803b0000804a00109039501090215000802d000080390000903d500090455010803d00009045501080210000902d500080390000903d50008045000090495010904350009045500080490011802d000090395000803d00008043000080450000904c501090495000804c0010902650009032500080390000903e6000904140009045400080490000904d4010903d5000803e0010803d0000903e50108026000090325000803e00009041500080450000804d0011902640009032500090394000903e50008041000090455000904d5010903d5000803e000080450000804d0010803d0000903e5010803e00009041500090455000904d6010802600008032000080390000903e50009040400080410000904340008045000090464000904c4000804d000090526010903d5000803e0000804000008043000080460000804c0011803d0000903e5010803e00009040500090466000805200109026400090325000903a4000903e5000904040009043400080460000904f5010903d5000803e0000804f0010803d0000903e50008043000080460000804c0010803e000090405000904f60118026000080320000803a0000903e500080400000904140008043000090454000904a4000804f000090516010903d5000803e000080510010803d0000903e50008041000080450000804a0010803e00009041500090516010903e500080410000904d600080510010903d5000803e0000804d0011803d0000903e5010803e000090415000904d60109026500090325000903e50008041000090456000904d6010903d5000803e000080450000804d0010803d0000903e5011803e00009041500090456000904d60108026000080320000903e50009040400080410000904340008045000090464000904c4000804d000090526010903d5000803e0000804000008043000080460000804c000080520010803d0000903e5010803e00009040500090466000805200109026400090325000903a4000903e5000904040009043400080460000804c0000904f5011903d5000803e0000804f0010803d0000903e50008043000080460000804c0010803e000090405000904f60108026000080320000803a0000903e500080400000904140008043000090454000904a4000804f000090516010903c5000803e000080510010803c0000903e50008041000080450000804a0010903d5000803e0000904c600080510011803d0000903e5000804c0000904d6010903d5000803e0000804d0010803d0000903e5010903d5000803e0000904c60109026500090325000803d0000903e50009041600090456000804c0000904d6010903d5000803e00008041000080450000804d0011803d0000903e501080260000902850008032000090345000803e0000904050009043600090496000804d0010802800009029500080340000903550008040000090415000804300009045600080490000904a6010903d500080410000804a0010803d0000903e501090285000802900009034500080350000903d5000803e0000904050008041000090436000804500009046600090496000804a001190265000802800009032500080340000803d0000903e5000804000009041600080430000904560008046000080490000904a6010903d5000803e0000804a00108026000080320000803d0000903e50008041000080450000804a00109028500090345000803e0000904050009043600090496010802800009029500080340000903550008040000090415000804300009045600080490000904a6010903d500080410000804a0011803d0000903e501090285000802900009034500080350000903d5000803e0000904050008041000090436000804500009046600090496000804a001090265000802800009032500080340000803d0000903e5000804000009041600080430000904560008046000080490000904a6010903d5000803e0000804a00108026000090325000803d0000903e50008041000090456000904a6000904d6010903d5000803e000080450000804d00119026500080320000803d0000903e5010903d5000803e000090456000904a6000904d60108026000090325000803d0000903e500080450000904a6000904d600090516010903d5000803e0000804a0000804d0000805100109026500080320000803d0000903e5010903d5000803e0000904a6000904d60118026000090325000803d0000903e500090456000904a6000904d600090516010903d5000803e0000804a0000804d0000805100109026500080320000803d0000903e5010903d5000803e0000904a6000904d60108026000090325000803d0000903e500090456000904a6000904d600090516010903d5000803e000080450000804a0000804d0000805100119026500080320000803d0000903e5010903d5000803e0000904a5000904d50108026000090325000803d0000903e500090455000904a5000904d5000905150209026500090325000803e000090455000904a5000904d50009051500090565010803e000080450000804a0000804d001190265000803200009041500080450000804a0000804d00009051500090565010903d5000803e00008041000080450000804a000080510000805600108026000090325000803d0000903e50109026500080320000903d5000803e0000904050009043500090455000904c5000905150009058501090265000803d0000903e500080400000904150008043000090455000904a5000804c0000904d500090515000905650008058000090595010903d5000803e00008041000080450000804a0000804d00008051000080560000805900118026000090325000803d0000903e50109026500080320000903d5000803e0000904050009043500090455000904c50009051500090585000905b501090265000803d0000903e500080400000904150008043000090455000904a5000804c0000904d500090515000905650008058000090595000805b0010903d5000803e00008041000080450000804a0000804d00008051000080560000805900108026000090325000803d0000903e50109026500080320000903d5000803e000090405000904350009045500090495000904c500090515000905550009058501190265000803d0000903e50008040000090415000804300009045500080490000904a5000804c0000904d50009051500080550000905658008058000090595810803e00008041000080450000804a0000804d00008051000080560000805900108026000090325010902650008032001090265000904d6000905160009056601090496000804d00008051000080560011802600009032500080490000904a6010902650008032000090496000804a0000904f600090526000905860109026500090325000904160009045600080490000904a6000904d6000804f00009051600080520000905660008058000090596010903d50008041000080450000804a0000804d00008051000080560000805900108026000080320000803d0000903e50109026500090325000903d5000803e0000904050009043500090455000904c5000904f60009051600090556000905b60119026500090325000803d0000903e500080400000904150008043000090455000904a5000804c0000904d6000804f000090516000805500009056600090596000805b0010903d5000803e00008041000080450000804a0000804d00008051000080560000805900108026000080320000803d0000903e50109026500090325000903d5000803e0000904050009043500090455000904c60009051600090556000905860109026500080320000803d0000903e600080400000904160008043000090456000904a6000804c0000904d600090516000805500009056600080580010803e00008041000080450000804a0000804d000080510000805600118026000090325000804a00109026500080320010902650009035500090395000903e6010803500009037500080390000903a5000803e00009040601080260000903250008037000090395000803a0000903c50008040000090416010902650008032000080390000903a5000803c0000903e5000804100009043601190265000803a0000903c5000803e0000904050008043000090456010803c0000903e5000804000009041500080450000904660108026000090325000803e0000904050008041000090435000804600009048601090265000803200008040000090415000804300009045500080480000904a601090265000903a500090405000804100009043500080450000804a0000904c6010803a0000804000008043000090456000804c0000904d601180260000903250008045000090466000804d0000904f601090265000803200008046000090486000804f00009051601090265000903c5000904150009045500080480000904a60008051000090526010803c0000804100008045000090486000804a0000905160008052001080260000903250009046600080480000904f60008051001190265000803200009045600080460000904d6000804f001090265000903e5000904350008045000090466000904c6000804d0010803e0000804300009045600080460000804c0000904d601080260000903250008045000090466000804d0000904f601090265000803200009043600080460000904c6000804f00109026500090405000904350009046600090486000804c0011804000009041600080430000904560008046001080260000903250008041000090436000804500009046601090265000803200009040600090436000804600109026500080400000804300009046500080480000904c5000904f5000905b6010804f000090596000805b001080260000903250008043000080460000804c000080590000905b6011902650008032000090586000805b00109026500090405000904350009046500090485000904c50009052600080580010804c0000905160008052001080260000903250008040000080430000804600008048000080510000905260109026500080320000904f600080520010902668009032600090406000904360009046600090496000904c6000804f001180430000904860008049001080260000903260008048000090496000804c001090266000803200009043600090496000904c60109026600090326000804000009041500080430000904560008046000080490000904a6000804c0000904d6010903d50008041000080450000804a0000804d00108026000090325000803d0000903e5011902660009031500080320000903d5000803e0000904050009043600090456000904c6000904f6010902668008031000090326000803d0000903e600080400000904160008043000090456000904a6000804c0000904d6000804f0010903d5000803e00008041000080450000804a0000804d00108026000090325000803d0000903e5010902660009031500080320000903d5000803e00009040500090456000904c6000904f600090516010902668008031000090326000803d0000903e6000804000009041600090456000904a6000804c0000904d6000804f000090516011903d5000803e00108026000090325000803d0000903e50008041000080450000804a0000804d00008051001090265000902d600080320000903e501090266000902d600090395000903e600090416010803e000090406000804100009043601180260000802d000080390000903e5000804000009041600080430000904560109028500090345000803e00009040500080410000904360008045000090466010802800009029500080340000903550008040000090415000804300009045600080460000904a601080410000904360008045000090466000804a0000904c6010802900008035000080430000904560008046000090486000804c0000904d60109029500090355000904160009045600080480000904a6000804d001190285000802900009034500080350000904050008041000090436000804500009046600090486000804a0000904c6010804300008046000080480000804c0000904d6010802800008034000080400000804d0000904f6010902850009034500090405000904360009046600090486000804f001080280000902950008034000090355000804000009041500080430000904560008046000080480000904a60108045000090466000804a0000904c60118029000080350000804100008046000090486000804c0000904d60109029500090355000904150009045600080480000904a6000804d0010902850008029000090345000803500009040500080410000904360008045000090496000804a0000904c60108043000080490000804c0000904d6010802800008034000080400000804d0000904f60109028500090345000904050009043600090496000804f0011902650008028000090325000803400009035600090396000903e60008040000090416000804300009045600080490000904a6000904d600090516000905660009059601090496000804a0000804d000080510000805600008059001080260000803200008035000080390000803e0000804100008045000080490000904a6010804a0000904c6000904f60009055601090265000903250009035600090396000903e60009041600090456000904a6000804c0000904d6000804f000090516000805500009056600090596010903d60008041000080450000804a0000804d000080510000805600008059001180260000803200008035000080390000803d0000903e6010803e000090406000904360009049601090265000903250009035600090396000903e60008040000090416000804300009045600080490000904a6000904d6000905160009056600090596010903d60008041000080450000804a0000804d000080510000805600008059001080260000803200008035000080390000803d0000903e6011803e000090406000904360009049601090265000903250009035600090396000903e60008040000090416000804300009045600080490000904a6000904d600090516000905660009059602080260000803200008035000080390000803e00008041000080450000804a0000804d000080510000805600008059001090255000903150009040600090496000904c6000904f60009055600090586010902650009032600090395000903e500080400000904150009045600080490000904a6000804c0000904d6000804f00009051600080550000905660008058000090596011902550008026000090316000803200009040600080410000804d001080250000902650008031000090326000804000009041600080450000804a0000804d000080510000805600008059001090255000802600009031500080320000904050008041000090435000904c5000904f60009051600090586000905b60108025000090265000803100009032600080390000903d5000803e000080400000904150008043000090455000804c0000904d5000804f000090516000905660008058000090596000805b0000905d6010902550008026000090316000803200009040600080410000804d0000805100008056000080590000805d001080250000902650008031000090326000803d000080400000804100009043600080450000804d001190255000802600009031500080320000904050008043000090455000904c50009051600090586000905b6000905d60108025000090265000803100009032600080400000904150008045000090475000804c0000904d500080510000905360008058000090596000805b0000905d6000905f60109025500080260000903160008032000090406000804100008053000080590000805d0000805f00108025000090265000803100009032600080400000804100009043600080470000804d001090255000802600009031500080320000904050008043000090495000904c50009055600090596000905d60009061601080250000902668008031000090326000903e500080400000904160009045500080490000904a5000804c0000904d5000805500009056600090596000905d600080610000906260119025600080260000903160008032000090406000804100008056000080590000805d0000806200108025000090266000803100009032600080400000904160109025600080260000903160008032000090406000804100108025000090266000803100009032600090396000903e5000804000009041500090456000804a0000804d001090256000802600009031600080320000803e0000904060008041000080450010802500009026600080310000903260008040000090416011902560008026000090316000803200009040600080410000904560108025000090266000803100009032600080390000903b5000903e500080400000904150009044600080450000904760109025600080260000903160008032000090406000804100008044000080470010802500009026600080310000903260008040000090416010802600009028600080320000903460009040600080410000904460009047601080280000902960008034000090356000803b0000903c5000803e000080400000904150008044000090456000804700009048601190276000802900009033600080350000803c00009041600080450000804800108027000090296000803300009035600080410000904560109027600080290000903360008035000090416000804500009048601090265000802700009032500080330000903e5000904150009045500080480000904a4000904d4000905140009056400090594010804a0000804d00008051000080560000805900108026000080320000803e00008041000080450000804a001190264000903240009035400090394000903e40009043400090464000904c4000904f4000905240009058401090264000903240009035400090394000903e400090414000804300009045400080460000904a4000804c0000904d4000804f0000905140008052000090564000805800108041000080450000804a0000804d0000805100008056001080260000803200008035000080390000803e00109026400090324000903e4000904340009045400090494000904c4000904f40009051400090584010902640009032400090394000903e400090414000804300009045400080490000904a4000804c0000904d4000804f0000905140009056400080580000905940118041000080450000804a0000804d0000805100008056000080590010802600008032000080390000803e001090264000903240009039400090404000904340009045400090494000904c4000904f4000905140009055400090584010902640009032400090394000903e40008040000090414000804300009045400080490000904a4000804c0000904d4000804f000090514000805500009056400080580000905940108041000080450000804a0000804d0000805100008056000080590010802600008032000080390000803e00119025400090314000904040009045400090494000904c40108025000090264000803100009032400080400000904140009045400080490000904a4000804c0000904d40108026000090284000803200008041000080450000804a0000804d0010802800009029401080290000902b400090394000904340009045400090494000904c4010802b0000902d40009039400090414000804300009045400080490000904a4000804c0011802d0000903140008041000080450000804a001080310000903240108032000090344000903740009039400090454000904c40108034000090354000803700009039400090454000804c0000904d400090514010803500008045000090474000804d0000904f4000805100109032400090354000803900009045400080470000904d4000804f000090514011803200008045000090474000804d0000904f40008051000090534010902d40009034400080350000903940008047000090494000904c4000804f0000905140008053000090554010802d000080340000903740008039000080490000904a4000804c0000805100008055001090254000903140008037000090394000804a0000904c4010802500008031000080390000903b4000904a4000804c00009053400090564010902d400090344000803b0000903d4000804a0000904c40009051400080530000905540008056000090584010802d000080340000803d0000903e4000904a4000804c00008051000080550000805800119025400090314000803e000090404000804a0000904c40108025000080310000903e400080400000804c0000904d40009056400090594010902d400090394000903d4000803e0000804d0000904f4000805600009058400080590000905b4010802d000080390000803d0000903e4000904d4000804f0000905640008058000090594000805b001090214000902d4000803e000090404000804d0000904f4000805600009058400080590000905b401080210000802d00008040000090414000804f0000905140008058000090594000805b0000905d4011902d400090394000904040008041000090434000904f400080510000905240009058400080590000905b4000805d0010802d000080390000903e4000804000009041400080430000904d4000804f000080520000905640008058000090594000805b001090214000902d4000903d4000803e00009040400080410000804d0000904f4000805600009058400080590000905b401080210000802d0000903a4000803d0000903e400080400000904d4000804f00008058000090594000805b0000905d4010902d4000903a4000903d4000803e0000904c4000804d0000904f4000905240009058400080590000905b4000805d0010802d000090394000803a0000803d0000804c0000804f000090514000805200008058000090594000805b0000905d401190214000902d40009037400080390000805100009052400080590000905b4000805d0000905e401080210000802d000080370000903940009051400080520000805b0000905d4000805e0010902d400080390000903a4000904f4000805100009052400090584000905b4000805d0010802d000090394000803a0000804f0000905140008052000080580000805b0000905d401090214000902d400080390000903a40008051000090524000805d0000905e401080210000802d0000803a0000903c40008052000090544000805e00009060401190264000903240009035400090394000803c0000903e4000904d400090514000805400009056400090594000905d4000806000009062401080260000803200008035000080390000803e0010804d0000805100008056000080590000805d00008062001090264000903240089026400090324007902640009032400090394000903e400090414020802600008032000080390000803e00008041001190264000903240079026400090324008902640009032400090394000903e400090414020802600008032000080390000803e000080410010902640009032400890264000903240079026400090324000903e400090414000904540218026000080320000803e00008041000080450010902640009032400890264000903240079023400080260000902f4000803200009041400090474000904a402080230000802f00008041000080470000804a0011902f4000903b4007902f4000903b4008902f4000903b4000903e40009041400090474020802f0000803b0000803e00008041000080470010902f4000903b4008902f4000903b4007802f000090344000803b000090404000904440009047402180340000804000008044000080470010902840009034400890284000903440079028400090344000903b400090404000904440208028000080340000803b000080400000804400119028400090344007902840009034400890244000802800009030400080340000904040009045400090484020802400008030000080400000804500008048001090304000903c400890304000903c400790304000903c4000904040009045402180300000803c0000804000008045001090304000903c400790304000903c4008902d40008030000090394000803c0000904040009045400090484020802d00008039000080400000804500008048001090344008903440089028400090344000903b400090404000904440208028000080340000803b000080400000804400109028400090344008902840009034400780280000902d40008034000090394000903c4000904040009045400090484021802d000080390000803c000080400000804500008048001090404007904040089028400090344000903b400090404000904440208028000080340000803b000080400000804400109028400090344008902840009034400880280000902d40008034000090394000903c4000904040009045400090484020802d000080390000803c000080400000804500008048001090404008904040079028400090344000903b400090404000904440208028000080340000803b000080400000804400119028400090344007902840009034400880280000902d40008034000090394000903c4000904040009045400090484020802d000080390000803c000080400000804500008048001090404008904040079028400090344000903b400090404000904440118028000080340000803b0000804000008044001090234000902f4000904140009043400090474000904a401080230000802f0000804100008043000080470000804a001090244000903040009040400090434000904840108024000080300000804000008043000080480011902c400090384000903e40009041400090474010802c000080380000803e0000804100008047001090214000902d4000903c4000904040009045401080210000802d0000803c00008040000080450010902d400090394000903c4000903f400090424010802d000080390000803c0000803f000080420011902b400090374000903b40009040400090434010902b400090374000903b4000904040009043401090284000802b00009034400080370000803b00009040400080430000904c401090264000802800009032400080340000904040009042401090244000802600009030400080320000904040008042000090434010902440009030400090404000904340119024400090304000904040008043000090444000904c401090244000903040009040400090444010902440009030400090404000804400009045401090244000903040009040400090454010902440009030400090404000904440008045000090474000904a4000804c0010902440009030400090404000904440009047401190244000903040009040400080440000904540008047000090484000804a00109024400090304000904040009045400090484010902440009030400090404000904440008045000090474000804800109024400090304000904040009044400090474000904c4010902440009030400090404000804400009045400080470000904c40119024400090304000904040009045401090244000903040009040400090454000904c40109024400090304000904040009045401090244000903040009040400090454000904b4000804c0010902440009030400090404000904540109024400090304000904040009045400090484000804b00119024400090304000904040009045401090244000903040009040400090454000904840109024400090304000904040009045401090244000903040008040000090414000904540009047400080480010902440009030400090414000904540109024400090304000904140009045400080470011902440009030400090414000904540108024000090254000803000009031400090404000804100009043400090454010902540009031400090404000904340109025400090314000904040009043400090454010802500009026400080310000903240009040400090434010902540008026000090314000803200009040400090434000904540119025400090314000904040009043401080250000902d40008031000090394000903e40008040000090414000804300009045401090264000802d00009032400080390000903c4000803e00009040400080410000804500108026000090294000803200009035400090394000803c0000903e400080400000904540109028400080290000903440008035000090394000903e40009045401080280000903240008034000090394000903c4000903e400090424000904540109032400090394000903c4000903e400090424011902f40008032000080390000903b4000803c0000903e40008042000080450000904a4010902d4000802f000090394000803b0000903e400090404010902b4000802d00009037400080390000903e40008040000090424010902b400090374000903e400090424010902b400090374000903e40008042000090434000904a4011902b400090374000903e400090434010902b400090374000903e40008043000090444010902b400090374000903e400090444010902b400090374000903e4000804400009045400090484000804a0010902b400090374000903e400090454010902b400090374000903e4000804500009047400080480011902b400090374000903e400090474010902b400090374000903e40009045400080470010902b400090374000903e400090454000904c4010902b400090374000903e40008045000090474000904c4010902b400090374000903e400090474010902b400090374000903e400090474000904c4011902b400090374000903e400090474010902b400090374000903e4000904640008047000090494000804c0010902b400090374000903e400090464010902b400090374000903e4000904340009046400080490010902b400090374000903e400090464010902b400090374000903e40009043400090464011902b400090374000903e40009046401090264000802b00009032400080370000903e4000904140008043000090454000804600109026400090324000803e00009041400080450000905140109026400090324000904140009045400090514010902640009032400090414000804500009047401080260000902d4000803200009039400090404000804100008047000090494011902d4000903940009040400090494010902d400090394000903e40008040000080490000904a4010902d400090394000903e4000904a400080510010902d400090394000903d4000803e000090454000804a0000904c400090514010902d400090394000903d40009043400080450000904c4000904f400080510010902d400090394000903d40009042400080430000904c4000904e4000804f0011902d400090394000903d400090424000904c4010902d400090394000903b4000803d00009040400080420000904a4000904c4000804e0010902d400090394000903b40008040000090424000904a4000804c0000904e4010902d400090394000803b00009040400080420000804a0000904c4000804e0000904f4010902d40009039400090404000904c4010902d400090394000903e400080400000904a4000804c0000904e4000804f0011902d400090394000903e4000904a4000804e0000904f4010902d400090394000903d4000803e000090494000804a0000904c4000804f0010902d400090394000803d0000903e400090494000904a4000804c0010902d400090394000903d4000803e000090494000804a0000904c4010902d400090394000803d0000903e400090494000904a4000804c0010902d400090394000803e00009040400090494000804a0000904c4010902d4000903940009040400090494011802d00009032480090394800903e4800804000009042480080490000904a4800804c0000904e481090424800904a48108042000090455000804a0000904e50009051501090455000904e5010902c50009032500080390000803e0000904250008045000090475000804e0000805100009053501190475010802c0000902d500090325000903d5000804200008047000090495000904c50008053001090495010903e500080490000904a5000804c0000904e5010903e5000904a501090285000802d0000803200009034500090395000903d5000803e00009040500090455000804a0000904c5000804e001190405000904c5010802800009034500080390000903b5000803d0000903e5000804000009044500080450000904a5000904c501090345000903b5000903e500090445000904a5010902d50008034000090395000803b0000803e000090405000804400009045500090495000804a0000804c000090515020802d00008039000080400000804500008049000080510021903940009042400090484000904b40209039400090414000804200009047400080480000904a4000804b0020903940009040400080410000904340008047000090494000804a002190394000903e4000804000009042400080430000904740008049002090394000903d4000803e00009040400080420000904540008047002080390000803d00008040000080450021903940009042400090484000904b4000904e40209039400090414000804200009047400080480000904a4000804b0000904d4000804e0020903940009040400080410000904340008047000090494000804a0000904c4000804d002190394000903e40008040000090424000804300009047400080490000904a4000804c002090394000903d4000803e00009040400080420000904340008047000090494000804a002080390000803d000080400000804300008049002190393800903d380090403800904338209032380080390000803d0000903e3800804000009042380080430020902c380090323800903b3800803e00009042382180320000903438009040380080420020902b3800802c0000803400009037380090393800803b0000903d380080400020902a3000802b0000903630008037000090393000803d0000903e302190213000802a0000902d30008036000090393000803e000090423020903730008039000090403000804200209037300090393000903d3000804000218021000090263000902d300090323000903630008037000080390000803d0000903e30209021300080260000902d3000803200008036000090393000803e0000904230209037300080390000904030008042002090213000902d30009037300090393000903d3000804000218021000090263000902d3000903630008037000080390000803d0000903e3020901e300080260000902d30008036000090393000803e000090423020801e000090213000903730008039000090403000804200218021000090223000902d300090373000903d3000804000208022000090263000902d30009036300080370000803d0000903e30209021300080260000902d300090363000903e30218021000090223000802d0000902e30009035300080360000903e302090223000902e300090353000903e30209021300080220000902d3000802e00009034300080350000903d3000803e004280210000802d000080340000803d0041902d300090373000903d30009040300090453042802d000080370000803d000080400000804500419026300090363000903e3000903238009035380090394000903e400090454000904a4000904d500090515008803200008035000080390000803e000080450000804a0000804d0000805100119032480090354800903a4800903e4800904a4800904d480090525846905138098032000080350000803a0000803e0000804a0000804d0000904f38008051000080520008904d3800804f0008904c3800804d0009904a3800804c000890493800804a000890473800804900099045380080470005804500039032280090353000904330088032000080350000904130008043000890403000804100099032280090373000903e3000804000088032000080370000903d3000803e0008903b3000803d00099032280090393000803b000880320000803900119026380090353800903938098026000080350000803900109026380090373800903a38088026000080370000803a0011902638009035380090393808802600008035000080390011902d38009034380090383808802d00008034000080380011902d3800903138009034380090393808802d0000803100008034000080390011902d4000903240009035400090393846802d000090303800803200008035000080390000903c3808902e380080300000903a3800803c0008902d3800802e000090393800803a0009902b3800802d0000903738008039000890293800802b00009035380080370008902838008029000090343800803500089026380080280000903238008034000990243800802600009030380080320005802400008030000390223800902e38089021380080220000902d3800802e0008901f380080210000902b3800802d0008901d2800801f000090293000802b0009801d00008029001090293000902d30009030300980290000802d00008030001190293000902e3000903230009035384680290000902d3800802e0000803200008035000090393808902b3800802d0000903738008039000890293800802b000090353800803700089028380080290000903438008035000990263800802800009032380080340008902438008026000090303800803200089022380080240000902e3800803000089021380080220000902d3800802e0009901f300080210000902b3000802d0008901d3000801f000090293800802b0008801d00008029001190293000902d30009030300880290000802d00008030001190293000902e3000903230009035384580290000802e00009032400080350000903e40089030380080320000903c3800803e0008902e380080300000903a3800803c0008902d3800802e000090393800803a0009902b3800802d0000903738008039000890293800802b000090353800803700089028300080290000903438008035000890263000802800009032380080340009902530008026000090313800803200088025000080310011902e3800903a3808902d3800802e000090393800803a0008902b3000802d0000903738008039000990293800802b000090353800803700089028300080290000903438008035000890263000802800009032380080340008902530008026000090313800803200098025000080310011902e3800903a3808902d3800802e000090393800803a0008902b3800802d0000903738008039000890293800802b000090353800803700089028380080290000903438008035000990263800802800009032380080340008902530008026000090313800803200088025000080310011902e3800903a3808902d3000802e000090393800803a0008902b3000802d0000903738008039000890293000802b0000903538008037000990283000802900009034380080350008902630008028000090323800803400089025300080260000903138008032000980250000902630008031000090323808802600009028300080320000903438088028000090293800803400009035380880290000902b38008035000090373809802b0000902d38008037000090393808802d0000902f380080390000903b4008802f000090313800803b0000903d40088031000090323800803d0000903e40098032000090344000803e00009040400980340000903540008040000090414008803500009037400080410000904340088037000090394000804300009045400880390000903b48008045000090474808803b0000903d48008047000090494809803d0000903e480080490000904a4808803e000090404800804a0000904c48088040000090414800804c0000904d48089040500080410000904c5000804d0008903e500080400000904a5000804c0008903c5000803e000090485000804a0009903a4800803c0000904648008048000890394800803a00009045480080460009903740008039000090434800804500089035400080370000904140008043000a9034400080350000904040008041000a9032480080340000903e48008040000a80320000803e001190344000904040088034000080400011902d480090394809802d000080390010902f4000903b4008802f0000803b001190315000903d500090455008904c480890454009902d480090394800904c480890454009802d00008031000080390000803d000080450000904c4008902f4800903b480090454000804c0008802f0000803b000080450000904c400890454000804c000990314800903d480080450000904c480880310000803d000090454000804c000880450000904c400990325000903e500090454000804c000880320000803e000080450000904c480890454000804c0008903450009040500080450000904c4809803400008040000090454000804c000880450000904c4008903550009041500090454000804c000980450000904c480890454008904c480890454009904c480890454800904a5000804c0008803500008041000080450000804a0000904c4009904a4000804c00089037480090434800804a0000904c48088037000080430000904a4000804c0008804a0000904c40099039500090455000904a4000804c00088039000080450000804a0000904d4008804d000090564008903740009043400080560000905948098037000080430000904a400080590008804a000090594008903548009041480090564800805900098035000080410000904a400080560008804a000090564008903440009040400080560000905948088034000080400000904a400080590009804a00009059400890324800903e48009056480080590009904a4008905640089059480890564009804a000080560000905940088032000090354800803e00009041480090564000805900088035000080410000904a400080560008804a000090564008903540009041400080560000905948098035000080410000904a400080590008804a00009059400990345000904050009055480080590008904c400890554008902d40009039400090584809904c4008802d0000803400008039000080400000804c00008055000090584808902f4000903b40009055400080580008802f0000803b0000904c400080550009804c00009055400890314000903d4000805500009058480880310000803d0000904c400080580008804c00009058400890325000903e5000905140008058000980320000803e0000904d400080510008804d000090514008903448009040480080510000905948098034000080400000904d400080590008804d00009059400890355000904150009056400080590009904d4008905640089059480890564009804d0000805600009059400890564800805900088035000080410000904d400080560008804d000090564008903748009043480080560000905948098037000080430000904d400080590008804d00009059400990395000904550009055480080590008803900008045000090514000805500088051000090554008903a4800904648008055000090584809803a000080460000904c400080580008804c00009058400890395000904550009055480080580009803900008045000090514000805500088051000090554008903748009043480080550000905848088037000080430000904c400080580008804c000090584809903548009041480080580000905950088035000080410000904d400080590008804d000090594008903448009040480080590000905a48098034000080400000904e4000805a0008804e0000905a40089026500090325000805a0000905b4809904f4808905b4808903e48009041480090434800905d4808905148098026000080320000803e00008041000080430000804f000080510000805b0000905d4808903e50009041500090435000905e5801805d000890524808905e4808905d4808905148098051000080520000905d4800805e0008903e50009041500090435000905b5001805d0008904f4808905b480890594808904d4809804d0000804f000090594800805b0008903c5800903e580090415800904358009058500180590008904c48089058400890594008904d4009804c0000804d00008058000090594008903c5000903e50009041500090435000905b500180590008904f4808905b4808905d480990514808804f000080510000805b0000905d4808903a5000903c5000803e0000904050008041000090435000905e4801805d000890524808905e480890604008905440088052000080540000805e000090604009903a4800903c4800903f48008040000090414800804300009059480080600008904d480890594808905b4808904f4809804d0000804f000080590000905b4808903a5000903c5000903f500090415000905d5001805b000790514809905d4808905e4808905248098051000080520000805d0000905e480890395000803a0000903c5000903f500090415000805e00009060500890544808906048099062480890564809805400008056000080600000906248089035480090394800903c4800803f000090414800806200009063500890574809906348089062480990564808805600008057000090624800806300098035000080390000903a4800803c0000903e48009041480090605800806200089054480890604809905e5008905248088052000080540000905e480080600008903a4800903c4800803e0000903f480090414800905d5800805e000890514808905d4808905b5008904f4809804f000080510000905b4800805d0008903a4800903c4800903f48009041480090595800805b0008904d40089059480890574809904b4008804b0000804d00009057400080590008903a4800803c0000903e4800803f0000904148009056480080570008904a380080560009804a00009056380890394000803a0000803e0000804100008056000090594808904d400080590009804d0000905940089037480080390000903d48009040480080590000905e500890524008905e4008903a48009061500890554008803d0000804000008052000080550000805e00009061400890394800803a0000903c48009041480090604800806100089054400980540000906040089035480080370000806000009065480890594000806500088059000090654809803500009037480080390000803c0000903d48009040480080410000905e50008065000890524000805e000880520000905e4008903a4800805e0000906148089055400080610009803d000080400000805500009061400890394800803a0000903c48009041480090604800806100089054400880540000906048089035480080370000806000009065480990594000806500088059000090654808902e48008035000080390000803c00008041000080650009802e000090353808803500009039380880390000903a3800903e38009045380890393800803a0000803e00008045000980390000903a3808803a0000903e38009041380090433808903a3800803e00008041000080430008803a0000903e380890393800903a3800803e0000904538099037380080390000803a00008045000890353800803700099030480080350008803000009037380880370000903a3808803a0000903c38009040380090453808903a3800803c00008040000080450009803a0000903c3808803c00009040380090433808903c38008040000080430008803c000090403808903b3800903c38008040000090453808903a3800803b0000803c00008045000990393800803a00089032480080390009803200009039380880390000903c3808803c0000903e40009042400090484008803e0000903f40008042000080480009903e4000803f0008903e40009041400090474008903d4000803e00008041000080470009803d0000903e400890394000803e00009041400090484008903840008039000080410000804800098038000090394008902b500080390009802b0000903240088032000090354008803500009037400090474000904c4008903640008037000080470000804c000980360000903740098037000090414000904340009047400890404000804100008043000080470009804000009041400890404800804100009043480090484809903e4800804000008043000080480008903c4800803e0009903b5800803c000090434800904a4809903a4800803b000080430000804a0008803a0000903b480990385000803b000090415000904b5009903748008038000080410000804b000880370000903848099035500080380000903b5000904350099033480080350000803b00008043000980330000903548089032500080350000903b5000904450089030480080320000803b0000804400098030000090324809902f500080320000903b500090435009902c4800802f0000803b000080430009902b4800802c000890295000802b0000903e500090445000904750089027480080290000803e0000804400008047000990264800802700099024500080260000903f5000904350009048500980240009803f0000804300008048000990245000903b5000904350009044500880240000803b0000804300008044001290245000903c5000904350009044500880240000803c0000804300008044001290305000903b5000904350009044500980300000803b0000804300008044001290245000903c5800904358009044580880240000803c0000804300008044001290305000903b5800904358009044580980300000803b0000804300008044001290245800903c5800904358009044580980240000803c0000804300008044001290305000903b5000904350009044500980300000803b0000804300008044001390245000903c5000904350009044500980240000803c0000804300008044001290304800903b4800904348009044480980300000803b0000804300008044001290244800903c4800904348009044480980240000803c0000804300008044001390303800903b3800904338009044380980300000803b000080430000804400139024380090303800903c3800904338009044380a8024000080300000803c0000804300008044001290303800903b3800904338009044380a80300000803b0000804300008044003b90243800903c3800904338009044380980240000803c0000804300008044001490303800903b3800904338009044380980300000803b0000804300008044003b90233000902f3000903b3000904330009044300c80230000802f0000803b00008043000080440014902f3000903a3000904330009044300c802f0000803a0000804300008044004690232800902f2800903b2800904328009044280e80230000802f0000803b00008043000080440015902f2800903a28009043280090442812802f0000803a0000804300008044005190222800903c2800904228009044280880220000803c00008042000080440012902e2800903b28009042280090442808802e0000803b0000804200008044003490222800903c2800904228009044280880220000803c00008042000080440013902e2800903b28009042280090442808802e0000803b0000804200008044003490212800903d2800904028009045280880210000803d00008040000080450012902d2800903b28009040280090452809802d0000803b0000804000008045003490213000903d3000904030009041300880210000803d00008040000080410012902d2800903d30009040300090413009802d0000803d0000804000008041003490212800903e2800904228009045280880210000803e00008042000080450012902d2800903d28009042280090452809802d0000803d0000804200008045003490222800903e2800904228009043280880220000803e00008042000080430012902e2800903e28009042280090432809802e0000803e0000804200008043003490233000903b3000904330009044300880230000803b00008043000080440012902f3000903a30009043300090443009802f0000803a0000804300008044003490233000903b3000904330009044300880230000803b00008043000080440013902f3000903a30009043300090443009802f0000803a0000804300008044003b90243000903c3000904330009044300980240000803c0000804300008044001290303000903b3000904330009044300980300000803b0000804300008044003b90243000903c3000904330009044300a80240000803c0000804300008044001390302800903b3000904330009044300980300000803b0000804300008044004890253000903d3000904230009044300980250000803d0000804200008044001290313800903c3000904230009044300880310000803c0000804200008044003490263800903d3800904238009045380880260000803d0000804200008045001390323800903e3800904238009045380880320000803e0000804200008045003490273800903f3800904338009046380880270000803f0000804300008046001390333800903e3800904338009046380880330000803e0000804300008046003490274000903f4000904340009047400880270000803f000080430000804700139033400090404000904440009047400880330000804000008044000080470034902748009033480090414800904548009048480880270000803300008041000080450000804800139027480090334800904348009046480090494808802700008033000080430000804600008049003490275000903350009043500090475000904a500880270000803300008043000080470000804a001390275000903350009044500090485000904b500880270000803300008044000080480000804b003490275000903350009045500090485000904c500880270000803300008045000080480000804c001390276000903360009046600090496000904d600880270000803300008046000080490000804d003490276800903368009043680090496800904b6800904f680980270000803300008043000080490000804b0000804f00109027680090336800904468009048680090506809802700008033000080440000804800008050003490276800903368009042680090486800904b6800904e680880270000803300008042000080480000804b0000804e001290277000903370009043700090487000904b7000904f700a80270000803300008043000080480000804b0000804f003590277000903370009041700090487000904b7000904d700980270000803300008041000080480000804b0000804d001390277000903370009042700090487000904b7000904e700b80270000803300008042000080480000804b0000804e00349027700090337000903f700090487000904b700a8027000080330000803f000080480000804b00139027780090337800903e780090477800904a782c9027780090337800903f780090487800904b780e9027780090337800803e0000803f0000904178008047000080480000904a7800804b0000904d782f90277800903378008041000090437800804a0000904b7800804d0000904f780e90277800903378008043000090447800804b0000904d7800804f00009050782c90277800903378008044000090467800804d0000904f7800805000009052780e902578008027000090317800803300008046000090477800904d7800804f0000805200009053782d90257800903178008047000090487800904d780080530000905478109024780080250000903078008031000080480000804d000080540000905678098024000080300000904a6009904f6009903e60009043600090566009904a580980430000804a0000904f5809803e0000903f600090436000804f00008056000090576009904b5808904f5809903f60009043600090576009904b580980430000804b0000904f5809803f00009041600090436000804f00008057000090596009904d5808904f5809904160009043600090596009904d580980430000804d0000904f5809903f60008041000090436000804f00009057600080590008904b5809904f5809903f60009043600090576008904b580980430000804b0000904f5809903e6000803f000090436000804f00009056600080570009904a5808904f5809903e60009043600090566009904a580980430000804a0000904f5809903c6000803e000090436000804f0000905460008056000890485809904f5809903c60009043600090546008904858098043000080480000904f5809903a6000803c000090436000804f0000905260008054000990465808904f6009903c6000904360009054600990486009803a0000804300008046000080480000904f600080520009803c0000903e680090436800804f00008054000090566808904a6009904f5808903e60009043600090566009904a580980430000804a0000904f5809803e0000903f600090436000804f00008056000090576008904b5809904f5808903f60009043600090576009904b580980430000804b0000904f5809803f00009041600090436000804f00008057000090596008904d5809904f5808904160009043600090596009904d580980430000804d0000904f5808903f60008041000090436000804f00009057600080590009904b5808904f5809903f60009043600090576008904b580980430000804b0000904f5809903e6000803f000090436000804f00009056600080570008904a5809904f5808903e60009043600090566009904a580980430000804a0000904f5808903c6000803e000090436000804f0000905460008056000990485808904f5809903c60009043600090546008904858098043000080480000904f5809903a6800803c0000903e680090436800804f0000905260008054000890465809904a5808903a6800903e6800904368009052600990466009803e00008043000080460000904a600990397000803a0000903e700090437000804a0000905170008052000890456009904a600890397000903e7000904370009051700990456009803e00008043000080450000904a60089037700080390000903e700090437000804a0000904f70008051000990436008904a580990376000903e600090436000904f600890436009803e000080430000904a60099030600080370000804a0000904b6000804f000890435809904b580890375800903f5800904f5809904b58088030000080430000804b0000904f58098037000090385800903f5800904d5800804f0008904b5809904d580890385800903f580090595809904d5808804b0000804d00009057580080590009902e580080380000803f00009056580080570008904d58099056580890355800903e580090595809904d5808802e0000804d000090565800805900099030600080350000803e0000904b60008056000890435809904b580890375800903f5800904f5809904b58088030000080430000804b0000904f58098037000090385800903f5800904d5800804f0008904b5809904d580890385800903f580090595809904d5808804b0000804d00009057580080590009902e600080380000803f00009056600080570008904d58099056580890355800903e580090595809904d5808802e0000804d000090565800805900099030600080350000803e0000904b60008056000890435809904b580890375800903f5800904f5809904b58088030000080430000804b0000904f58098037000090395800903f5800904d5800804f0008904b5809904d580890395800903f580090595809904d5808804b0000804d00009057580080590009902e600080390000803f00009056600080570008904d58099056600890355800903e580090596009904d6008802e0000804d000090566000805900099027680080350000803e00009054600080560008904a6009904f6008903a60009043600090566009904a600880270000804a0000904f6000805400008056000990396000803a000090436000804f00009054600890486009904f60089039600090436000905460099048600880480000904f6009903268008039000080430000804f00008054000090576808904b6009904e6008903960009042600090566009904a600880320000804a0000804b0000904e6000805600008057000980390000903a68008042000090436800804e00009052600890466009904f6008903a600090436000905260099046600880460000904f60008052000990326000803a000080430000904e6000804f000890425809904a580890395800903e5800904e5809904258088032000080420000904a5800804e000980390000903a5800803e0000903f5800804a0000904f580990435009904a5009903a5000903f5000904f50099043500980430000904a500990325000803a0000803f0000804a0000804f00009052500990465009904d500990385000903e50009050500990445009803200008044000080460000904d500080500000805200099033500080380000803e000090485000804d0008903f50099048500990385000903c5000904b5009903f500980330000803f000090485000804b00099037500080380000903a5000803c000080480000904b5009903f50099046500990375000903a5000904b5009903f5009803f000090465000804b00099033500080370000803a00008046000090495009903f50099046500990335000903d500090495009903f5009803f0000904650008049000a902c500080330000803d00008046000090485009903c50099044500990335000903c500090485009903c5009802c0000803c000090445000804800098033000090355000803c0000903d50008044000090485009903c50099044500990355000903d500090485009903c5009803c0000803d00009044500080480009902c500080350000803d00008044000090485009903c50099044500990335000903c500090485009903c5009802c0000803c000090445000804800099027500080330000803c00008044000090495009903f50099046500990335000903d500090495009903f500980270000803f00009046500080490009902c500080330000803d00008046000090485009903c50099044500990335000903c500090485000ff2f00
