%YAML 1.1
%TAG !u! tag:unity3d.com,2011:
--- !u!114 &11400000
MonoBehaviour:
  m_ObjectHideFlags: 0
  m_CorrespondingSourceObject: {fileID: 0}
  m_PrefabInstance: {fileID: 0}
  m_PrefabAsset: {fileID: 0}
  m_GameObject: {fileID: 0}
  m_Enabled: 1
  m_EditorHideFlags: 0
  m_Script: {fileID: 11500000, guid: f8ecede2929b6024cb347ef9dc77f85d, type: 3}
  m_Name: F-chopin-Stress-1-E
  m_EditorClassIdentifier: 
  midiFileBytes: 4d546864000000060001000200604d54726b0000000b00ff51030ea60000ff2f004d54726b0000347000c00000902a40009036400090425000904e5012802a0000902c400080360000903840008042000090445000804e000090505012802c0000902d4000803800009039400080440000904550008050000090515024902c4000802d0000903840008039000090445000804500009050500080510012802c0000902d4000803800009039400080440000904550008050000090515013902a4000802d000090364000803900009042500080450000904e50008051002490264000802a00009032400080360000903e500080420000904a5000804e00128026000080320000803e0000804a001290234000902f4000903b50009047501280230000802f0000803b0000804700129026400090324000903e5000904a50128026000080320000803e0000804a0013902a40009036400090425000904e5024802a00008036000080420000804e0024901e4000902a400090364000903d50009042600090465024801e0000802a000080360000803d0000804200008046002490234000902f40009032400090364000903b6000903e4000904240009047501380230000802f000080360000803b0000803e0000804200008047000090325000903e5010903e50109026500080320000803e0000904250009045501080420000904550108026000090325000803e00009042500080450000904a501090455000804a001180320000903e50008042000080450000904e5010904a5000804e001090315000903d5000803e0000804a0010903d50109025500080310000803d0000904050009045501080400000904550118025000090315000803d0000904050008045000090495010904550008049001080310000903d50008040000080450000904c501090495000804c0010902f5000903b5000803d000080490010903b501190235000802f0000803b0000903e500090455010803e00009045501080230000902f5000803b0000903e500080450000904a501090455000804a0010802f0000903b5000803e000080450000904e5010904a5000804e0011902d500090395000803b0000804a00109039501090215000802d000080390000903e5000904550028021000d803e000090455010902d500080390000903e500080450000904a501090455000804a0011802d000090395000803e000080450000904e5010904a5000804e0010902b50009037500080390000804a001090375010901f5000802b000080370000903e500090455010803e000090455011801f0000902b500080370000903e500080450000904a501090455000804a0010802b000090375000803e000080450000904e5010904a5000804e0010902a50009036500080370000804a001090365011901e5000802a000080360000903e500090455002801e000d803e000090455010902a500080360000903e500080450000904a501090455000804a0010802a000090365000803e000080450000904e5010904a5000804e0011902850009034500080360000804a001090345010901c50008028000080340000903a5000903e500090435010803a000090435010801c00009028500080340000903a5000803e0000804300009046501090435000804600118028000090345000803a000080430000904a501090465000804a001090215000902d50008034000080460010902d501080210000802d0000903d500090435010803d000090435011802d0000803d000090405000804300009049501090435000804900108040000080430000904c501090495000804c0010902f500080490012903e5011802f0000803e0000904a5000904e6012903e5000804a0012902f5000803e0000904c6000804e0012903e5000904a6000804c0011802f0000803e000090476000804a0013903e50008047001190325000803e00009043600080470012903e50128032000090396000803e00009042500080430011903e5000804200129032500080390000803e001180390000903e601180320000803e00009042500090456012903e500080420011902f500090365000803e00008045000090476012903e5011802f000080360000803e000080470000904a6012903e5000804a0011902f500090365000803e0012903e500090466000804a0011802f000080360000803e00008046000090476000904a6011903e50008047001290325000803e000090426000804a0011903e501280320000803e0000804200009043600090455011903e50008045001290325000803e00009042600080430011903e501280320000803e00008042000090455000904a6011903e50008045001290345000803e000090466000804a0011903e501280340000803e00008046000090476000904a5011903e5000804a001290375000803e0011903e5000904660008047001280370000803e00008046000090476000904a6011903e50008047001290385000803e000080470000804a0000904e6011903e501280380000803e0000904a6011903e500090446000804a0000804e001190345000803e0000904260008044001280340000903e50009040600080420011803e0000903f60008040000090445012803e0000803f00009040600080440011902e500080400011903d6012802e0000803d00009043500090496011903d600080430012902e5000803d000080490000904a6011903d600090496000804a0012802e0000803d00009047600080490011903d6000904660008047000080490012902f5000803d00009044600080460011903e60009042600080440012802f0000803e0000904060008042000090475011903e6000804000008042000080470012902b5000803e0000904260119040600080420012802b0000903e60008040000090475011903d6000803e00008040000080470012902d5000903b6000803d001190396000803b0011802d000080390000903b600090435000904650098046000090475008803b0000903c6000804300008047000090485008804800009049500890395000803c0000903d600080490000904a5809804a0000904b5808803d000090416000804b0000904c5808804c0000904d5808803900008041000090426000804d0000904e5808804e000090505009804200009047600080500000905150088051000090525008903250008047000090496000805200009053580880530000905458089042600080490000805400009055580890545800805500098032000080420000904a60009053580080540008905258008053000890425000804a000090515000805200089050500080510009902c500080420000904e6000904f500080500008904e5000804f0008802c000090415000904d5000804e0008904c5000804d00098041000090475800904b5000804c0008904a5000804b0008904150008047000090495000804a00089047500080490008902d500080410000904550008047001290405011802d0000804000009044600080450000904950129040500080440000904560008049001190355000804000008045000090466012904150009046601180350000804100008046000090476000904a501290415000804a0011903650008041000080470000904e60129040500090466000804e001280360000804000009042600080460000904950119040500080490012902d50008040001190405012802d000080400000804200009045600090495011904050008045000080490012902f5000804000009045600680450000904750069045500080470003903e5003904450008045000680440000904550068045000090475001802f0000803e00009047500480470000904850068048000090495006903e50008047000080490000904a5006804a0000904b5006804b0000904c5803803e000090455000904e5001804c0000904d5806804d0000904e5803804e0000904f5804903e500080450000804e0001804f00009050580680500000905158068051000090525801803e00009044500280520000905358078053000090545806903e500080440000805400009055580680550000905658068056000090575803902d500090395000803e000180570000905858078058000090595807903d500080590000905a5807805a0000905e5807905d5800805e0001802d000080390000803d00009043500090475004905c5000805d0006905b5000805c0004903d5000804300009045500080470001905a5000805b000790595000805a000790395000803d0000904450008045000090585000805900079057500080580007903e500090435000804400019056500080570007905550008056000780390000803e00009042500080430000905450008055000690535000805400069052500080530001903d50009041500080420004905150008052000690505000805100059028500090345000803d000080410003904f500080500004904e5001804f0002904d5002903b5000804e0004904c5000804d0007904a5000804c00038028000080340000803b00009040500390495000804a000780490000904a5006903b500080400001804a0000904b5007804b0000904c5007902b500090375000803b0002804c0000904d5006804d0000904e5003904f5003903b5000804e0003804f0000905050078050000090515004802b000080370000803b00009040500180510000905250078052000090535007903b500080400000905250008053000790515000805200079028500090345000803b0001905050008051000780500001904f5006904e5000804f0005904d5000804e0005904c5000804d00028028000080340000903b500090405003904b5000804c0006904a5000804b0005804a00019049500580490001904850069047500080480001902a500090365000803b00008040000490465000804700079045500080460004903b500180450000904650078046000190455005802a000080360000803b0000903e5000804500009046500590455000804600058045000090465004903b5000803e000190455000804600058045000090465006804600019029500090355000803b00019046500590455000804600068045000090465001903b5004904550008046000680450000904650058029000080350000803b0000903e5001904550008046000680450000904650069045500080460001903b5000803e00048045000090465004904550008046000480450001902a500090365000803b0003904550058045000290445004903b5001804400009045500790445000804500048044000090455001802a000080360000803b0000903e500480450001904450039045500180440004903b5000803e0000904450008045000680440000904550039044500080450005902d500090395000803b0000804400039045500b903b500f802d000080390000803b0000903f5000904250008045000f903b5000803f000f902b500090375000803b0000803f0000804200039040500d903b5011802b000080370000803b000090405000904750038040000b903b50008040000680470009902a500090365000803b0011903b5011802a000080360000803b0000903f500090455011903b5000803f000f9028500090345000803b0000803f00008045000f903b500f8028000080340000803b0000904050009043500f903b50008040000f9027500090335000803b00008040000080430002903b501090395011802700008033000080390000903b500090425003803b00009047500d90395000803b00008042001190285000903450008039001190375011802800008034000080370000903b5000904350038047000d90375000803b00008043001090265000903250008037001090375010802600008032000080370000903b50009041500f90375000803b00008041000f90245000903050008037000f9038500e802400008030000080380000903b50009040500f90385000803b00008040000e90235000902f500080380000803b000f9039500e80230000802f000080390000903b5000903f500e90395000803b0000803f000f902850009034500080390000803b000e9038500f802800008034000080380000903b50009040500e90385000803b00008040000e90245000903050008038000e904250009045500e8024000080300000804200008045000090475000904b50009053500d904250009045500080470000804b00008053000e90235000902f5000804200008045000e904350009047500d80230000802f00008043000080470000904c5000904f50009058500e9043500090475000804c0000804f00008058000e9028500090345000804300008047000d904450009047500e80280000803400008044000080470000904a5000904d50009053500e9044500090475000804a0000804d00008053000d9028500090345000804400008047000e904550009048500d80280000803400008045000080480000904c5000905150009054500d9045500090485000804c0000805100008054000e9028500090345000804500008048000d904650009049500d80280000803400008046000080490000904c5000904f50009055500e9046500090495000804c0000804f00008055000d9028500090345000804600009047500080490000904c5000905050009058500d80470000804c0000805000008058000d802800008034000090475000904c5000905050009054500090585000905c501b904350008047000090485000904b5000804c0000805000008054000080580000805c001a903f50009043500090485000804b001b90245000903f5000804300008048000d802400009030500d90245000803000009040500d8024000090305000803f000d9024500080300000804000009045500d802400009030500d9024500080300000904450008045000e802400009030500e90245000803000009040500080440000904b500d802400009030500d902450008030000090405000804b0000904c500d802400009030500d9024500080300000804000009045500090485000804c00009051500d802400009030500d9024500080300000904450008045000080480000904c5000905050008051000d802400009030500d902450008030000080440000904b5000804c0000904e5000805000009057500e802400009030500d9024500080300000804b0000904c5000804e0000805700009058500d802400009030500d9024500080300000804c0000905150009054500080580000905d500d802400009030500d9024500080300000905050008051000080540000905c5000805d000e802400009030500d90245000803000008050000090575000905a5000805c0000905d50009063500d802400009030500d90245000803000008057000090585000805a0000805d000090605000806300009064500d802400009030500d90245000803000009054500080580000905c5000906050008064000e802400009030500d90245000803000009053500080540000905a5000805c0000905f50008060000d802400009030500e9024500080300000905150008053000090575000805a0000905d5000805f000d802400009030500d902450008030000090505000805100008057000090585000905c5000805d000d802400009030500d9024500080300000805000009054500080580000905c50009060500d802400009030500d90245000803000009053500080540000905c5000905f50008060000d802400009030500d90245000803000008053000090575000805c0000905d5000805f0000906050009063500e802400009030500d90245000903050008057000090585000905b5000805d000080600000806300009064500d80580000805b0000906350008064000d8024000080300000906050008063000d905f50008060000d905e5000805f000d905d5000805e000e905b5000805d000d905a5000805b000d90595000805a000d905850008059000d905750008058000d905450008057000e905350008054000d905250008053000d905150008052000d904f50008051000d904e5000804f000d904d5000804e000d904c5000804d000e904b5000804c000d90485000804b000d904750008048000d904650008047000d904550008046000d904350008045000d904250008043000e904150008042000d904050008041000d903f50008040000d903c5000803f000d903b5000803c000d903a5000803b000d90395000803a000e903750008039000d903650008037000d903550008036000d903450008035000d903350008034000d903050008033000d902f50008030000d902e5000802f000e902d5000802e000d902b5000802d000d902a5000802b000d90295000802a001b90285000802900359027500080280035802700379024500090305000903650009039500090405000904250369023500080240000902f500080300000803600009037500080390000903b500080400000804200009043503a80230000802f000080370000803b00008043003b902f60009036600090396000903f60009042600090456000904b6000904e603d90236000902f60008036000080390000803f00009042600090456000904b6000904e6000905360418023000090286000802f00009034600090376000903b60008042000080450000804b0000804e00008053000a904060049043600490476004904c6005904f600580370000803b00009040600090436000904c6000904f60009053600090586000905f601d8043000080470000804c0000804f00008053000080580000805f001e80400000904260008043000090456000904b6000804c001e80420000904360008045000090476000804b0000904c601e90286000903460008043000090476000804c0004904c6004904f60049053600490586004905b6005905f601e90346000903b6000904060009043600090476000904c6000904f60008053000090586000805b0000905f60009064602080470000804c0000804f000080580000805f00008064002090346000903b6000904060009043600090476000904c6000904f600090586000905f60009064602280340000803b0000804000008043000080470000804c0000804f000080580000805f000080640025902860009034600090376000903b6000904060009043600090476000904c600090376000903b6000903e6000904368349043680880370000803b0000803e0000804300088043000190345000903b600090406000904368349043680980340000803b000080400000804300088043000190305000903c600090406000904360009048684680300000803c000080400000804300008048000990345800903c600090436035903c680880340000803c000080430008803c00019032500090395000903e50009042683480420001904268088032000080390000803e000080420008804200019030480090395000903e50009042683480420001904268088030000080390000803e00008042000880420001902f500090375000903e50009043683480430001903e6808802f000080370000803e000080430008803e0001902b5000903b5800903e6834803e0001903e6808802b0000803b0008803e000190305800904068009043604f90345000903c5000904068009043581b8030000080400000804300188034000080400001903048009040680090485000904c6808803c000080430008803000008040000080480000804c000190375000904068009043580090485800904c683480400001903e6808803700008043000080480000804c0008803e0001902b5000903e68009043580090476000904a6034803e000190476808802b00008043000080470000804a00088047000190325800904258009047684f90365000904250009047681b803200008042000080470018803600008047000190325000903e500090456800904e6008804200008047000880320000803e000080450000804e000190345000903b50009045680090475000904f60348045000190436808803b000080470000804f000880430001903d5000904368009049581a80340018803d00008043000190345000903e680090405008804300008049000880340000803e0000804000019032500090395000903e680090425800904a5834803e000080420000804a0001903e600090436000904760088032000080390008803e000080430000804700019030500090395000904060009045600090486034804000008045000080480001904260009045600880300000803900088042000080450001902f5000903b5000903e600090436000904a6046802f0000803b0000803e000080430000804a000990305000903c6000904058009043600090485834803c000080480001903c600090476008803000008040000080430008803c00008047000190325000903b6800903e50009043580090476034803b00019039680880320000804300088039000190264800903968009042581a803e001b903c500880260000803900008042000080470009902b50009037680090435834803c0001903c5008802b000080430008803c000190376800903b503480370000803b0001903650009039500880370008803600008039000190376800903b6800903e6800904368349043680980370000803b0000803e0000804300088043000190345000903b60009040600090436834804300019043680880340000803b000080400000804300088043000190305000903c600090406000904360009048684680300000803c000080400000804300008048000990345800903c600090436035903c680880340000803c000080430008803c00019032500090395000903e50009042683480420001904268088032000080390000803e000080420008804200019030480090395000903e50009042683480420001904268088030000080390000803e00008042000880420001902f500090375000903e50009043683480430001903e6808802f000080370000803e000080430008803e0001902b5000903b5800903e6834803e0001903e6808802b0000803b0008803e000190305800904068009043604f90345000903c5000904068009043581b8030000080400000804300188034000080400001903048009040680090485000904c6808803c000080430008803000008040000080480000804c000190375000904068009043580090485800904c683480400001903e6808803700008043000080480000804c0008803e0001902b5000903e68009043580090476000904a6034803e000190476808802b00008043000080470000804a00088047000190325800904258009047684f90365000904250009047681b803200008042000080470018803600008047000190325000903e500090456800904e6008804200008047000880320000803e000080450000804e000190345000903b50009045680090475000904f60348045000190436808803b000080470000804f000880430001903d5000904368009049581a80340018803d00008043000190345000903e680090405008804300008049000880340000803e0000804000019032500090395000903e680090425800904a5834803e000080420000804a0001903e600090436000904760088032000080390008803e000080430000804700019030500090395000904060009045600090486034804000008045000080480001904260009045600880300000803900088042000080450001902f5000903b5000903e600090436000904a6046802f0000803b0000803e000080430000804a000990305000903c6000904058009043600090485834803c000080480001903c600090476008803000008040000080430008803c00008047000190325000903b6800903e50009043580090476034803b00019039680880320000804300088039000190264800903968009042581a803e001b903c500880260000803900008042000080470009902b50009037680090435834803c0001903c5008802b000080430008803c000190376800903b5034803b0001903650009039500880370008803600008039000190376000903e680090436800904768348043000080470001904368009047680880370000803e000080430000804700088043000080470001903450009040600090436800904768348043000080470001904368009047680880340000804000008043000080470008804300008047000190305000904060009043680090486000904c684680300000804000008043000080480000804c00099034580090406000904360009048603590406808803400008040000080430000804800088040000190325000903e600090426000904568348042000080450001904260009045680880320000803e000080420000804500088042000080450001902a4800903e6000904268009045603480420000804500019042680090456808802a0000803e0000804500088042000080450001902b5000903e680090436800904768348043000080470001903e680090456808802b0000803e000080470008803e00008045000190376000903b6800903e68009043680090476834803b0000803e00008047000190396800903c680090486808803700008043000880390000803c00008048000190376000903b680090436000904a683480370000803b000190376800903b68088037000080430000804a000880370000803b000190375000903b68009043600090476000904a603480370000803b000190375000903b68088043000080470000804a000880370000803b000190305000903c68009043600090486000904c6834803c0000804c0001903b6800904a6808803000008043000080480000804c0008803b0000804a000190305000903c68009043500090485000904c6834803c0000804c0001903e6800904e6808803000008043000080480000804c0008803e0000804e0001902f5000903e680090435000904a6000904f683480430001903e5008802f0000804a0008803e0001903050009040600090435000904c6027804f0009803000008040000080430000804c0001903250009042680090455000904a6000904e6810803200008042000080450000804a0000804e0001903750009043680090476000904a6800904e6834803700008043000080470000804a0000804e0001903c68009043680090486800904c6810803c00008043000080480000804c0001903c68009043600090486800904c6834803c00008043000080480000804c0001903b68009044600090476800904a6810803b00008044000080470000804a0001903b68009044600090476800904a6834803b00008044000080470000804a000190396800903c500090405000904568009048681080390000803c000080400000804500008048000190396800903c500090405000904568009048683480390000803c0000804000008045000080480001903768009040600090476810803700008040000080470001903768009040500090435000904768468037000080400000804300008047000990366800903f600090425000904568009047684680360000803f000080420000804500099034500090406000904368468034000080400000804300008047000990396800903c500090426800904568009048683480420000804500008048000190406800904368009047680880390000803c0008804000008043000080470001903b6800903f68009042680090476834803f00008042000190406008803b000880400001902f5000903f68009042601a803b001880420001903b5008802f0000803f00008042000080470008803b00019034600090375000903b5000904068468034000080370000803b0000804000099043684680430009904568468045000990476869902f4000903b4000903f40009043400090474023802f0000803b0000803f00008043000080470001902f4000903b40009040400090434000904940348049000190474008802f0000804000008043000880470001902f400090404000904340009049402780470010802f0000804000008043000080490001902f4000904040009043400090474000904b4008803b0008802f0000804000008043000080470000804b0001902f4000903b40009042400090474000904b4008804b0001904c4008804c0001904b4034804b00019049401a802f00008042000080470000804b000980490001902f40009042400090474000904b4023802f00008042000080470000804b0001902f40009040400090474000904c40348040000080470000804c00019040400090474000904b4008802f00088040000080470000804b0001902f40009040400090474000904c4027802f0000803b000080420010802f00008040000080470000804c0001902f40009042400090474000904e4010802f00008042000080470000804e0001902f4000903b40009042400090474000904e4034804e0001904b4034804b0001904940088042000080470000804e001a80490001903f400090424000904740348047000190454008803f0000804200088045000190404000904340348040000080430001903f40009042400880400008803f0000804200019040400090434000904768468040000080430000804700099047683590404000904340009047400880470008804000008043000080470001904040009043400090476800904940348040000080430000804900019040400090434000904740088047000880400000804300008047000190404000904340009047680090494027802f0000803b001080400000804300008047000080490001904040009043400090474000904b400880470008804000008043000080470000804b0001903b40009042400090476800904b4034804b000190494027804200108049000190424000904740088047001a8042000080470001903f40009042400090474000904968348049000190476808803f0000804200088047000190404000904568348040000080450001903f400090424000904340009045680880400008803f00008042000080430000804500019040400090434000904868468043001a8040001b9043400090484000904c40108043000080480000804c00019043400090484000904c40348043000080480000804c00019043400090484000904c40108043000080480000804c00019043400090484000904c4027803b0000804700108043000080480000804c00019043400090484000904c40108043000080480000804c0001903940009042400090484000904c40468048001a803900008042000080480000804c0009903940009042400090484000904c6823803900008042000080480000804c000190394000904240009047400090486800904a40348047000080480000804a000190454000904868088039000080420008804500008048000190394000904240009047400090486800904a40348047000080480000804a00019045400090486800904c400880390000804200088045000080480000804c0001903b40009042400090476800904b4067803b00008042000080470000804b0009903440009043400090476800904c4023803400008043000080470000804c0001903b40009042680090476800904b4069902f4000803b00009042400090474000904b40128042000080470000804b0010802f00008042000080470000804b0001903440009043680090476800904c40468043000080470000804c00369043400090474000904c40118043000080470000804c00019043400090474000904c40348043000080470000804c00019043400090474000904c40108043000080470000804c00019043400090474000904c4027803400008043000080470000804c00108043000080470000804c00019043400090474000904c40108043000080470000804c0001903c40009043400090484000904c4069904368118043000080480000804c00108043000190404000904340009048683480480001904768088040000080430008804700019041400090456834804100008045000190404000904368009048400880410008804000008043000080480001904140009045680090484046803c00008045000080480009903b400090474000904a681a80410009803b000080470000804a0001903940009045400090486800904d4023803900008045000080480000804d0001903840009044400090476800904c4034804c0001904a4010804a0001904840278038000080440000804700088048000190384000904068009044400090476800904c401080380000804000008044000080470000804c0001903940009040680090456800904840468045001a803900008040000080450000804800099039400090406800904540009048682380390000804000008045000080480001903440009040680090446800904768699034400090404000904440009047401280400000804400008047001080340000804000008044000080470001902d4000903c4000904040009045683f803c0000804000008045002890456808802d00008045001a804500019045684f90395000903d5000904050009045502380390000803d00008040000080450001903750009040500090455000904950118045001080370000804000008045000080490001903650009042500090455000904a5000904e683f803600008042000080450000804a0000804e0009903b5000904250009045500090475000904b6823803b0000804200008045000080470000804b0001903750009043500090475000904c501a804b0008803700008043000080470000804c0001903350009042500090476800904e503f803300008042000080470000804e0009903450009043500090476800904c5023803400008043000080470000804c0001903b50009042500090476800904b5023803b00008042000080470000804b0001903450009043500090476800904c503f803400008043000080470000804c0009904068359040500880400008804000019043683590435008804300088043000190476835904750088047000880470001904a6869903e4000904a4000904d400090534023803e0000804a0000804d00008053000190414000904a40009050400090534034804a000190486808804a0000805000008053000880480001903e40008041000090476800904a4000904d4000905340238047000190456818803e0000804d000080530008804500019040400090456800904c400090514023804500019044681880400000804a000080510008804400019039400090456800904940009051402380490000804c000190474000904a401880390000805100088045000080470000804a000190454000904940468045000080490009903768009040500090455000904940238037000080450000804900019036680090475000904a40108036000080470000804a00019034680090495000904c40108034000080490000804c000190326800904a5000904e403f8040002380320000804a0000804e0009903e68009042500090455000904a4000904e6823803e00008042000080450000804a0000804e0001903d68009040500090455000904c40009051683f803d00008040000080450000804c000080510009903e500090455000904e6834804e0001904a6808803e000080450000804e0008804a000190395000904050009045680090494000904c686990405000904550009049501280390000804000008045000080490000804c0010804000008045000080490001904050009045500090495046804000008045000080490009903750009040500090455000904940238037000080450000804900019036500090474000904a40108036000080470000804a00019034500090494000904c40108034000080490000804c00019032500090426800904a4000904e401a8040002380420009904a681a80320000804a0000804e0009903e50009042400090454000904a401a804a0008803e00008042000080450000804a0001903e4000904240009045400090486846803e0000804200008045000080480009903e40009042400090456800904840348045000190486808803e000080420000804500008048000880480001903e4000904240009045400090486869903e500090424000904540009048401280480010803e0000804200008045000080480001903e5000904240009045400090476800904b403f8047000990456827903e50009042400090454000904b401080450001803e0000804200008045000090476800804b0010803e0000804200008045000080470000804b0001903850009040500090476800904c4079803800008040000080470000804c0012904c688110804c0028904c6827804c0001904a6827804a0001904868278048000190476827804700019045682780450001904d6879903940009045400090484000904d4023803900008045000080480000804d00019039400090414000904540009048403f8039000080410000804500008048000990394000904140009045400090484034804500019049680880390000804100008045000080480008804900019039400090414000ff2f00
