%YAML 1.1
%TAG !u! tag:unity3d.com,2011:
--- !u!114 &11400000
MonoBehaviour:
  m_ObjectHideFlags: 0
  m_CorrespondingSourceObject: {fileID: 0}
  m_PrefabInstance: {fileID: 0}
  m_PrefabAsset: {fileID: 0}
  m_GameObject: {fileID: 0}
  m_Enabled: 1
  m_EditorHideFlags: 0
  m_Script: {fileID: 11500000, guid: f8ecede2929b6024cb347ef9dc77f85d, type: 3}
  m_Name: F-eltonjohn-Fall-E
  m_EditorClassIdentifier: 
  midiFileBytes: 4d546864000000060001000300604d54726b0000000b00ff51030ea60000ff2f004d54726b0000014400c9000099235000992a500099315028992a502899265000992a5028992a502699235000992a5028992a502899265000992a5028992a502699235000992a5028992a502899265000992a5028992a502699235000992a5028992a502899265000992a5028992a502699235000992a5028992a502899265000992a5028992a502899235000992a5028992a502899265000992a5028992a502699235000992a5028992a502899265000992a5028992a502899235000992a5028992a502899265000992a5028992a502699235000992a5028992a502899265000992a5028992a502899235000992a5028992a502899265000992a5028992a502699235000992a5028992a502899265000992a5028992a502699235000992a5028992a502899265000992a5028992a502899235000992a50962889230000892a00008931000089260000ff2f004d54726b0000071600c00000902678009032781490357814903978149041785a802600008032000380350000803900008041000590297800903578149035781490397814903e785a80290000803500038035000080390000803e0005902678009032781490357814903978149041785a802600008032000380350000803900008041000590297800903578149035781490397814903e785a80290000803500038035000080390000803e00059026780090327800903e780090417800904578149035781490397814904178817a8026000080320000803e000080410000804500038035000080390000804100059024780090307800903c780090407800904378149034781490377814903e78817a8024000080300000803c000080400000804300038034000080370000803e000590237800902f7800903b7800903e7800904278149032781490367814903e78817a80230000802f0000803b0000803e0000804200038032000080360000803e00059026780090327800903e780090417800904578149032781490357814903b785a8026000080320000803e000080410000804500038032000080350000803b0005902978009035780090397800903c781490307814903578149037786490327800904a781880320000903978188039000090427800804a000c8042000c90327800904a780c80320000804a00249045780c804500249042780c8042000c902d780090497818802d00009037781880370000903d78008049000c803d000c902d78009049780c802d0000804900249045780c804500249042780c8042000c902f7800904a7818802f0000903278188032000090397800804a000c8039000c902f7800904a780c802f0000804a00249049780c8049000c904a780c804a000c9049780c8049000c902d780090477818802d00009036781880360000903b78008047000c803b000c902d78009047780c802d0000804700249045780c804500249042780c8042000c90327800903e78009042781880320000903678188036000090397800803e00009042780c803900008042000c90327800903e78009042780c80320024803e0000904278009045780c804200008045002490427800904a780c80420000804a000c902d78009040780090497818802d0000903778188037000090397800804000008049000c8039000c902d7800904078009049780c802d00008040000080490024904078009045780c8040000080450024903d78009042780c803d00008042000c902f7800903e780090477818802f0000903278188032000090397800803e00008047000c8039000c902f7800903e78009047780c802f0000803e000080470024904278009045780c804200008045000c904278009047780c804200008047000c904278009045780c804200008045000c902d7800903b780090437818802d0000903678188036000090397800803b00008043000c8039000c902d7800903b78009043780c802d0000803b000080430024903978009042780c803900008042002490367800903e780c80360000803e000c90327800903e78009042781880320000903678188036000090397800803e00009042780c803900008042000c90327800903e78009042780c80320024803e0000904278009045780c804200008045002490427800904a780c80420000804a000c902d78009040780090497818802d0000903778188037000090397800804000008049000c8039000c902d7800904078009049780c802d00008040000080490024904078009045780c8040000080450024903d78009042780c803d00008042000c902f7800903e780090477818802f0000903278188032000090397800803e00008047000c8039000c902f7800903e78009047780c802f0000803e000080470024904578009049780c804500008049000c90457800904a780c80450000804a000c904578009049780c804500008049000c902d78009040780090477818802d00009036781880360000903b7800804000008047000c803b000c902d7800904078009047780c802d00008040000080470024904578009049780c804500008049002490427800904a780c80420000804a000c90327800903e78009042781880320000903678188036000090397800803e00009042780c803900008042000c90327800903e78009042780c80320024803e0000904278009045780c804200008045002490427800904a780c80420000804a000c902d78009040780090497818802d0000903778188037000090397800804000008049000c8039000c902d7800904078009049780c802d00008040000080490024904078009045780c8040000080450024903d78009042780c803d00008042000c902f7800903e780090477818802f0000903278188032000090397800803e00008047000c8039000c902f7800903e78009047780c802f0000803e000080470024904278009045780c804200008045000c904278009047780c804200008047000c9042780090457800ff2f00
