%YAML 1.1
%TAG !u! tag:unity3d.com,2011:
--- !u!114 &11400000
MonoBehaviour:
  m_ObjectHideFlags: 0
  m_CorrespondingSourceObject: {fileID: 0}
  m_PrefabInstance: {fileID: 0}
  m_PrefabAsset: {fileID: 0}
  m_GameObject: {fileID: 0}
  m_Enabled: 1
  m_EditorHideFlags: 0
  m_Script: {fileID: 11500000, guid: f8ecede2929b6024cb347ef9dc77f85d, type: 3}
  m_Name: F-thebeatles-unsteady-MM
  m_EditorClassIdentifier: 
  midiFileBytes: 4d546864000000060001000500604d54726b0000000b00ff51030ea60000ff2f004d54726b0000002700c90000992a502d992a502e992a502e992a502e9933507099335047892a000089330000ff2f004d54726b0000003000c3208137932e5023832e0002932e5016832c0010933150228331000393355021833500049331502183310000ff2f004d54726b000000a800c4188137943a5000943d50009441500094465023843a0000843d00008441000084460002943a5000943d50009441500094465023843a0000843d00008441000084460003943a5000943d50009441500094465023843a0000843d00008441000084460002943a5000943d50009441500094465022843a0000843d00008441000084460003943a5000943d50009441500094465022843a0000843d00008441000084460000ff2f004d54726b0000026c00c0008137903a40009046400090494800904d4809803a00008046000180490000804d0002903a48009046400090494800904d4809803a0000804600018046000080490000804d0003903a48009046480090494800904d4809803a000080460000804d00018046000080460000804900029038400090444800904648009046480090494800904d480a80380000804400008046000080490000804d000390384000904440009046480090494800904d4809803800008044000080460000804d0001804600008049000290384000904448009046480090494800904d480a8038000080440000804600008046000080490000804d00039038480090444800904648009046480090494800904d480980380000804600018046000080490000804d0002903848009046480090494800904d480a80380000804400008046000080490000804d000390384800904148009046400090494800904d4009803800008041000080460000804d0001804600008046000080490000804d00029038480090444800904640009046480090494800904d400480380000903a500080440000904650058046000080490000804d00039046400090494000904d4009804600018046000080490000804d00029046400090494000904d4007803a00008046000280460001804600008046000080490000804d00039038480090444800904640009046480090494800904d400980380000804600018046000080490000804d0002903840009046400090494000904d400a803800008046000080490000804d0003903840009046480090494800904d480580440001803800008044000280460001804600008046000080490000ff2f00
