%YAML 1.1
%TAG !u! tag:unity3d.com,2011:
--- !u!114 &11400000
MonoBehaviour:
  m_ObjectHideFlags: 0
  m_CorrespondingSourceObject: {fileID: 0}
  m_PrefabInstance: {fileID: 0}
  m_PrefabAsset: {fileID: 0}
  m_GameObject: {fileID: 0}
  m_Enabled: 1
  m_EditorHideFlags: 0
  m_Script: {fileID: 11500000, guid: f8ecede2929b6024cb347ef9dc77f85d, type: 3}
  m_Name: F-video-A-New-Beginning-1-MM
  m_EditorClassIdentifier: 
  midiFileBytes: 4d546864000000060001000400604d54726b0000000b00ff51030ea60000ff2f004d54726b000001d300c900009925502d9925502e9925502e9925502e992a5017992a501799285000992a5017992a500099305017992a5017992a501799285000992a5017992a5017992a5017992a501799285000992a5017992a500099305017992a5017992a501799285000992a5017992a501799245000992a501799245000992a501799285000992a501799245000992a500099305017992a5017992a501799285000992a5017992a5017992a5017992a50009930501799285000992e5017992d50179928500b9928500b992850179928501799285017992850179929501799285000992a5017992450009928501799245000992a500099315017992a501799285000992a501799245000992a501699245000992a5017992e501799285000992a5017992a501699245000992a5017992a501799285000992a501699245000992a501799245000992a5017992e501799285000992a5017992a501699245000992a5017992a501799285000992a501699245000992a501799245000992a5017992e501799285000992a5017992a501699245000992a5017992a501799285000992a501799245000992a501799245000992a500789250000892a0000892800008930000089240000892e0000892d00008929000089310000ff2f004d54726b0000006800c3208772932850378328000e932850078328000f932850508328000b9325503283250012932550098325000e93255053832500089321503283210012932150098321000e9321505583210006931c502e831c0017931c5016831c00019328500783280000ff2f004d54726b0000004b00c00087729034780090387800903b7881369034780090387800803b0000903d788136903478008038000090397800903d788136903478009038780080390000903b7800803d0000ff2f00
