%YAML 1.1
%TAG !u! tag:unity3d.com,2011:
--- !u!114 &11400000
MonoBehaviour:
  m_ObjectHideFlags: 0
  m_CorrespondingSourceObject: {fileID: 0}
  m_PrefabInstance: {fileID: 0}
  m_PrefabAsset: {fileID: 0}
  m_GameObject: {fileID: 0}
  m_Enabled: 1
  m_EditorHideFlags: 0
  m_Script: {fileID: 11500000, guid: f8ecede2929b6024cb347ef9dc77f85d, type: 3}
  m_Name: F-chopin-Darkness-1-M
  m_EditorClassIdentifier: 
  midiFileBytes: 4d546864000000060001000200604d54726b0000000b00ff51030ea60000ff2f004d54726b000001e400c0000090253000903138820c901e4013902a401680250000903140179036301590393817903d30159039301390363015903130139036301490393013903d30139039301190363014903130139036301390393013903d30139039301490363013903130139036301390393014903d3013903938139036381290313802901e480f902a400a803100008036000080390000803d00089036381490393813903d38139039381390363812903138149036381190393813903d38139039381390363813903138149036301390393013903d30139039301390363013903130129036301490393013903d2813903930139036300e90313004901e4813902a400f9036301490393013903d30149039301290363012903130149036301490393012903d30139039301190363018903130119036301390393013903d30119039301390363015903130139036301190393014903d3014903930139036301590313002801e000090253800802a00008036000080390000803d001590383012903b3014903d3014903b3012903830139031381390383013903b3015903d3013903b30129038300980250000902a3800803b0000803d000b803800019036301290393013903d301390423012903d4013903b401490392812903d3014904230129045301490423000ff2f00
