%YAML 1.1
%TAG !u! tag:unity3d.com,2011:
--- !u!114 &11400000
MonoBehaviour:
  m_ObjectHideFlags: 0
  m_CorrespondingSourceObject: {fileID: 0}
  m_PrefabInstance: {fileID: 0}
  m_PrefabAsset: {fileID: 0}
  m_GameObject: {fileID: 0}
  m_Enabled: 1
  m_EditorHideFlags: 0
  m_Script: {fileID: 11500000, guid: f8ecede2929b6024cb347ef9dc77f85d, type: 3}
  m_Name: F-chopin-Rain-1
  m_EditorClassIdentifier: 
  midiFileBytes: 4d546864000000060001000200604d54726b0000000b00ff51030ea60000ff2f004d54726b00000aec00c00000902a40009031400090394000903d4015904248149042501490445015904550299045502990454852902a40009031400090394000903d40008044000080450052902a4000903140009038400080390000903b4000803d0000804200149041481590414814903d50149044502a9044502990444852902a40009031400090384000903b4000803d00008041000080440052902a400090314000903640008038000090394800803b0014903d48149042501590445014902a4000903140009036400090454829904750299049582990455029902a4800903148009039482990424829902a4000902f4000803100009036400080390000903b5000803d00008042000080440000804500008047000080490015903e5014904550149044501590364000903b4800903e48009044502990424829902a4000802f0000903140009036400090394800803b0000903d4800803e0000804200008044000080450052902a40009031400090364052802a0000902f3800803100009036400080390000803d00009042481490414814903e481590425014902f4800903640009045502990445829802f00009031480090364800803e0000804100008042000080440000904558149044581590425814903d581490314800903648009045602a90445829803100009032480090364800803d0000804200008044000090456014904460008045001590426014903e681490324800903648009045682a90476029803200009036480090394800803e000080420000804400008045000080470000904960529036500090395052902d480090344800803600009039480080490014903d5814903e581590406014902d4800903448009039480090426014904468149045682a902c4800802d00009034480080390000903b4800803d0000903e48008040000080420000804400008045000090476852902c480090344800903b4852802c0000902d40009034480090394800803b0000803e000080470014903d5814903e581490406015902d4800903448009039480090426014904468149045682a802d0000903448009038480080390000903b4800803d0000903e480080400000804200008044000080450000904768529034500090385000903b5052902a500090315000803400009036500080380000803b0000803e0000804700149039500090455014903b500090475815903d500090495014903e5800904a581490405800904c601590426000904e60149044600090506014904568009051682a90426000904e6029903d58009049602990425000904e502a902a4800903148009036480090395000803b0000803d0000803e0000804000008042000080440000904550008047000080490000804a0000804c0000804e0000805000008051001480390000903d58008045000090495014903e5800904a581490406000904c601590426800904e6814904470009050681490457000905168159047700090537014902a500090315000903650009049780090557814904a780090567815904c780090587814904e7800905a781690285000802a0000902d5000803100009034500080360000803d0000803e0000804000008042000080440000804500008047000080490000804a0000804c0000804e0000905070008051000080530000805500008056000080580000805a0000905c702d90285000902e50009034500090526800905e682e9026500080280000902d5000802e00009032500080340000805000009051780080520000805c0000905d7800805e002c904a68009056682e9032480090394800903e480090426000904e602e904558009051583080260000802d0000903248009038480080390000903b4800803e0000904058008042000080450000804a0000904c5800804e00008051000080560000805d002e904c500090585032903248008038000090394800803b0000903d480080400000804c0000904e500080580000905a50319049500090555034902f4000803200009036400080390000903b4000803d000080490000904a4800804e00008055000090564800805a00349047400090534034802f0000903140008036000090384000803b0000903d380090414800904448008047000090494800804a000080530000905548008056006e902a4000903140008038000090393800803d0000804100009042500080440000804900008055003e9049483f904948810e9049403f80390000804200009049381f802a000080310000903240009036400090394017903248009036480090394800904948179047480080490017904540008047001890454017902d400080320000903440008036000080390000903d4018902d380090343800903d382e8045002f9045402f802d000090324000803400009036400090394000803d000090454017804500009047401780470000904940189047400080490017902d400080320000903440008036000080390000903d4000904440008047001890403800804400179040385f8040002f9040402f902d380090343800903d380080400000904240188042000090454017804500009049402f802d0000902f38008034000090363800803d0000903e382f9049402f802f0000903140009035400080360000903d4000803e0000904940179047400080490017904540008047001890453817902a4000903140008035000090393800803d0017902a3800903138009039382f804500309045402f802a00008031000090323800903638009039380090454017804500009047401880470000904940179047400080490018902d380080320000903438008036000080390000903d3800904440008047001790403800804400179040385f8040002f903d40009040402f902a3800802d0000903138008034000090394000803d00008040000090424018804200009045401780450000904948189045400080490017802a0000902d3800803100009034380080390000903d380080450000904740179044400080470018804400009045405f8045002f802d000080340000803d0000904548009051482f80450000904a4800805100009056481790494000804a0000905540008056001790474000804900009053400080550018904540008047000090514000805300179040400080450000904c40008051005f8040000090425000804c0000904e50188042000090455000804e00009051501780450000904750008051000090535017904550008047000090515000805300189042500080450000904e50008051002f90424800904e482f80420000804e001790424800904e481790424800904e48178042000090454800804e0000905148189044480080450000905048008051005e903d400080440000904940008050002f803d0000903e480080490000904a4817803e000090404800804a0000904c48188040000090424800804c0000904e48179040400080420000904c4000804e0018903940008040000090454000804c002f80390000904548009051482f904548009051482f904548009051482f904548009051482f904548009051482f80450000805100179045480090514817804500009047480080510000905348179045480080470000905148008053001880450000904748008051000090534817904540008047000090514000805300188045000090474000805100009053401790454000804700009051400080530017902a40009031400090394000903d40008045000080510017904248179042501790445017902a400090314000903940009045502f9045502f902a4000903140009039400090454852902a40009031400090394000803d00008042000080440052902a400090314000ff2f00
