%YAML 1.1
%TAG !u! tag:unity3d.com,2011:
--- !u!114 &11400000
MonoBehaviour:
  m_ObjectHideFlags: 0
  m_CorrespondingSourceObject: {fileID: 0}
  m_PrefabInstance: {fileID: 0}
  m_PrefabAsset: {fileID: 0}
  m_GameObject: {fileID: 0}
  m_Enabled: 1
  m_EditorHideFlags: 0
  m_Script: {fileID: 11500000, guid: f8ecede2929b6024cb347ef9dc77f85d, type: 3}
  m_Name: F-chopin-Left-Past-1-M
  m_EditorClassIdentifier: 
  midiFileBytes: 4d546864000000060001000200604d54726b0000000b00ff51030ea60000ff2f004d54726b00000c6b00c000009030400090384000903f40009043400f8030000080380000803f0000804300089044401180440007904840118048000890384000903f400090434000904b401180380000803f000080430000804b0007904f4011804f0008904d4011804d00079030400090384000903f4000904340118030000080380000803f00008043000890434011804300079044401180440008904840118048000790384000903f400090434000904b401180380000803f000080430000804b0008904f4011804f0007904d4011804d00089030400090384000903f4000904340118030000080380000803f0000804300079044401180440008904840118048000790384000903f400090434000904b401180380000803f000080430000804b0008904f4011804f0007904d4011804d0008904d4011804d00079041401180410008904d4011804d0007904d4011804d0008904d4011804d00079059401180590008904d4011804d000790314000903c4000904140009046401180310000803c0000804100008046000890484011804800079049401180490008903c40009041400090464000904d4011803c00008041000080460000804d00079052401180520008905440118054000790314000903c4000904140009046401180310000803c0000804100008046000890484011804800079049401180490008903c40009041400090464000904d4011803c00008041000080460000804d00079052401180520008905440118054000790314000903a4000904140009044401180310000803a0000804100008044000890464011804600079049401180490008903a40009041400090444000904d4011803a00008041000080440000804d000790524011805200089054401180540007904d4011804d00089041401180410007904d4011804d0008904d4011804d00079059401180590008904d4011804d0007902740009033400090384000903a400090414011802700008033000080380000803a00008041000890434011804300079044401180440008903a4000904440009046401180460007904d4011804d0008904f4011804f000790524011803a00008044000080520008904d4011804d0007903f4011803f0008903f4011803f0007904b4011804b0008903f4011803f0007902740009033400090384000903a400090414011802700008033000080380000803a00008041000890434011804300079044401180440008903a4000904440009046401180460007904d4011804d0008904f4011804f000790524011803a00008044000080520008904d4011804d0007903f4011803f0008903f4011803f0007904b4011804b0008903f4011803f0007902740009033400090384000903a400090414011802700008033000080380000803a00008041000890434011804300079044401180440008903a4000904440009046401180460007904d4011804d0008904f4011804f000790524011803a00008044000080520008904d4011804d0007903f4011803f0008903f4011803f0007904b4011804b0008903f4011803f0007903f4011803f0008904140118041000790434011804300089043401180430007904b4011804b0008904d4011804d0007904f4011804f0008904f4011804f000790574011805700089059401180590007905b4011805b0008905940118059000790574000905b401180570000805b000890564000905940118056000080590007904f400090564000905b4011804f000080560000805b00089050400090544000905740118050000080540000805700079052400090544000905e40118052000080540000805e00089050400090544000905c40118050000080540000805c000790274000903340009054400090574000905b40009060402280270000803300008054000080570000805b0000806000339043400090464000904b4000904f40009052400090574000905e40448043000b903f4000902e38009041381f90353800903a3800903d380f80350000803a0000803d001090353800903a3800903d380f80350000803a0000803d0010902a3800802e0000804100009046381f902e380090363800903a3800903d380f802e000080360000803a0000803d0010902e380090363800903a3800903d380f802e000080360000803a0000803d001090273800802a001f902e380090333800903a3800903c3800904438008046000f802e000080330000803a0000803c0010902e380090333800903a3800903c3800904238008044000f802e000080330000803a0000803c0010802700009029380090393800904138008042000f8029001090303800903338009035380f803000008033000080350010903038009033380090353800903f38008041000f8030000080330000803500109022380080390000903c3800903f380f80220010902e3800903338009035380f802e00008033000080350010902e38009033380090353800903a3800803c0000903d3800803f000f802e000080330000803500109022380090383800803a0000903c3800803d000f80220010902e3800903338009035380f802e00008033000080350010902e380090333800903538008038000090393800803c00009041380f802e000080330000803500109022380080390000903a3800903d38008041000f80220010902e3800903138009035380f802e0000803100008035000f902e38009031380090353810802e0000803100008035000f90253820902e3800903138009035380f802e00008031000080350010902e3800903138009035380f802e00008031000080350010802500009027380090383800803a0000903c3800803d001f902e3800903338009036380f802e00008033000080360010902e3800903338009036380f802e00008033000080360010902438008027000080380000803c0000903f381f9030380090333800903638009039380f803000008033000080360000803900109030380090333800903638009039380f80300000803300008036000080390010802400009029381f9030380090353800903a3800903d3800803f000f8030000080350000803a000f903038009035380090393800903c3800803d001080300000803500008039000f9022380080290000903a3800803c0000903d3820902e3800903138009035380f802e00008031000080350010902e3800903138009035380090383800803a0000803d00009041380f802e0000803100008035001080220000902738009036380080380000903a38008041001f902e38009033380f802e000080330010902e38009033380f802e000080330010902438008027001f90303800903338009036380090393800803a000f80300000803300008036001090243800903038009033380090363800903838008039000f8030000080330000803600108024000090293800803800009039381f903038009035380f803000008035001090293800903038009035380090383800803900009041380f80300000803500008038001080290000902e3800903f38008041001f9031380090353800903a380f8031000080350000803a00109031380090353800903a3800903d3800803f000f8031000080350000803a001090293800802e0000903b3800803d001f90313800903538009038380f80310000803500008038000f90313800903538009038381080310000803500008038000f80290000902a3800803b0000903f38209031380090363800903a3800903d3800803f000f8031000080360000803a00109031380090363800903a3800803d000f803100008036001090273800802a0000803a00009042381f90333800903a3800903c380f80330000803a0000803c00109033380090363800903a38008042000f80330000803600108027000090293800803a0000903d381f9031380090353800903a380f8031000080350000803a00109031380090353800903a380f8031000080350000803a001080290000902a3800903c3800803d001f9031380090343800903a380f8031000080340000803a00109031380090343800903a380f8031000080340000803a000f90293800802a0000803c0000903d3820902e38009031380090353800903a3800803d00009041380f802e00008031000080350000803a0010902e38009031380090353800903a3800804100009046380f802e00008031000080350000803a001090293800904338008046001f902e38009031380090353800903a3800804300009045380f802e00008031000080350000803a0010902e3800903138009035380090393800804500009046380f802e000080310000803500008039001090293800804600009048381f902e3800903038009034380090373800903c3800904338008048000f802e0000ff2f00
