%YAML 1.1
%TAG !u! tag:unity3d.com,2011:
--- !u!114 &11400000
MonoBehaviour:
  m_ObjectHideFlags: 0
  m_CorrespondingSourceObject: {fileID: 0}
  m_PrefabInstance: {fileID: 0}
  m_PrefabAsset: {fileID: 0}
  m_GameObject: {fileID: 0}
  m_Enabled: 1
  m_EditorHideFlags: 0
  m_Script: {fileID: 11500000, guid: f8ecede2929b6024cb347ef9dc77f85d, type: 3}
  m_Name: F-chopin-Half-Empty-1-M
  m_EditorClassIdentifier: 
  midiFileBytes: 4d546864000000060001000200604d54726b0000000b00ff51030ea60000ff2f004d54726b000007af00c0000090241800903028823090201800902c1821802400008030008237901d18009029182280200000802c00850f801d00008029000090301800903c1800904818009050180090571800905c183f80300000803c0000804800008050000080570000805c00860b90301800903c180090441800904b18009050183f80300000803c000080440000804b0000805000850b90301800903c1800904818009050180090571800905c183f80300000803c0000804800008050000080570000805c00850b90301800903c1800904a18009050180090591800905c1884579024181f906018009063180e905b180d9059180e905018009056180e904818009057180d904f180e904d180e90441800904a180d903c1800904b180e9043180d9041180e90381800903e180e90301800903f180d903718018024000080380000803c0000803e0000803f000080410000804300008044000080480000804a0000804b0000804d0000804f000080500000805600008057000080590000805b0000805c0000806000008063000d903518008037000e902c180080300000903218008035000d90241800802c0000803200009033180e902b18008033000d90291800802b000e9020180080240000902618008029000e9018180080200000802600009027180d901f1800902c18018027000d80180000901d1800902b1800802c000e801f000090221800802b00009030180d90181800801d0000902c18008030000e901f180080220000802c00009030180e80180000901d1800902e18008030000d801f000090221800902c1801802e000d90181800801d0000902b1800802c000e901f180080220000802b00009030180d80180000901d1800902e18008030000e801f000090221800902c1800802e000e90181800801d0000902b1800802c000d901f180080220000902f1801802b000d80180000901d1800902c1800802f000d801f000090221800802c00009030180e90181800801d0000902e18018030000d901f180080220000802e00009033180d80180000901d1800903218018033000d801f000090221800902c18008032000e90181800801d0000902b1800802c000d901f1800902f1801801f0000802b000d80180000901d1800902c1800802f00018022000d90221800802c00009030180d90181800801d0000902e18018030000d901f180080220000802e00009033180e80180000901d1800903218008033000d90222000902c2001801d00008032000d90182000902b180d901f180090231800902f180e901d180090201800902c200d902418009030200e90231800902f180e80180000901d1800801f00008020000080220000802300008024000090261800802b0000802c0000802f0000803000009032200d9024180080260000903020018032000d901d18009020200080240000902c2001802400008030000d90181800801d000080200000902b2000802c000d901f180090232001801f0000802b0000902f200d80180000901d18009020200080230000902c2000802f0001801f000d801d00008020000090242000802c00009030280d9023180080240000902f2001802400008030000d80230000902618009032200180230000802f000d9024180080260000903028008032000d902018019020200080240000902c28008030000d901818008020000080230000902b2000802c0000802f000e901f180090232800802b0000902f280d80180000801f000090201801901d280080230000902c3000802f000d801d00008020000090242800802c00009030300e9023180080240000902f30008030000d902718009033300180230000802f000d9026180080270000903238008033000e8026000090291800803200009035380d802600009027200090333801802900008035000d80270000902b2800803300009037300d802700018027000090292800802b0000903540008037000d80290000902e280080350000903a400e902c280090384000803a0001802e000f90302000903c380e802c0000902f2800903b400180300000803c000f90332800903f380f90322000903e380280330000803f000f904130018032000090352800803e001090332800903f400f802f000080330000803500009037280080380000803b0000803f0000804100009043380f90353001803700009041400080430010903a300080410000904638108035000090382000803a00009044400080460010903c20009048381080380000903b1800803c00009047400080480010903f1800904b4010903e1801803b0000803f0000904a4000804b001090412000904d4001803e0000804a000f903f2000904b400180410000804d000f90432001803f00008044000080470000804b0000904f40119041200080430000904d4001804f00119046200180410000804d00009052401280410000904430008046000090504001805200129048300190481800905438138044000090473000804800009053380180540012904b1801804700008053000090573813904a2000804b000090563816804a0000804b0000904d2000805600008057000090593815904b280090574001804d000080590016804b0000804d0000904f28008050000080570000905b3816904d2801804f000090594000805b0016804d00009052380080590000905e40810590503000905c4018904d280090593815904a18009056381590472000ff2f00
