%YAML 1.1
%TAG !u! tag:unity3d.com,2011:
--- !u!114 &11400000
MonoBehaviour:
  m_ObjectHideFlags: 0
  m_CorrespondingSourceObject: {fileID: 0}
  m_PrefabInstance: {fileID: 0}
  m_PrefabAsset: {fileID: 0}
  m_GameObject: {fileID: 0}
  m_Enabled: 1
  m_EditorHideFlags: 0
  m_Script: {fileID: 11500000, guid: f8ecede2929b6024cb347ef9dc77f85d, type: 3}
  m_Name: F-chopin-Preasure-1-M
  m_EditorClassIdentifier: 
  midiFileBytes: 4d546864000000060001000200604d54726b0000000b00ff51030ea60000ff2f004d54726b00000a1f00c0000090284015902e4008902f380890374808902f3808902e3807902d3809902f4006902e4008902d4807902e4809902f4007902e4809902d4006902e400980280000802d0000802e0000902f480080370006802f0003902d4006902e4009902f4808902d500a902e4807902f4009902d4807902e4808902f4808902d5008902e5008902f4809902d4009902e4808902f4807802d0000802e0000802f00029028400980280000902f40089030480a902f480690305007902f50089030500c902f48019028500780280000902f500080300006802f00019030480680300002902f580290285009902e5001802f000380280004802e0003902f400b90284800802f00009030480680280002902f580080300005802f0003903048048030000590284800902f580b902e500a902f500a902858009030580980280002902f5003802e000480300003802f0002902d5008802d000190285800902f600480280005903058099033600a903468099036600a9037600490286000802f000080300000803300008034000080360000803700059039600680390006903a6008903b5809903d6009903b600a903a580480280000803a0000803b0000803d0006903b580190285002901c40079037600a903f58099040680a9042680a9043580290285802901c500180370000803b0000803f000080400000804200008043000390456007804500049046600990476009904960099047680a9046600b90476807801c0000802800009043600080460000804900018047000680430003904b6006804b0002904c580190285801902f500380280000802f0000804c0002904e6007804e0003904f6008903460009051680190286000804f00038028000080340001805100069052600890536003805200028053000490556001903b6001902f500280550006905360058053000390526005805200059053580380530004904f6805804f0003802f0001803b000290576004805700029028580490586002902f5001802f00018028000280580002905a6007805a0002905b600a805b0000905d6002903b6001902f5809905b6003805d0006905a6003805b000590586002805a0006905a680180580008905b600390285804902f4804905f600490305806905d600a90305000905b6009905d600480280000902f580080300000803b0000805a0000805b0000805f0003802f0001905b6003805d0005905a68019028600090306001805b0005802800028030000090586000805a0005902f5803802f0000905a680380580002805a0003905b60019028600090306009905a6002805b0004805a00029058580380580005905a600b90586005805a000290566003805800038056000290286000903060019054600b8054000090566006905760018056000480570003905860089056680980560001905460008058000280280002803000008054000390285800902f68019056680b90545800805600048054000190536004805300059054600b90535805805400019051600380530001802f000180510003902f5801904f6003902340078028000090515803804f00029052600280510003805200029053600b8023000090515803802f000080530003904f600280510002804f0005902f6000904e580190236009904f5802804e0003804f000390516008904f680180510004904e600580230000804f0003804e0001802f0002904c5804804c0003902f580190236800904e6801802f000180230006804e0001904c5005804c0001904b5805804b000390286001901c5801904c5803801c000080280002804c0005904b5804804b0004904c5009804c0001902f600290235000904e580480230000802f0003804e0003904f5007804f0003905150068051000290535002903468019028580580340001802800028053000090545807805400019053580680530005902f5801902360009052500380230000802f00079053580280520008905158018053000580510001904f600290376802902b5804802b000280370000804f000090516007904f580380510004904d5800804f0004804d0003903b6801904c5801902f6002802f0003804c0005904d500790515806904f68029043680190376800803b0000804d000080510004804f0001904d60028043000780370001904c6002804d0004903b6000804c0001904a6003803b00029041700190356803804a00029049600980490002904c6008904a6809904860079047600080480000804a0000804c000480410005804700059034680090406800904868038035000790476801804800079048600180470008904a680890486808904f600c9028700090346000804000009047600080480000804a0004804f00069048680480470007904a580480480003904860099051680b9047680490287001901c680690486809904a6005803400008047000080480000804a0000805100059048500a905268079047580a9028700090486001901c680790476007904868008052000880470002904a680480480002804a00049048680790516808805100079047700190287801901c600080480009801c0006804700029053600a904f6008904e6809904f58079047580690437001903b58009040680a904f600a904c5807904b680e904c60069043680990375800903b50009040680e802800008043000080470000804b0000904c6000804e0000804f00008053000790476003804c000790466009904760089040680280370000803b00008046000080470002804000029034580090375000903b6007803b00059047500890436802804700079042681090436007903b50068034000080370000803b00008042000080430014902f4001902b38009034400a9040500b903b4809903a500b903b480e9034500b902f500190284000902b400680340000803a0000803b000080400007903b480b90375800803b00159036500280370019903758038036002c902f400090344801902b480190234000802800008037007980230000802b0000802f00008034007a902f3806902330419024400180230000802f000090304804803000028024000190274800903350048027000380330002902848009034500580340001902a50029036580280280005802a000180360001902b500190376003802b0003902d58019039600180370008802d0000902f6000903b680180390004802f0000803b000390306001903c68058030000390336800803c0001903f68048033000390347001803f000090406804803400058040001890346000904060019028600280340002802800058040002b90346800903b680090437000904c7001902f680090407007802f000080340000803b00008040000080430000804c00429034580190285800902f5000903b600090436000904768048028000180340002802f0000803b0000804300008047003f90285800903460009037600090406001902f50009043600480280000803400028037000080400002802f00018043003490235800902f5800903b58019042600090476002802f0001803b0001802300008042000080470023902f5803802f000690236000902f7000ff2f00
