%YAML 1.1
%TAG !u! tag:unity3d.com,2011:
--- !u!114 &11400000
MonoBehaviour:
  m_ObjectHideFlags: 0
  m_CorrespondingSourceObject: {fileID: 0}
  m_PrefabInstance: {fileID: 0}
  m_PrefabAsset: {fileID: 0}
  m_GameObject: {fileID: 0}
  m_Enabled: 1
  m_EditorHideFlags: 0
  m_Script: {fileID: 11500000, guid: f8ecede2929b6024cb347ef9dc77f85d, type: 3}
  m_Name: F-chopin-Divergent-1-M
  m_EditorClassIdentifier: 
  midiFileBytes: 4d546864000000060001000200604d54726b0000000b00ff51030ea60000ff2f004d54726b00001b1b00c000009026280190323002802600018032001d902b30009037300d9043280190471800904a2001903e2005903b20019037280d904a2801903e3000904320009047200890362800903c2801802b000080370000803b0000903e3000804300009045380080470000804a0005803e00008045000180360000803c0006904a2801903e2800904518009048280590362800903c2800903e40008045000080480000804a0005803c0000803e0009903e300090482000904a2801904520088036000090373000903e38008045000080480000804a0001903b300c904a2001903e2800904718019043180280370000803b0000803e000080470000804a0002903b3000903e38008043000190373001803e0001803b000a903e38009043280090472800904a200d80370000903c3000903e40008043000080470000804a000190362802803c000f90481800904a1801903e18019045180590362000903c2800903e40139045200090482001903e2001904a1805902b40008036000090375000803c0000803e00008045000080480000804a001090472800904f280190432001904a1803802b0000803700008043000080470000804a0000804f000390374800903e480280370001803e000790472800904a280190432000904f2806904048009043300080470000804a0000804f000190483001903740018040000d904f280190482000904c180190431805904048019037400280370000804000008043000080480000804c0000804f000a904c2000904f2801904328009048300a90375000903e5801902b50008043000080480000804c0000804f000b90472801904a2000904f380190432005802b000080370000903e50008043000080470000804a0000804f000190375002803e000180370008904a28009053380190472000904f1805904350019037400080470000804a0000804f000080530002803700008043000990543001904a300190482806903e48019032400580320000803e000080480000804a000380540004904a30009053380190473800904f18028053000180470000804a0000804f00029037400090434001904a28009053380190472801803700018043001190471800904a2000904f2801903e30008053000190322801804a000180470001804f000b80320000803e000090471800904a1800905118058051000180470000804a00019043380190373800904f380190472000904a2801804300139032400090471800904a2001902638009043200580320000803700008043000080470000804a0000804f000280260005904a18019047180190432801804a0001804700018043000190374801902b480a904f38018037000090473000904a3001802b000690374000903e480480370001803e000280470000804a0000804f0006904a2800904f30019043300090471802804a0000804f00018043000080470004903c4800904040009043380090483800904c400e90482000904c3000904f300190432802803c0000804000008043000080480000804c0000804f0002903c40019040380190434000904c3800904f40038040000180430001804c0001803c0000804f00089043280090483800904c3800904f380b90375801902b480b90472000904a3000904f400190433806802b000090375000903e5800804300008047000080480000804a0000804c0000804f000380370001803e000a90473000904a300090534001904f2805904350019037400080470000804a0000804f000080530003803700008043000b90483000904c3000904f300090543808904048019034400280480000804c0000804f0000805400018034000180400007904c3800904f3000905338019047380380470000804c0000804f000080530003903b400090474801904c400190473000904c2800904f3800905338149043380090473000904c380190374000904f3801902b3800803b00008047000080530002804f000280470000804c00018043000b802b00008037000090473800904c3800904f380190433001804c0000804f00018047000180430002902f4000903b400090473000904c3800904f500190433001802f001090472800904c280190403000904338019034480190284800803b0000804f00018043000180430000804c00018047000180340000804000018028000b904c300190473801904040009043280590234800903b5000804000008043000080470000804c0001902f400190472800904c38019040300090433003802f000f9047280180230000803b00009040280090433800804c0001902b4000903748018040000080430001802b0000803700008047000c904728019040380090433001903b1804803b0000804000008043000080470004901c4001902840009040300090473001903b380090433801801c0000803b000180280000804000008043001190431801903b180090402007803b0000804000008043000080470012902d1808903918139040180090452001903c1809802d000080390000803c0000804000009044280080450008804400019045300580450007902d18019039200d90483001903c2000904020009045180580390001803c00008040000180450001802d0001904728018048000a904520009048300b902d28009039300180450000804700008048000c90453000904c300190412801903c300580410002803c0001904b3000804c000180390001802d000080450006904c3001904528019041200180450000804b0001804c000180410006902d28009039380d9045280090482800904d380190412008904c3001804d000180390000804100008045000080480001802d00089041300090453800904d30019048180690393001902d2802804100008045000080480000804c0000804d000b90453000904c3000905138019048200580480001804c000190503800805100018039000180450001802d00079045380190482800904c3801905128018045000080480000804c0000805000018051000690393801902d200b90584001904c30019048300090513001905418059057380b9058380190512801904c180190541801802d00008039000080480000805700008058000180540001804c00008051000690393001902d200b90452800904d3801903c300090412804804d00028041000080450001904c300380390001803c0001802d000590453800904d4001904118038041000080450000804c0000804d0006902d28009039300e9041300090453000904d300190481809904c3001803900008041000080450000804d0001802d0001804800079045280090483000904d300e90392001902d18139045280a90443001802d0000803900008045000080480000804c0000804d000880440001904530098045000290392001902d180f904c2801904020019048180190451806904b3001802d000080390000804000008045000080480000804c0007904028019048280190452001904c3014902d28009039300d904d3001904520019041300190481804802d00008039000080400000804100008045000080480000804b0000904c3000804d000a90453000904d300190412801904818018045000790393801902d300c904f3801904338009045280190482805802d0000803900008041000080450000804c0000804d0000804f000180430000904e3801804800079048380190433800904f3814902d3800903940089050380190483000904d300190443808802d000080390000804300008044000080480000804d0000804e0000804f0002904f380180500007905038019044400190482001904d200890395001902d400b802d000080390000804400009045300080480000804d0000804f0000805000019051380190483000904d380980450000905040099045480090483800904d38019051481390394801902d400790514001904d40019048400190453002802d00008039000080500007905038058045000080480000804d0000805100069045480090483800904d400190514819902d48009039480e90484800904d400090545001802d00008039000080450000805000009051501c90475000905350189045500090515018804500009047500080480000804d000080510000905358008054000c8047000e9054500190484801902940079030380490353809903938009045400090514805903c300a9041300690484800905458019045380b9041300b904d500090594801903c38069039380790353006905448019048400190303805902d380890293805904c5000905850019024400180290000802d0000803000008035000080390000803c0000804100008045000080480000804d0000805100008053000080540000805900079029180180240002902d3801802900039030400190564801904a400490353809903940069048400090544801903c38099039380790352802905350019047500290303807902d28079029380490454800905148039024400890293803902d380390434800904f400680290000903038008035000080390000803c0000804500008047000080480000804a0000804c0000805100008053000080540000805600008058000180240002802d00018043000190354001804f0005803000029045480190393800905148018035000990353005903028019047480090534005902d30079029380590244001905450019048480490294006902d28049030380190564001904a400590354008903930028024000080290000802d00008030000080350000804500008047000080480000804a00008051000080530000805400008056000390585801904c40019030380280390003903540079039380190565801904a4005903c30069041300890545001904538009048480790412805903c3007903938019047400090535006903538039030180990304001905150019045400690292804902d38049030380190434800904f500590353805902d400580290000803000008035000080390000803c00008041000080430000804500008047000080480000804a0000804c0000804f0000805100008053000080540000805600008058000290294001802d00029045580190515805902438008029000890293803902d380190474800905448019053480490303008903530059039300090514801904548069035300590303008902d4002904740009053400590303005903538089039380190484000905450069035380590304009904a480090565001902d400b8024000080290000802d0000803000008035000080390000804500008047000080480000804a000080510000805300008054000f901f4001904c480090584809902418008056000590283804801f000580240001902b380190544801904840059030300790343805904c400090584802903730089034380690303004904f5000905b5004902b30059028280590243805904c480090585002901f38079024280390283805904a500090565001902b3807903038089034400590484001905448029037380690343805903030059047500090535005902b28059028300c901f18009051480190455001902438099028380590434001904f4004902b3806801f00008024000080280000802b000090303800803400008037000080430000804500008047000080480000804a0000804c00008051000080530000805400008056000080580000805b000a90343801803000009045500090515001804f000690303007902b300490535001904748039028400890243003901f400290485000905448039024280590282807904a400090564801902b38079030400890344003801f00008024000080280000802b000080300000804500008047000080480000804a000080510000805300008054000080560003904c480090585001903720028034000290303007902b3804904a4000905650039028300a90243803901f400190484000905450059024180490283007902b3002904738009053400590303806903430059037200090454801801f00008024000080280000802b000080300000803400008047000080480000804a0000804c0000905140008053000080540000805600008058000290303007902b30059028380490434000904f38049024380590283806902b4004904548009051480580280000903040008037000080430000804f000180240003802b00019034300790373000904748019053480590302807902b300590484000905450029028300890242807901f3001904a48009056500690242002902730089028300190585001904c380290293004902b1806902d4004905a5801904e4802801f000080240000802700008028000080290000802b0000903040008034000080370000804500008047000080480000804a0000804c00008051000080530000805400008056000080580005802d00019033200790344802904f5000905b50059036380590393805903c400190505800905c5806903f380f901f40028030000080330000803400008036000080390000803c0000803f0000804e0000804f00008050000090515800805a0000805b0000805c0000905d580c801f0000902440079027400380240000905b4801805d0001805d000180510001902b400180270007902d4804904e5800905a5805802b000090303800805b0003802d0000804e0003903338058030000290374000905b5801904f580590393808903c300790505000905c5801903f3809903c380390394006905d50019051480190373808903c3006903f4004905f58019053500890434801803300008037000080390000803c0000803f0000804e0000804f00008050000080510000805a0000805b0000805c0000805d0007904848018043000c904b480190604801905448179054480780480000804b000080530000805f00008060001680540001904848179054480180480013904830068054000b80480004903c201790481803803c000f903c18018048000d803c000590301811903c18018030000b803c00059030181090261800803000019032180d903e1805903b1801903718058026000080320000803e0000904a1802803b00049032180180370005804a0005903e1807904a1801903c1801903918018032000090361800803e000d90321809904a20028036000080390000903b1800803c0001903e18019037180180320004803b00039032200c903b180190371801904a2001903e18059032200580370000803b0000803e000180320004804a000190392000903c180a904a200190322001903e180b90391801903c180890321805903e1801902b180080390000803c0000804a00058032000490372801904a280c9043180090471801903e1808904a200290371804802b000090341800803e0000804300008047000280370001903e1807904318019048180190372005904a200a9037180190341800803e00008043000080480000804a0008903e180690371801904a2001904318009047180b9037180190341804903e1806904a2801803400008037000080430000804700009048180290391802803e000890341805903e18029039180c90431800904718019034180b904a2801903718098034000080390000903e1800804300008047000080480001804a00018037000190321804903b1803904a2001904320019047201090321808903e180a904a200c9043180290471801903e1808904a2004903918018032000090361800803b0000803e00008043000080470007903e180980360000803900009043180090481800804a00029039180190362001803e0005904a200b903b1800903e18018036000090371800803900008043000080480000804a0009904a2001904318029037180090471808903b180190371802903e200680370000803b00008043000080470000804a000290482000904a2801903918019036180a903e2005903c180190391808903218008036000080390000803c0000903e280080480000804a0009903b180190371800904a2001803200009043200090472001803e00028047000180430007903e2805903b180190372005904a200180370000803b000090432000904720089036200090391807803e00008043000080470000804a0001903e28028039000180360004904a20019042180190451802903618019039180c8036000080390000903b2800803e00008042000080450000804a00019032280090371808803b0000903e2000904a2801904320079037180190322001903b2809904a38018032000080370000803b0000803e0000904328009047280590321800903b28019037180b903e280590371802903b200b8032000080370000803b0000803e00008043000080470000904a30019047200190432805903b18019037180c903e280290371801903b20079047200190432800904a300590372001903b180e90322005903e280c904a3801904320009047200d903e280190372800903b200a9043200190472000904a280a903b2800903e28019039280a904a300290422001803200008037000080390000803b0000803e000080430000904518008047000290392000903c180f90392000903c1800903e280c90453001904a30019032280080390000803c0000803e00009042280780320004903e280590393002903c180a90453000904a38019042280590393000903c2001903e180f903e280190392801903c280a80390000803c0000803e00008042000080450000904a4001904228009045280b90393000903c2000903e200a903e280190322006903918039042180190453000904a280e903e2001903c18029039180690451800904a2801904218078032000090391800803c0000903e20008042000080450000804a0004903b180590432000904a20019047180580390000803e000e90372001903e200480370000803b0000803e00008043000080470000804a000990431800904a200190471806903b2000903e2000804700019039180d904228019045280390392801903c180280390000803b0000803c0000803e0000804200008043000080450000804a0006904a2801904720019043200b903b2001903e200290392002803e000180390007903e200190391800903b1807904a20019043200090471807903e200190391800903b180b90472000904a280190432007903e2801903b180190392012904a300180390000803b0000803e000090432000804700019047180b903b1801903e18019039180b904a2003904718019043180990391800903e1801903b180d904a20019047180190431811903b1800903e20019039181a904a18059042180180390000803b0000803e0000804300009045180080470015903e180190391800903c1818904a18099032180b90391801903c18019042200190451809904a200590391800903c180390321807904a280790391801903c1813904a280a90321800903c1810904a28129037180080390000803c0000903e1800804200008045000990472000804a000190431809803e0001903b1810903e180190431800904a180f903b180f90371800904a180180320000803b0000803e0000904318009047180d903e180c9042180090481801904c18019039180180370000ff2f00
