%YAML 1.1
%TAG !u! tag:unity3d.com,2011:
--- !u!114 &11400000
MonoBehaviour:
  m_ObjectHideFlags: 0
  m_CorrespondingSourceObject: {fileID: 0}
  m_PrefabInstance: {fileID: 0}
  m_PrefabAsset: {fileID: 0}
  m_GameObject: {fileID: 0}
  m_Enabled: 1
  m_EditorHideFlags: 0
  m_Script: {fileID: 11500000, guid: f8ecede2929b6024cb347ef9dc77f85d, type: 3}
  m_Name: F-chopin-Stops-1-M
  m_EditorClassIdentifier: 
  midiFileBytes: 4d546864000000060001000200604d54726b0000000b00ff51030ea60000ff2f004d54726b0000157b00c000009024380090303000903c38831390332802903f288200802400008030000080330000803c0000803f00846090443037904330148044001c9041380c8043001c9043380b804100199044380d8043001c903f380f804400239048400c803f00439048401890484881559047300d804800469046380f80470042904430199046380d804400769043381e903f40188043000080460081349041381a803f0020904338128041000a9044400980430019903f4006804400169041480c803f001d904338088041008100903f3827903c2800803f00008043008232903e200b803c0053803e0000903f2816903e3005803f008212803e0000903f309751803f00814290442803903f2003903c183a9038280c803c00309031200090412802903d200a803f00078044002d903520008038003a80310000803d000980350008804100810490443002903c2002903f20409038280b803c00359041280190312001903d2006803f00078044002c9035200680380048803d00048041000280350005803100811c90444002903f3002903c284190382803904b5009803c0000803f003590312800803800009041280090443000804b0004904b48389035280090494002903d2806804b000a803100058044001b803d000380350000804100058049008106903f300090444803903c303f90383000904b500b803c003690352800903f28009044400980380000904b502c8035000190495002903d2800804b000190342801803f0030804400078049000380340007803d00810290434002903a3801903f2803903d303890333800904b583a90444001903c3001803a0000803d0000903f300080430000804b0001904b482c803300029038380190485003804b00358044000080480005803c0001803f00018038008102903f380090465002903a3802903d403990333801904d600480460009803a0007803f002990464800904d6001903c3000803d0000903f3831904b5801903838018033000090444000804d000380460031803c0008803f000080440000804b0009803800810090465001903a4000903f4802903d403990334000904d583690466002903c4801803a0000803d0000903f5000804d00038033002e90384000904b680c804600288038000890445804804b0034803f0002803c0000904b680b8044003a903f500090445001903c400190334001804b00810390435801903f4801903a4001803c0000903d4800804400359046680190335807803d0004803a0000803f000680430027804600078033000190465801903c4000903f480190384844904b5801903358048046000d803800810c803f0002803c000180330000804b008301902c280090382800903c3000903f3000904438009048503e902b3000903730348038000e8044000290293000802b00009035300080370000803c0000903d3000803f000090443000804800009049480590412034902b280290372802904340368044000380290000802b00008035000080370000803d0000804100008043000080490003902c280090485001903c4002903f300190443802903820389033280390272802802c000080380000904338028048000280440003803f003780270000902928008033000090352800903c280090413000804300009046403b9026280090323000904448038046000180350000803c0000804100038029002e80440002903a2000903f2800904438039033280180260000902720008032001e904340018044001d904140038027000280430002803a000680330007803f00008041000c9043401c804300029044481c904648088044001a80460003903f2800904340009048480290373001902b284090293802802b000090353000803700009044483c8035000880480004803f000180430002902b38018029000090373800903c3000903f380090433800804400009048383c80430005902c380090383002802b0000904140048037000880480008803f0001803c002c802c00008038000890485001903f380090434801902b380090373800903c38008041003d803c000080480004803f0002802b00008043000c803700810690485001903c3000903f380190243000904338019030303c80240000803c0000803f000080480002803000058043000690484001902b300190373000903f3001903a28019046383b90444002802b0000902c28008037000090383000803a00008046000080480001903c303f802c000080380000803c0000803f000080440005903f2801903330009046480190273001903a28019043283d802700008033000b90223000902e3001903e380080430001803f0000904130088046003b80220000802e0000803a0000803e0000804100079027280090332800903f3001903a300090433800904640438027000080330003803a000990223000902e300280430001903e300190412801803f003f80220000803e000580460001802e00069027280090332800903f3001903a280090464001904338048041004d8027000880330000803a0000803f00018043000280460047902c2801903f30009048480190383000903c303c9037300680380033802c000080370000803c0000803f000390312800903d280080480001904128009049380190442802903520379037280290433801804400018035003680370000803d000080410000804300008049000380310001902c300090382800903c3000903f280090443800904840409033200190433001804400018038003b903c28009046380190352801803f000090413000804300008048000180330037903228019044383c802c00008032000080350000803c0000804100008044000080460004902b280090332800903a2800903f28009044381c904338018044001d9041400580430001803a0003902928029035200b802b00069043480c803f0000804100138035000180290001902b2800903c28008043000090443801903728028033001b903f4022802b000080370000803c0000803f000080440002903c2800903f3000904438019035300190293023903e302380350000803c0000803e0000803f00079027300090333000903c300280290003903f202790434001903a300680440007803f000f803a000f903f3001903a3001904338068027003280330000803c000690223000902e3001903e38009041300380430001803f004380220003802e0000803a0000803e000080410002903f3801903a30019043380190333002902728448033000680270007803a0002803f00028043004190484801902c300090383000903c3000903f38009044403e903730098038002e80440001802c0003804800018037000190313000803c0000803f000090494801903d380090413000904430039035283a9037300190433838803100008035000080370000803d0000804100008043000080440000804900049044400090485001902c300190382800903f3801903c303f90332801904338038044003b90352800903c2800803f00009041300080430000904648008048000280330000803800399032280590443833802c00008032000080350000803c000080410000804400008046000590332801902b280090443801903a2800903f281e9043381f904140048044000890352806803a000c9043481e803f0000804100008043000590444801802b0000902c30008033000390372002903c280a80350018903f4829903c3000903f38009044400190292801802c0000903530008037002c903e383280350000803c0000903e3000803f0002903c280290273000903328028029002d8044000190433802903a3004803e002a90434001903a3000903f38068027003580330000803c000d903e3800803f000190222801902e2801904128018043004580220000802e0000803a0000803e000080410007903f30019043380190333000903a300290272854803300068027000880430001803f0001803a0041903f2801902c280090332800903c28009044303b803f000190463803803c00008044000b903c28028033000190382801903f300090484002802c000480380001803c000080460002803f00038048002a902c30009038300090464001903c2801903f3005803c0000803f000180380001802c00058046002590484001902c3000903c280190382800903f3006803c0000803f0001802c00048038000180480025904640029033280190272801903d2800903f3002903a1803803a0001803d0000803f0003802700018033000180460024902c280090443803903f300290381800903c1803803c0001803f000180380001802c0003804400289027300090333800903a380090464001903f380580330000803a000180270001803f00018046002e902c380190333800903f400090484801903c3804803c000280330000803f0003802c00008048002e90273000903a300190333002903f3000904338009046380480270000803a0001803f00028033000180430001804600289046400190332800903f380190273001903a200580330000803a0001803f0002802700018046002990332800903f300190483801903c280090443801902c2804803c000180330000803f0002802c0001804400018048002a90372800903f380090464000904b480490332802803f0001804600028033000180370002804b002b904b40019044300190383000903c2800903f28009048400190332804803f0002803c000480330000803800008044000080480000804b0030902c28009033280090464001903a2800903f3001903d3005803a0000803d0002803f0003802c00008033000280460026902c3001903f30009044400190383000903c180190333004803c000380380000803f0003802c00008033000480440027904640019027280090332800903f3801903a280090433807803a000280330000803f000480270000804300008046002990484001902c2800903c3000903f38009044300190382809802c000080380000803c0000803f00008044000680480026904b40029027280090332800903f30009043380090464005803f000180430001803300018027000280460002804b002b9044380190484000904b300190383001902c2802804400048038000080480001802c0000804b002b90332800903f3000904640029043300190272802803f000180430001803300018027000380460028903c300190443001902c280090382802903f280380380000803c0001803f0001802c00018044002e90272800903f200190332001903a28009043300090463804803f0000804600018027000080330000803a000280430029902c200190382003903c2003903f200280380001803c0002802c0000803f002d902c280090382002903c2000903f200090443006802c000080380000803c0000803f000080440038902c280090332800903f30009044300090483807803f000180440002802c0000803300038048002890382800903c3001903328009044380090484001903f3005803c0001803f00018044000180330000803800048048002790333000903a38009046400190272800903f380090433804803a000280270000803f0002804300018033000480460024902c2000903328009044300090483801903c2006803c0001804800018033000080440003802c002590373001903f400090463800904b400190332806803f0002804600028033000080370001804b00269038280190332800903c38009044400290484000904b3804803c0003804400018048000180380000804b00018033002690333801903a3001902730009043380090464000904b4005803a000080430002802700008033000280460001804b002b903c38009044400090483800904b3001902c300090383005803c0001803800018044000180480000804b0001802c002890373000903f30009049400190464000904b380290332003803f00008046000280490001804b00028033000080370026903c2801903f3000904840019038280090443801904b380190332805803f0001804800018033000080380000803c000080440000804b002690464001903f38019033300090434000904b380190272805803f0001802700018033000180430000804b000280460023903c3001903f3800904b400190382800904440009048380190332802803f0002804800028033000080380000803c000080440000804b0026903338019027300090464000904b4001903f380090434005803f000180330001804300008046000180270000804b002b903c30019038300190333000903f40009048480190444000904b400580330000803f0001803c0001803800008044000080480001804b002690333800903f3800904b4001902738009043400090464807803f000380270000803300018043000280460002804b001e902c3000903c380090444000904840029038280480480002802c0001803c0001804400038038001e90374000903f4800904348009046480190333802903a3805803a0000803f00028033000180370000804300028046002190304000903f400090434801903c48009048480190373808803c0002803f0002803700018030000080430000804800219041480190354800903c48009044480090484801902c4000903840078038000180350000803c00028041000080440001802c000280480020902b400090435000904b50019033480090374800903f5000904650098037000180330001803f000080430002802b000180460000804b002090294800903550009044500090484800904b4800905058019030480a802900008044000180480001804b000080500002803500018030001f90224800902e4000904150009044500090464800904d500190293800904a500980220000802e000280290000804100008044000080460002804a0000804d0025904b48019027400090334800903f48009043480090464001902e480b803f000280430001802700018033000080460003802e0000804b003090273001903f3801903330009043400090463800904b4001902e3004803f00008043000280270000802e000080460000804b00018033003190272800902e300090333000903f38009043400090464000904b3807803f00028043000180460001804b000180330002802e000580270027902730019033300090434001902e3000903f380090464000904b4007803f0002804300018027000080460000804b0001802e000080330031902728019033300090434001902e3000903f380090464000904b3807803f0001804300018027000080460000804b000180330002802e002b90272800902e300290333000903f38009043400090464000904b3808803f000180270000804300018033000080460000804b0002802e002b903f380190273000902e300090433000904b38019033300090463807803f0000804300028027000080460000804b0001802e00018033002c903f3800904b380190273000902e3800903330009043380090463806803f00008043000380270000802e000080460001804b000380330027902730009033280090433801903f380090463800904b3001902e280280270002803300008043000080460000ff2f00
