%YAML 1.1
%TAG !u! tag:unity3d.com,2011:
--- !u!114 &11400000
MonoBehaviour:
  m_ObjectHideFlags: 0
  m_CorrespondingSourceObject: {fileID: 0}
  m_PrefabInstance: {fileID: 0}
  m_PrefabAsset: {fileID: 0}
  m_GameObject: {fileID: 0}
  m_Enabled: 1
  m_EditorHideFlags: 0
  m_Script: {fileID: 11500000, guid: f8ecede2929b6024cb347ef9dc77f85d, type: 3}
  m_Name: F-chopin-Wide-Time-1-M
  m_EditorClassIdentifier: 
  midiFileBytes: 4d546864000000060001000200604d54726b0000000b00ff51030ea60000ff2f004d54726b0000085300c00000902a38109031380c903a400a9036480c90315010903a500c9036500e90315015902a60008031000080360000803a00139031500d903a580d9036580a9031580e903a580e9036501190315022902a50019049681a90315013903a480c9036500c90315010903a580d9036500e90315817902a50008031000080360000803a0000904660008049001990315010903d580c9036600d9031580d903a58039049700d9036500b9031581b902a58008031000080360000803a0000803d00008046000080490000904b681a9033580c903b580c9036600c90335815903b5000904d681290365808904e680d90315804802a00008033000080360000803b0000804b0000804d0005804e00019050680b80310003902a48149035500f903d500b90507003903850119035500c903d600e905070029038500e9033501490506801902a5800803300008035000080380000803d000e802a00049033500d903c500d9038500c9033500f903c5010903848129033501b902a48008033000080380000803c00129052680d903348079050600e903c5004904e600d903850019050600c905268069033480690506004903c5007905260079038500090506807905260079050680790314801904e600c90506810902a4801803100008033000080380000803c0000804e00009052600180500012802a00019031480d903d480d9036500c9031500f903a480e9036480e90314818902a50008031000080360000803a0000803d001690314810903d480e903650109031500e903a4810903648009049601690314818902a50018031000080360000803a0000803d0000904968008052001e9031480e903a480e9036480b9031480e903a500c9036500c90315017902a50008031000080360000803a000090466800804900159031500e903d580b9036580b9031580e903a58019049780e9036580f90315817902a58008031000080360000803a0000803d00008046000080490000904b7010802a00029033500e903b580c9036580b90335813903b5001904d701290365808904e700f903150078033000080360000803b0000804b0000804d000090506801804e001080310001902a480f9035480f903d480d903848109035480b903d500c905068049038480e90334814902a5001803300008035000080380000803d00009050600c802a0001805000019033480c903c500f905068019038500e90335010903c480e9038501390335014902a50008033000080380000803c00008050000f802a00019033480b903c580d905070019038580c90335814903c580e90385800905070109031581690295801803100008033000080380000803c000090507007802900039031580f903d580c905270029038500e90315810903d600d9038601090315810902758018031000080380000803d0000904e6000805000008052000c802700039031580e903d580e90385000904d680c90315810903d580d904e70019038501190315018902c58008031000080380000803d0000904b6000804d0000804e000f802c00039033580f903c580c9038580890335810903c58109038501090335018902c50018033000080380000803c0000804b000090505810802c00009033500e903c580e9038580a9033580e903c5812903850009044681390335012902c5802904470018033000080380000803c00008050000f802c00019033580f903b580b9038600c90335811903b58019046680f90385813903358019049701190477001902c58038033000080380000803b0000804400008046000080490007802c00059033580d903b500b9038580b90335810903b58009046680b903858019044681190335011902c5000904d68018033000080380000803b0000804400008046000080470012802c00029032480e903a500e9035580b90325812903a6000904e700c90355802904d701090325801904d700b8032000080350000803a0000804e0007902a581090336810903a700b904b78039036600d9033601690427801902e7013902a601e9027600090427801802a0000802e00008033000080360000803a0000804b0000804d0012804200019031580f903a600c9036680b9031600e903a58029044700e9036501190315000904768028027000080360000803a00008044000e9046680180310000804700019027500b8027000190314813903a480b9036500d9031500c90446801903a480c90426001903650129031480e904b6001902748008031000080360000803a00008042000080440000804600189030480e9038480c9033500e9030481190385000904d601090335005904b600a90305006904b580380270000803000008033000080380000804d000b902548048025000b9031500c9038500c9035500e90314811904d68019038480b9035500b90315013902a5000803100008035000080380000804b0000904d60189032500c903a500e904b70039033500b90315810903a580a904e70029033580c9031581190526801902a5000803100008032000080330000803a0000804d0003804e0003802a0009905068019033580a903a6001904e700a9050700190366009904e700390336006904d7009903a5801904e6809904e78049036580d904d78019033600d904b7002902c60018033000080360000803a0000804d0000804e00008050000080520008904d7001804b000a90335800904b700a904d7801903c6006904b7007904d780190385806904b700690336001904d7007904b7004903c6804904d700790385000904b7007904d7007904b700190315806904d7005902c6002904b7006904d7803803100008033000080380000803c0000804b000590335800904b7008904d7005903c6002904b6806904d780590385003904b6804904d780590336001904b6808904d5809904b5806903c4807904a600d90384801904b600a904d6000ff2f00
