%YAML 1.1
%TAG !u! tag:unity3d.com,2011:
--- !u!114 &11400000
MonoBehaviour:
  m_ObjectHideFlags: 0
  m_CorrespondingSourceObject: {fileID: 0}
  m_PrefabInstance: {fileID: 0}
  m_PrefabAsset: {fileID: 0}
  m_GameObject: {fileID: 0}
  m_Enabled: 1
  m_EditorHideFlags: 0
  m_Script: {fileID: 11500000, guid: f8ecede2929b6024cb347ef9dc77f85d, type: 3}
  m_Name: F-chopin-Blue-Danger-1-M
  m_EditorClassIdentifier: 
  midiFileBytes: 4d546864000000060001000200604d54726b0000000b00ff51030ea60000ff2f004d54726b00000ad300c000009024280090302800903c28158024000080300000803c000190222800902e2800903a280780220000802e0000803a000190202800902c28009038283080200000802c000080380002901f2800902b280090372815801f0000802b00008037000190202800902c28009038281580200000802c00008038000190222800902e2800903a281580220000802e0000803a00019024280090302800903c282d8024000080300000803c00029025280090312800903d282e8025000080310000803d00039024280090302800903c28158024000080300000803c000190222800902e2800903a280780220000802e0000803a000190202800902c28009038283080200000802c000080380002901f2800902b280090372815801f0000802b00008037000190202800902c28009038281580200000802c00008038000190222800902e2800903a281580220000802e0000803a00019024280090302800903c282d8024000080300000803c00029025280090312800903d282d8025000080310000803d00029024300090303000903c302e8024000080300000803c000290313000903d30009049302e80310000803d00008049000290303800903c38009048382e80300000803c000080480002903d3800904938009055382e803d00008049000080550002903c4000904840009054402e803c0000804800008054000290494000905540009061402e80490000805500008061000290484000905440009060402d80480000805400008060000390494000905540009061402d80490000805500008061000290484000905440009060402d80480000805400008060000290494000905540009061402e80490000805500008061000290484000905440009060402e80480000805400008060000290493800905538009061382d80490000805500008061000290413800904d38009059382d80410000804d0000805900029044300090503000905c302e8044000080500000805c000290433000904f3000905b302d80430000804f0000805b0003903f3000904b30009057302d803f0000804b00008057000290402800904c28009058281780400000804c000080580001903c20009048200090542016803c00008048000080540001903d20009049200090552017803d00008049000080550001903a20009046200090522016803a00008046000080520001903c20009048200090542017803c00008048000080540001903820009044200090502017803800008044000080500001903a20009046200090522017803a000080460000805200019037200090432000904f20178037000080430000804f00019038200090442000905020178038000080440000805000019035200090412000904d20178035000080410000804d00019037200090432000904f20178037000080430000804f000190332000903f2000904b201780330000803f0000804b00019035200090412000904d20178035000080410000804d000190312000903d20009049201780310000803d00008049000190332000903f2000904b201780330000803f0000804b000190302000903c20009048201680300000803c00008048000190312000903d20009049201680310000803d000080490001902e2000903a200090462017802e0000803a00008046000190302000903c20009048201680300000803c000080480001902c20009038200090442017802c00008038000080440001902e2000903a200090462017802e0000803a000080460001902b20009037200090432017802b00008037000080430001902c28009038280090442817802c00008038000080440001902928009035280090412817802900008035000080410001902b28009037280090432817802b000080370000804300019027280090332800903f28178027000080330000803f00019029300090353000904130178029000080350000804100019025300090313000903d30168025000080310000803d00019027300090333000903f30168027000080330000803f00019024300090303000903c30178024000080300000803c00019025300090313000903d30168025000080310000803d000190223000902e3000903a301780220000802e0000803a00019024300090303000903c30178024000080300000803c000190203000902c30009038301780200000802c00008038000190223000902e3000903a301780220000802e0000803a0001901f3000902b300090373017801f0000802b00008037000190203000902c30009038301780200000802c000080380001901d30009029300090353017801d00008029000080350001901f3000902b300090373017801f0000802b000080370001901c40009028400090344017801c000080280000803400019029400090354000904140178029000080350000804100019026400090324000903e40178026000080320000803e00019027400090334000903f40168027000080330000803f00019024400090304000903c40168024000080300000803c00019025400090314000903d40178025000080310000803d000190224000902e4000903a401680220000802e0000803a00019024400090304000903c40178024000080300000803c000190204000902c40009038401780200000802c00008038000190224000902e4000903a401780220000802e0000803a0001901f4000902b400090374017801f0000802b00008037000190204000902c40009038401780200000802c000080380001901d40009029400090354018801d00008029000080350001901f4000902b400090374019801f0000802b000080370001901c4000902840009034401b801c00008028000080340002901d4000902940009035401c801d00008029000080350002901a4000902640009032401f801a00008026000080320002901b50009027500090335041801b0000802700008033000690204000902c40009038403080200000802c00008038000290374000903f400090494000904d4000905540009059402080370000803f000080490000804d0000805500008059000290374000903f400090494000904d4000905540009059401080370000803f000080490000804d0000805500008059000190374000903f400090494000904d4000905540009059403080370000803f000080490000804d0000805500008059000290354000903d40009041400090464000904940009052403080350000803d000080410000804600008049000080520002903a4000903d40009041400090464000904d400090554030803a0000803d00008041000080460000804d00008055000290384000903d40009041400090484000904d40009054403080380000803d00008041000080480000804d00008054000290374000903f400090494000904d40009052403080370000803f000080490000804d00008052000390353000903d3000904130009046300090493000904d301a80350000803d0000804100008046000080490000804d000790372800903f280090462800904b280c80370000803f000080460000804b000190382800903f28009041280090482800904d283080380000803f00008041000080480000804d00029031280090382800904128009044281a803100008038000080410000804400079033180090381800903c18009044180d8033000080380000803c0000804400019035180090381800903c18009044181a8035000880380000803c00008044001390331800903d1800904118009044181e803300029031180c803d000080410000804400018031000190331800903c1800903f18009044181d80330000ff2f00
