%YAML 1.1
%TAG !u! tag:unity3d.com,2011:
--- !u!114 &11400000
MonoBehaviour:
  m_ObjectHideFlags: 0
  m_CorrespondingSourceObject: {fileID: 0}
  m_PrefabInstance: {fileID: 0}
  m_PrefabAsset: {fileID: 0}
  m_GameObject: {fileID: 0}
  m_Enabled: 1
  m_EditorHideFlags: 0
  m_Script: {fileID: 11500000, guid: f8ecede2929b6024cb347ef9dc77f85d, type: 3}
  m_Name: F-chopin-Disonance-1-M
  m_EditorClassIdentifier: 
  midiFileBytes: 4d546864000000060001000200604d54726b0000000b00ff51030ea60000ff2f004d54726b000005af00c000009027380090333800903a4000904240009046482f903b480090474830803a0000803b0000903c40009042480090454800804600008047000090484848804800009049481890253000802700009031380080330000803c0000903d3800904238009045380090494865802500009031300090382800903d3000904138008042000090443800804500339049483280310000903330009036300080380000903a3000903d3800903f38008041000090423800804400009046480080490065903130008033000090363000903a3000903d3800803f000090423800804600009049486b902f30008031000090363800803a0000903b3800803d0000903f4000904240009047400080490000904b506b902c3800802f000080360000803b0000803f00008042000080470000804b00079033380790383807903b4007903f40079044400790474807904b583c802c00008033000080380000803b0000803f00008044000080470000804b001d904b501c9025300090313800903d40009042400090465000804b00319048502f903b38009041380090495002803d000080420000804600008048002e9044403380250000902a300090313000903b380090413800904440008049006b903a2800803b0000804100009042300080440036803a00008042003790273000802a00008031000090333000903a40009042400090464830903b400090474830803a0000803b0000903c40009042480090454800804600008047000090484848804800009049481890252800802700009031300080330000803c0000903d3800904238009045380090494861902528009031200090382800903d28009041300090443001804200008045002f9049482b80250000902e30008031000080380000803d000080410000804400008049000790353000903d380090414800904648009049585a902e300790363807903d40038035000080410000904248009046480090495853802e000080360000803d0000804200008046000080490012902a38079031400790364007903a4007904248069046480790495007904e5851802a00008031000080360000803a0000804200008046000080490000804e0012904e501c90233000902f3800903f48009042480090464800904b5000804e0031904d5833903b40009042400090454000904e5802803f000080460000804b0000804d003e904558318023000090283800802f000090343800803b0000903f40009042400090455000804e0066803f00009040400080420000904440008045003180400000804400339028400090344000904050009044500090475000904c602f904d603080400000904148008044000090474800904a4800804c0000804d0000904e6048804e0000904f6018802800009032400080340000804100009042400090474000904a4000904e6000804f00639032380090393000903e3800904230009045380180470000804a002f904e502f80320000903438009038300080390000903b3000903e38009040380080420000904438008045000090474000904c6000804e0062903238008034000090383000903b3000803e0000904038009044380090473800904c485a903040008032000080380000803b0000804000008044000080470000804c0006903940079040400790454007904c50079051585280300000803900008040000080450000804c0000805100139051501c902f3800903b380090454000904a4000904e5800805100319050583490283800802f000090343000803b00009044400080450000904a4000804e00008050000090515841904a503280280000902d38008034000090393000903f400090444000904a480080510068803f000090403000804400009045380090494800804a0033804000008045000080490034902c4000802d00009038400080390000903f500090475000904b6030904c5830803f00009041480090474800904a4800804b0000804c0000904e6048804e0000904f6000ff2f00
