%YAML 1.1
%TAG !u! tag:unity3d.com,2011:
--- !u!114 &11400000
MonoBehaviour:
  m_ObjectHideFlags: 0
  m_CorrespondingSourceObject: {fileID: 0}
  m_PrefabInstance: {fileID: 0}
  m_PrefabAsset: {fileID: 0}
  m_GameObject: {fileID: 0}
  m_Enabled: 1
  m_EditorHideFlags: 0
  m_Script: {fileID: 11500000, guid: f8ecede2929b6024cb347ef9dc77f85d, type: 3}
  m_Name: F-chopin-Loop-1-SM
  m_EditorClassIdentifier: 
  midiFileBytes: 4d546864000000060001000200604d54726b0000000b00ff51030ea60000ff2f004d54726b0000160d00c0000090253002903118109038300b903d38099040400a9044400a903d2804903f40079038380a903d400a903440099038400a9031480c9034400c902c40099031480b9028380b902c400f9025380080280000802c0000903148008034000080380000803d0000803f0000804000008044000380310002802500089038400a903d400a9040400990444009903d3005903f40089038380b903d40089034400a9038400a9031380c90344808902c400a9031480a9028400c902c480b903140039025280080280000802c00008034000080380000803d0000803f0000804000008044000180310004802500039038400a903d400a904040079044500b903d3805903f48089038400a903d480a903440099038480b9031400b90345008902c480b9031580990284802802c0000803100008034000080380000803d0000803f0000804000008044000a902c480f903158019025380080280000802c0003802500008031000890384809903d480b904048099044480a903d3808903f48099038400a903d400a9034480a9038480b9031480b90345008902c480b903150099028480e902c480580280000802c0000803100008034000080380000803d0000803f0000804000008044000b9025400090315007803100079034400b9038400c903d40079044480c903d4008903f40099038400a903d400a9034400b9038400a9031400a90344809902c400b9031480a9028380b902c480c8025000080280000802c0000803100008034000080380000803d0000803f000080440001903148039025280b9034400b9038400b903d48099044500b903d4009903f48099038400b903d480a9034480a9038480a9031500b90345009902c480c90316001802c00008034000080380000803d0000803f00008044000b902848028031000a902c500e903168019025500c9034500b9038480b903d50099044500c903d500c903f40079038480c903d40089034400b9038400b9031400b90344809902c480e903150028025000080280000802c00008034000080380000803d0000803f0000804400099028400c902c500f903158019025380c9034400f90383812903d480e904448048025000080280000802c0000803100008034000080380000803d000080440008903d480f903f4001803d000b90384803803f000980380000903d500f903438089038381690313817803100009034400080380000803d0014902c38048034000e802c000090314815902738058031000f802700009028380c80280005902538159034400e90383814903d380a9044400e903d3008903f40099038300a903d400e903430099038380b9031300b9034380a902c380b9031480c9028300b902c40018025000080280000803100008034000080380000803d0000803f00008044000e90254000802c00009031500580310001802500089034400b9038400b903d40089044400b903d400b903f400790384000803d0000803f00008044000b80380001903d380a9034400b90383818903138179034400c902c300b9031480e9028380c902c400f9025380080280000802c0000803100008034000080380000803d00019031480c9034480c9038480a903d480990445009903d480b903f480980250000803100008034000090383000803d0000803f00008044000a80380001903d480b9034480a9038400a9031480a90344809902c400a903158089028480c902c500f902548009031580c9034500a9038500a903d500a9044500a903d480b903f48059038400c903d500a9034480c903848089031500c90345809902c500a903160099028500c902c500e903168019025480080280000802c00008034000080380000803d0000803f00008044000480250002803100059034380b9038400b903d400a9044500b903d4007903f50089038480b903d500b903448099038400b9031400a9034480a902c48099031500a90284000802c0000803100008034000080380000803d0000803f00008044000b80280000902c400c802c0000903150019025400c9034480b9038400a903d480b9044500a903d4009903f48099038480b903d480b9034400a9038480c9031400b90344809902c400a9031480b9028300c902c4016903158039025300080280000802c00008034000080380000803d0000803f00008044000e9034400e90384010903d400a9044480b903d400f903f400a9038300e903d400f9034400990383816903148169034400f902c38119031380f90283816902c381c903140019025300080280000802c00008034000080380000803d0000803f0000804400179034381d90383018903d301b90443819903d381f903f30289038302b903d303a9034307790444002902c2800903b30029023280080250000803100008034000080380000803d0000803f0081029044500190394000903d48019021300080230000902d3000803b0082019042500190393800903d48019023300180210000802d0000902f3000804400820e90404002902520009038280280230000802f0000903120009034280080390000803d0000804200810080250000803100008034000080380000804000820290333000903f38029023200090362000903b3002902f20820c903d40039034300090383801903128038023000090252000802f00008033000080360000803b0000803f00821d9038380190333801903b30029027200b80250000803100008034000080380000803d0010903a3001903738821e9020280280270000902c2000903328008037000090382800803a0000903b28850080200012802c0015803b000380380002803300830c90445001902838009034400090383000903b380190403004804000008044000180340001803b000380280000803800259044500190384000903b400090405003902838009034300380380002803400259044580290384000903d480090405801902e40019022400080280000803b000a90421824902e40009043500190374800903d4001902238009040402a903f5800904250018022000090235000802e0000902f5000903648008037000080380000803d000080430000804400038040000380230004802f00028036000790474816902f500090364800903b5000903f500090475808803b000180360001802f000180420005803f000780470011903d5801903950009040500090475802902f500a8039000b9038480e8038000590455002903948058047000780390005903b4800903f400090425017904048009044580190345801802f0000803b0000803d0000803f00008042000080450001902848028040000280440004803400048028001e903b5800904058009047600290384801902c502d90496001903d48009041480090445002802c00009031500080380000803b000080400000804700019025400480410005802500018031002490496001903d50009041480090445001903b48019031403c903d4000904250009049580290394800803b00008041000080440002902a400090364801803100108039000080420027904248009045500080490002903338008036000090394000903c3800803d000290273800802a002e90394800903c48009044480490283800903440098027000080280000803300008034000080390000803c0000804200008044000080450005903d5001904048029028380190344001803d000280340001802800018040001290385000903b500090445001902840029034280180380000803b0001802800008044000180340028903638009039400090424802902f38009040380190233807803600008039002c903f4802902f300090364000903948019023300080400000804200078036000180390028904048029034400090393801902f30018023000090283800803f002a90385003802800028039000180340001802f0000803800038040002c904458019028400090344800903b48009040403190445801903b48009040580190284000903440299044600190384800903d4800904058029022400080280000902e480080340000803b0003803d000180380028902e4000904358019022400090375000903d40009040482a903f5800904258018022000090234800802e0000902f58009036500080370000803d000080430000804400038040000380230002802f00028036000890474816902f500090364800903b5000903f58009047580780360002802f0000803b000080420007803f000480470012903b6000903d58009040580090475801902f500a803b000a90384801903a4805803a00088038000290455002903948038047000a80390003903b5000903f60009042580080450001802f00018040001590404000904450019034580190284000803b0000803d000080420001803f000280400000804400048034000380280020904060009047600190386000903b5801902c502a90496001903d580090415000904458019031580190255000802c000080380000803b0000804000008047000480410002802500008044000180310002803d00038049001e90495801903b5800903d580090415000904450019031503690395800903d5000904258009049600290395001902a50008031000090365800803b0000804100008044000f802a00249045580290395800903c480090425001902750009033500080360000803d00008049000780450023904448018027000080330000903440009038480080390000903c40008042000190283803803800008044000180340000803c00028028000a903d4800904048029034400190284000803d0002804000018034000280280014903b4800904448019038400190283800903438038034000080380000803b0000804400018028002a90423801903630019039300090403801902f300190233008803600008039002c903f380280230000903930019036280080400001902328058042000180390001803600299040380190343800903928028023000090283000803f000e802f00239038400b80280000803400008038000080390000804000329044480290283000903b3001903428009040302b90445001903b40009040400190283001903438299040400090444801903b380190344001802800009032380290263029903b40009045580290324000904248019026302990475801903b4001904440019032400190253800802800008034000080400000804500028026000580420008803b001d90495002903938019031400080320000904138008044002a9049500290313800903938009042400290253800804100008047002a9049500290313800904148029025380090383800803900038042002c90424003902a3801901e300080250000803100008038000090393800804100008049002b904248029036380090393801901e3801902a3829904250019036380090394001901e3800902a38299040500290383800903b3001902c300090342801801e000090203000802a000080390000804200048036000f80200000802c001690343000903930009040580290213000902d300080380000803b000e80210001802d00008034001b903f50029039400190364000903b38008040000190233800902f3004803900018023000080360001802f0003803b0001803f000590394000903d4802902530019040380190341802903130028025000080390001803d000180310000804000028034000b9040500190384000903b3801902838009034380980280022903f480290363800903b380190233000902f30008034000080380000804000048023000180360001802f0001803b0000803f000990393800903d4001902528009040380390312001802500018039000080400001803d000280310011903f4002902738009042380c80270001803f000080420026904040009044400490343001903b28019028202890445001903b480090404802902838009034400780340003802800078044000280400001803b0015904450019040500190324800903b40019026402a9045580190323800904248019026282990475002903b4001802600009031400080320000804000008042000090444000804500019025382e9049500190413002903138009039300180250000803b0000804400008047002b90494002904238019039300190313000804100019025282b9041380090493802903128029025200090383000803900008042002e9042300190392802901e200080250000902a28008031000080380000804100008049002b9042400290363001901e2800902a30009039302a904248019036380090393802901e3000902a30289040500290383800903b380290343001801e000090203000802a0000902c30008036000080390000804200048038000e80200004802c0011904050029034380090393801902d380190213000803b00088021000080340001802d000280390019903f500190363800903b400190233800902f38009039380080400005803600008039000180230000802f0000803b0001803f000a9039400190253000903d4000904048019031280290341801802500018031000180390001803d0002804000018034000b90384000903b380090404802902830009034380480340023903f480290363800903b38019023380080280000902f380080380000804000048023000080360001802f0001803b0002803f0008903d480190393801902538009040400190313802802500008039000180310000803d00018040001190424801903f4001903628019033300290272008803300038027000080360002803f000080420023903b3001904238009045480190363801902a3800903f3009802a00259045580290363001903b4000903f4001902a3800804200299045580390364000903b4001902a3800903f482a9047580190344800903e500190284800802a000080360000903b4000803f000090444800804500108034001b90496002903d480180280000902d5000803b0000803e00008044000090454800804700019021402a90496002903d5800904550019020480080210000902c5000802d00009041482f90496801902a4800903d50009042500090455001901e500080200000802c000080410031904b6001903f50009042480090485801902d5801801e000090215000802a0000803d00008045000080490032904b6001903f50009042480090485001902d500190214836904b6001903f58009042400090485801902d48019021484a904c600190405001902c4800904950029020400280210000802d0000803f00008042000080480000804b0044904050009045580180200000802c0000903d500080490000804c000190365001902a482a90395000904250019033480190274805802a00008036000080390000803d000080400000804200008045000a9038500090445801903c5000903f50028033000180380001803c0000803f0001802700018044001590385000903d500190254800903140009040480090444805803100038025002390455801902a50009036580080380000903d5800804000009042480080440010802a0002803d0000804200058036000080450015902f580090365800903f58019023500090395000903b500780360003802f00058023000080390000803b0000803f00249034580090385800903b6000904058029028500580380001802800028034002990405801803b0000904c580990425801904e580280400000804c0009904458009050600280420000804e000a9047600090536003804400028050002a904960009055600290345800904c5001902850008047000080530000ff2f00
