%YAML 1.1
%TAG !u! tag:unity3d.com,2011:
--- !u!114 &11400000
MonoBehaviour:
  m_ObjectHideFlags: 0
  m_CorrespondingSourceObject: {fileID: 0}
  m_PrefabInstance: {fileID: 0}
  m_PrefabAsset: {fileID: 0}
  m_GameObject: {fileID: 0}
  m_Enabled: 1
  m_EditorHideFlags: 0
  m_Script: {fileID: 11500000, guid: f8ecede2929b6024cb347ef9dc77f85d, type: 3}
  m_Name: F-chopin-Slow-Emptyness-1-M
  m_EditorClassIdentifier: 
  midiFileBytes: 4d546864000000060001000200604d54726b0000000b00ff51030ea60000ff2f004d54726b00000acd00c00000902a400090364000903a4800904248811190233800902f380090364000903b4000903f40009042408115902540009031380090384000903d40009041408117901e40008023000080250000902a4000802f00008031000080360000803a0000803b0000803f0000804200812a801e000090203800802a0000902c38009036400080380000903c4000803d0000903f4000804100812a80200000802c000080360000803c0000803f0004901948009025480090354800903b4800903f488238903d508111901e3800902a300090343800903a3800903d40812b901f3000902b380090334000903a4000903d40812b90203000902c30009033380090383000903c30812e90223000902e30009031300090373800903d388133902430009030300090363800903f38813790253800903130009035380090383864903d386380190000801e0000801f00008020000080220000802400008025000090263000802a0000802b0000802c0000802e0000803000008031000090323000803300008034000080350000803600008037000090383800903a4000803b0000803c0000803d0000803f000090414064903b3863902740009033380090363800903b380090423865903f4063802600009027380080320000903338008036000080380000803a0000803b0000903c3800803f00008041000090423800904640659045406480270000902940008033000090353800803c0000903d3800904148008042000080450000904640812a9029380090354000803d0000903f40009041400090454000804600813080290000902e38009035380090383800903a3800903d3800803f00009041380080450000904640812b902e38009035380080380000903a3800903d38009041380090444000804600811c802e000080350000803a0000803d00008041000080440005902e380090373800903a3800903d4000903f400090434032903a4033903c4033903d402d802e000080370000803a0000803c0000803d0000803f0005902e380090363800903a3800903f4000904240028043002d903c403390393833903a3828802e00008036000080390000803a0000803f0006902e380090353800903d38009041380080420064903c4064903a406390384864902e38009033380090373800903d400090433863903440649033486390314064903038009036380090394000903f3800904540639031380090354800903d48639033380090394800904250659035380090395000903f486390363800903a480090424032803000008031000090333800803400008035000080360000803700008038000080390000803a0000903c3800803d00008041000080430000804500328033000090353800803c0000903d383190363800903f402d802e00008035000080360000803d0000803f0005902e380090354000903d48009041480080420032903c4000803d0031903a3800803c003290384000803a003390373800903a4000903f4000904640649043406490374000903c40009040380090464000904940811b802e0000803500008037000080380000803a0000803c0000803f00008040000080410000804300008046000080490006903c4000904140009044400090484063902938009035384b8029000080350016803c00008041000080440006902b400090374000903c3800903f400090434050802b000080370018902d400090394052802d000080390018902e4000903a4000803c0000803f00008048000380430058903d380090414063903a4000903d40008041000090424864804200009043484a803d0008802e0005803a000890384000903f4000904440009049483290484831904650329044483490384000903f40009043500080440000804600009048400080490064904240008043005080380000803f0000804200008048001890314000903d5064904140009044486590314000903d4000904140008044000090465063804600009047585080310000803d000080410013804700029031400090384000903d400090404800904758319046503290445001804600008047003280440001904350329031400090384000903a4000904038009044506590434002803d00008044004b80400008803100008038000b803a0002902c400480430058903b4000903f4863802c0000902e400090364000903a4000803b0000903f4864803f00009040485380360004803a0005802e000180400002902f3800903b400090404833903f403290424833903f5032902340009033400090394000903d5864903b48648023000090284800802f000080330000903448009038400080390000803b0000803d0000803f0000804000008042000090445063903d48639029480090384000903b4000903e4064903b4864902740008028000080290000803400009037400080380000903a5000803b0000803d0000803e0000903f480080440064903b4864902c400090344000903e5064903b486480270000902b4000802c0000903340008034000080370000903a4800803b0000803e0000903f4863903b3864902c400090343800903e5065903b4864902b3800802c00008033000080340000903a3800803b0000803e0000903f488124902c4000803a0000903b4802802b008119902b3800802c0000903a3800803b0000903f408121802b000a902c3800803a0000903b38811c802c0000803b000a9027400090374000803f00811c80270000803700099023400090334000903840811f802300008033000080380009902040009033400090384000903b40812b802000008033000080380000803b000a901b38009033380090373800903a3800903f40812b801b00008033000080370000803a000a90204000902c38009033380090383800903b3800803f008141802000008033000080380000803b000a901b38009033380090373800903a3800903f3801802c008736801b00008033000080370000803a0000803f008320902a480090364800903a4800904248811190233800902f380090364000903b4000903f40009042408115902540009031380090384000903d40009041408117901e40008023000080250000902a4000802f00008031000080360000803a0000803b0000803f0000804200812a801e000090203800802a0000902c38009036400080380000903c4000803d0000903f4000804100812a80200000802c000080360000803c0000803f0004901948009025480090354800903b4800903f488238903d508111901e3800902a300090343800903a3800903d40812b901f3000902b380090334000903a4000903d40812b90203000902c30009033380090383000903c30812e90223000902e30009031300090373800903d388133902430009030300090363800903f38813790253800903130009035380090383864903d386380190000801e0000801f00008020000080220000802400008025000090263000802a0000802b0000802c0000802e0000803000008031000090323000803300008034000080350000803600008037000090383800903a4000803b0000803c0000803d0000803f000090414064903b3863902740009033380090363800903b380090423865903f4063802600009027380080320000903338008036000080380000803a0000803b0000903c3800803f00008041000090423800904640659045406480270000902940008033000090353800803c0000903d3800904148008042000080450000904640812a9029380090354000803d0000903f40009041400090454000804600813080290000902e38009035380090383800903a3800ff2f00
