%YAML 1.1
%TAG !u! tag:unity3d.com,2011:
--- !u!114 &11400000
MonoBehaviour:
  m_ObjectHideFlags: 0
  m_CorrespondingSourceObject: {fileID: 0}
  m_PrefabInstance: {fileID: 0}
  m_PrefabAsset: {fileID: 0}
  m_GameObject: {fileID: 0}
  m_Enabled: 1
  m_EditorHideFlags: 0
  m_Script: {fileID: 11500000, guid: f8ecede2929b6024cb347ef9dc77f85d, type: 3}
  m_Name: F-chopin-Think-Fast-1-MM
  m_EditorClassIdentifier: 
  midiFileBytes: 4d546864000000060001000200604d54726b0000000b00ff51030ea60000ff2f004d54726b000002e300c00000902a40009036400090425000904e5012802a0000902c400080360000903840008042000090445000804e000090505012802c0000902d4000803800009039400080440000904550008050000090515024902c4000802d0000903840008039000090445000804500009050500080510012802c0000902d4000803800009039400080440000904550008050000090515013902a4000802d000090364000803900009042500080450000904e50008051002490264000802a00009032400080360000903e500080420000904a5000804e00128026000080320000803e0000804a001290234000902f4000903b50009047501280230000802f0000803b0000804700129026400090324000903e5000904a50128026000080320000803e0000804a0013902a40009036400090425000904e5024802a00008036000080420000804e0024901e4000902a400090364000903d50009042600090465024801e0000802a000080360000803d0000804200008046002490234000902f40009032400090364000903b6000903e4000904240009047501380230000802f000080360000803b0000803e0000804200008047000090325000903e5010903e50109026500080320000803e0000904250009045501080420000904550108026000090325000803e00009042500080450000904a501090455000804a001180320000903e50008042000080450000904e5010904a5000804e001090315000903d5000803e0000804a0010903d50109025500080310000803d0000904050009045501080400000904550118025000090315000803d0000904050008045000090495010904550008049001080310000903d50008040000080450000904c501090495000804c0010902f5000903b5000803d000080490010903b501190235000802f0000803b0000903e500090455010803e00009045501080230000902f5000803b0000903e500080450000904a501090455000804a0010802f0000903b5000803e000080450000ff2f00
