%YAML 1.1
%TAG !u! tag:unity3d.com,2011:
--- !u!114 &11400000
MonoBehaviour:
  m_ObjectHideFlags: 0
  m_CorrespondingSourceObject: {fileID: 0}
  m_PrefabInstance: {fileID: 0}
  m_PrefabAsset: {fileID: 0}
  m_GameObject: {fileID: 0}
  m_Enabled: 1
  m_EditorHideFlags: 0
  m_Script: {fileID: 11500000, guid: f8ecede2929b6024cb347ef9dc77f85d, type: 3}
  m_Name: F-chopin.Imminant-1-M
  m_EditorClassIdentifier: 
  midiFileBytes: 4d546864000000060001000200604d54726b0000000b00ff51030ea60000ff2f004d54726b00000b7b00c0000090303800903c3000903f30009048301880300000803c0000803f00008048000890324000903e4000904140009048401880320000803e0000804100008048000890334000903f4000904340009048481880330000803f000080430000804800089029480090354800903f48009044480090484831803f00008044000080480011903e4000904740308029000080350000803e000080470010903c400090454018803c00008045000890324000903e4000904140009045401880320000803e00008041000080450008903448009040480090434800904a4818803400008040000080430000804a0008903548009041480090454800904a4818803500008041000080450000804a0008902b48009037480090464800904a483080460000804a00109045400090484031802b00008037000080450000804800109041380090473818804100008047000890373800904138009047381780370000804100008047000890384000903c400090484000904d401780380000803c000080480000804d000890384000903e400090474000904d401780380000803e000080470000804d000890374800903f480090484800904f481780370000803f000080480000804f000890374800903f4800904348009048481780370000803f0000804300008048000890374800903e480090474800904f481780370000803e000080470000804f000790374000903c400090484000904f401780370000803c000080480000804f000890354000903e4000904140009045401780350000803e0000804100008045000790353800903b380090433800904a381780350000803b000080430000804a000790333800903c380090433800904b381780330000803c000080430000804b000790353800903e3800904138009044381780350000803e0000804100008044000890364000903c4000903f40009045401780360000803c0000803f00008045000890374000903f40009048401680370000803f000080480008902b3800903738009041380090473817802b00008037000080410000804700079030380090373800903c3800903f3800904838178030000080370000803c0000803f0000804800079030380090373800903c3800903f3800904838178030000080370000803c0000803f0000804800089030380090373800903c3800903f3800904838178030000080370000803c0000803f0000804800079030300090373000903c3000903f3000904830178030000080370000803c0000803f0000804800079030300090373000903c3000903f3000904830178030000080370000803c0000803f0000804800089032300090373000903e300090413000904730168032000080370000803e000080410000804700089033300090373000903c300090433000904830168033000080370000803c0000804300008048000890333000903c3000904330009048301780330000803c0000804300008048000790383000903c3000903f30009048301780380000803c0000803f00008048000790383000903c3000903f30009048301780380000803c0000803f00008048000890383000903c3000903f30009048301780380000803c0000803f00008048000790383000903c3000903f30009048301780380000803c0000803f00008048000790373800903c3800903e38009047381780370000803c0000803e00008047000890383800903c3800903f38009048381680380000803c0000803f00008048000890383800903c380090423800904a381680380000803c000080420000804a000890374000903c400090434000904b401780370000803c000080430000804b000790374000903c4000903f400090424000904b401780370000803c0000803f000080420000804b000790374000903b400090414000904a401780370000803b000080410000804a000890373800903b380090433800904b381780370000803b000080430000804b000790353800903b380090443800904a381780350000803b000080440000804a000790353000903b3000903e300090433000904a301780350000803b0000803e000080430000804a000890333000903c3000904330009048301680330000803c0000804300008048000890383000903c3000903f30009048301680380000803c0000803f00008048000890383000903c3000903f30009048301780380000803c0000803f00008048000790383000903c3000903f30009048301780380000803c0000803f00008048000790373000903c3000903f30009048301780370000803c0000803f00008048000890363000903c3000903e30009046301780360000803c0000803e00008046000790373000903c3000903f30009048301780370000803c0000803f00008048000790383800903c380090423800904a381780380000803c000080420000804a000890373800903c380090433800904b381680370000803c000080430000804b000890373800903c3800903f380090423800904b381780370000803c0000803f000080420000804b000790373800903b380090413800904a381780370000803b000080410000804a000790373800903b380090433800904b381880370000803b000080430000804b000890374000903b400090444000904d401980370000803b000080440000804d000990354000903b4000903e400090434000904a401a80350000803b0000803e000080430000804a000990334800903c4800904548009048481c80330000803c0000804500008048000a90324800903b48009041480090434800904a481d80320000803b00008041000080430000804a000990304800903c4800903f48009048481980300000803c0000803f000080480007902f4800903b48009041480090434800904a4817802f0000803b00008041000080430000804a000890304800903c4800903f48009048481680300000803c0000803f00008048000890294800903548009041480090444800904a481680290000803500008041000080440000804a0008902b480090374800903f48009043480090484817802b000080370000803f00008043000080480007901f5000902b5000903e50009043500090475017801f0000802b0000803e000080430000804700089024580090305800903f580090435800904858178024000080300000803f0000804300008048000790235800902f58009041580090435800904a581780230000802f00008041000080430000804a00079024580090305800903f5800904858178024000080300000803f000080480007901d5800902958009041580090445800904a5817801d0000802900008041000080440000804a0008901f5800902b5800903f58009043580090485817801f0000802b0000803f00008043000080480007901f5800902b5800903e58009043580090475817801f0000802b0000803e000080430000804700079024600090306000903f600090436000904860178024000080300000803f000080430000804800089026680090326800903e680090436800904668168026000080320000803e000080430000804600089026680090326800903e680090436800904668178026000080320000803e000080430000804600079026680090326800903e680090436800904668178026000080320000803e000080430000804600079026680090326800903e680090436800904568178026000080320000803e000080430000804500089026700090327000903e700090457000904870178026000080320000803e000080450000804800079026700090327000903e700090457000904870178026000080320000803e0000804500008048000790267000903270009045700090487000904e701780260000803200008045000080480000804e0007902b78009037780090477800904a7800904f7817802b00008037000080470000804a0000804f0008902f7800903b780090437800904a7800904d7817802f0000803b000080430000804a0000804d000790307800903c78009043780090487800904b781880300000803c00008043000080480000ff2f00
