%YAML 1.1
%TAG !u! tag:unity3d.com,2011:
--- !u!114 &11400000
MonoBehaviour:
  m_ObjectHideFlags: 0
  m_CorrespondingSourceObject: {fileID: 0}
  m_PrefabInstance: {fileID: 0}
  m_PrefabAsset: {fileID: 0}
  m_GameObject: {fileID: 0}
  m_Enabled: 1
  m_EditorHideFlags: 0
  m_Script: {fileID: 11500000, guid: f8ecede2929b6024cb347ef9dc77f85d, type: 3}
  m_Name: F-chopin-Pearly-Spiral-1-m
  m_EditorClassIdentifier: 
  midiFileBytes: 4d546864000000060001000200604d54726b0000000b00ff51030ea60000ff2f004d54726b000005b700c00000902a380b9031400a9036480c802a0000803100009039480380360009903d50018039000a903e5002803d000a903b5803803e000990385003803b0009903d50048038000790415804803d000890445004804100079045580380440009904250028045000b903d50018042000c803d00009045480d904958018045000b904a50058049000690475804804a00099044480380470009904948038044000a904d50038049000a90504004804d0008905138018050000a904e48028051000990494804804e0008905138038049000990554005805100089056480380550008905348028056000a805300019050480a90554009805000049059480280550009905c48028059000b805c0001905d4009905a4003805d000890554003805a000780550002905d480c905a4001805d000a90554801805a000b805500019051400a904e400d9049380c9051400c904e400e9049400480490000804e0000805100069045380b9042480b903d400e803d0000804200009045400c904248018045000980420003903d3806803d00069039400c903640008039000c9031380280360009803100029039380c90363802803900098036000290313005803100099025480c902c40028025000a90314803802c0009903550018031000b903850028035000a803800009039480b803900029036500b803600029033400a803300029038480c80380000903c480d803c0000903f480c90414802803f000b903d38018041000a90383801803d0008803800029041400e804100009044380c904538028044000a904238008045000a80420001903f4009803f00059044380c904838018044000b904b48038048000a904d3805804b000790493800804d000c904440028049000b80440000904d380b90503801804d000b9051380680500006904e38028051000a804e0001904b380c804b00009050380c905438018050000b905738028054000b905938028057000a905538018059000b9050400380550009905940028050000a905c40028059000b905e4805805c0007905a4002805e000a90574003805a000a905c48048057000790605003805c00099063480480600009906548018063000e906148038065000b905c48058061000990654803805c000c906150038065000b905c48058061000a90595002805c000c9055400e905040119059400e9055481190505019904958139044300d904138119044300d904948068041000080440000805000008055000080590007904d40048049000990524803804d00089050400380520008904d48038050000a90494802804d000a904440018049000c904140018044000c903d48018041000a9038380c9035380080380000803d000e903840018035000c903d40028038000a90414803803d000a904648028041000b90444004804600089041400b903d4004804100008044000990383803803d000a903530018038000a803500019031380b902c300d9031380d9035380e90383807802c00008031000080350004903d400480380008803d0002903f380c90383802803f000b903630028038000b903840018036000b903c400380380009903f400c90414001803c0000803f000c903d40018041000c9038300d903d400c9041380c9044380d80380000803d000080410000804400009046400c904238018046000a903f40018042000a9044380d9048400d904b400d803f00008044000080480000804b0000904d400c90494003804d00099044380d9049480e904d400d9050400e8044000080490000804d00009052400380500009904e40018052000b904b380e9050380b9054400e9057480e90594002804b0000804e000080500000805400008057000b905540028059000b9050380c9055380e9059380e905c400d905e4001805000008055000080590000805c000b905a400c9057380e905c400c9060380d9063400d9065300280570000805a0000805c0000805e0000806000008063000c906138028065000a905c380e9065380c9061400b905c3800ff2f00
