%YAML 1.1
%TAG !u! tag:unity3d.com,2011:
--- !u!114 &11400000
MonoBehaviour:
  m_ObjectHideFlags: 0
  m_CorrespondingSourceObject: {fileID: 0}
  m_PrefabInstance: {fileID: 0}
  m_PrefabAsset: {fileID: 0}
  m_GameObject: {fileID: 0}
  m_Enabled: 1
  m_EditorHideFlags: 0
  m_Script: {fileID: 11500000, guid: f8ecede2929b6024cb347ef9dc77f85d, type: 3}
  m_Name: F-chopin-Circle-Run-1-M
  m_EditorClassIdentifier: 
  midiFileBytes: 4d546864000000060001000200604d54726b0000000b00ff51030ea60000ff2f004d54726b0000048700c00000902630009032300d90253000903130018026000080320004802500008031000590233000902f300680230000802f000890223000902e300480220000802e00089026300090323005802600008032000a9025300090313004802500008031000890233000902f300580230000802f000990223000902e300480220000802e00089026300090323005802600008032000a9025300090313004802500008031000890233000902f300580230000802f000990223000902e300380220001802e00089026300090323003802600008032000a9025300090313004802500018031000890233000902f300380230001802f000890223000902e300580220000802e00089026300090323003802600008032000a9025300090313004802500008031000990233000902f300480230000802f000890223000902e300580220000802e00089026300090323002802600008032000a9025300090313004802500018031000890233000902f300580230000802f000890223000902e300580220000802e0008902630009032300380260001803200089025300090313006802500008031000890233000902f300480230000802f000890223000902e300480220000802e0009902a30009042300d903b3000903e3002802a0003803b0000803e0008902f3006802f0002804200039042300d90323000904a300c903b3000903e300280320003803b0000803e000890353006803500028042000390492801804a000b80490001902a30009047300d802a0000903a3000903d300090413005803a0000803d000080410008903130068031001290363000904630008047000d80360000903a3000903d30009042300d803a0000803d00008042000d904530008046000d90283000804500009048300d903a3000903d30009043300180280004803a0000803d0000804300089034300680340001804800049048300d90373000904f300c903d30009043300280370003803d000080430008903930068039000680480000904e3001804f000c90283000904c3000804e000d80280000903a3000903d300090433005803a0000803d00008043000890313006803100129037300090493001804c000c80370000903a3000903d30009043300d803a0000803d00008043000c904630018049000c902a3000904430008046000d903b3000903e3001802a0004803b0000803e0008902f3005802f0003804400039044300d90323000904a300c903b3000903e300280320003803b0000803e000890353006803500068044000090493000804a000d80490001902a30009047300d903d300090413001802a0004803d000080410008903130058031001490363000904630018047000c903a3000903d30009042300180360004803a0000803d000080420014904530018046000b80450001902b30009048300d903e300090433002802b0002803e000080430009903a3004803a0006804800019048300d903e30009052300c9043300090463002803e00038043000080460008903f3006803f000680480000905130008052000d90293000904f30008051000d903c3000903f300180290004803c0000803f000890353000ff2f00
