%YAML 1.1
%TAG !u! tag:unity3d.com,2011:
--- !u!114 &11400000
MonoBehaviour:
  m_ObjectHideFlags: 0
  m_CorrespondingSourceObject: {fileID: 0}
  m_PrefabInstance: {fileID: 0}
  m_PrefabAsset: {fileID: 0}
  m_GameObject: {fileID: 0}
  m_Enabled: 1
  m_EditorHideFlags: 0
  m_Script: {fileID: 11500000, guid: f8ecede2929b6024cb347ef9dc77f85d, type: 3}
  m_Name: F-chopin-Incompletion-1-M
  m_EditorClassIdentifier: 
  midiFileBytes: 4d546864000000060001000200604d54726b0000000b00ff51030ea60000ff2f004d54726b000008ec00c0000090263801901a38833e90322009904a405f9039200090453030903e3025903a200090463001902b202190322800903e3820903a280190463021902b2801903e3801801a0000802600008032000080390000803a0000804500008046002190322828903a28039046382190293000802b000080320000803a0000803e0000804a000280460001903e3805903e281f9032281c903a280590463824902728028029000080320000803a0000903d3800803e000080460006903d282590372822903a3024903d3800904340239037301d903a3824903d38019043402490373025903a302b904340269037302a903a3036901a38008027000080370000803a0000803d0008903e38088043002d9036381e9039381f903e50059042481f9036481e90394820903e5000904248219036401d801a00008036000090394000803e00008042002880390001903e480090414825903540279039402d8035000080390000803e00008041000490263802903e380190424028903638209039382090454003903e4826802600009036380080390000803e0000804200229039400180450021803600008039000090454802903d50259036481f90394826903e48009045502190365026903948298036000080390000803d0000803e000380450002901a4800903f50029045502a9036481e90394020903f50029048501d9036402090394823801a00008036000080390000903f50008045002090364806803f00198036000090394804804800028039001b903f500190485022903540259039482a8035000080390000903f480080480006903f48009048501d902e402790354024903e480190465020802e000090354000803e0000803f000080480020903a4826904548019026400080350000803a0000903c4000804600249036402190394021903e5023903638289039202c802600008036000080390000803c0000803e000080450005903f400290454020902e38259035381e903e40029046482190354020903a482590274800802e000080350000803a0000803e0000803f00008045000080460006903e4000904338009048402190374020903c4022903e48009046481f90374028903c401e8027000080370000803c0000803e000080430000804600008048000990293800903e40009045482390353826903a3021903e40019046481f90354022903a482590293800903f400280350000803a0000803e000080450000804600009048382590394024903e3829803e0000903f40279035282b9039302b802900008035000080390000803f00008048000b90223802903e40049046382290354022903a4029903e4020903540218022000080350000903a4000803e0026903e4806803a001b9035402480350000903a4000803e00008046002f903e4828903448379039483c8034000080390000803a0000803e000290265000903e5000904250349036501f9039501d904250009045501f9036502090395825802600008036000080390000903d5000803e00008042000090455826903658229039502a904550018036000080390000903c5800803d00259032502790365839902b48028032000080360000903b4800803c000090435000804500269032481f90375024903b5022802b00009032580080370000803b001b8043000490375022902b50008032000080370000903b48009043502590325020802b00008032000090375800803b0024902b50008037000090435801903a5025903250209037582890255000802b0000803200008037000090395000803a0000904350299034501f90374821802500008034000080370000903958219034401c90374820903950209034302a903748088034000080370000803900008043001e90264800903e400090425021903648219039482c90214801903e4000904048068026000080360000803900008042001c9037401f90394825903d48249037381f90394825903d40229034382b9039403280210000803400008037000080390000803d0000803e00008040000290264801903e40009042482a9036482090394820904238019045401f9036482290394824903d480090454801802600008036000080390000803e000080420025903648209039502a904550018036000080390000903c5800803d00279032482590355833902b48028032000080350000903b4800803c000090435000804500249032401d90375021903b601d802b0000903260008037001a8043000490376000803b0021903b580090436001902b5000803200008037001f9032582190375826802b00008032000080370000803b000090435801903b5001902b5024903450209037582c902b48008034000080370000903b5000904350209031501d90374823903b50239034502190374820903b48289031481d802b00008031000080340000803700008043000290375822902a48018037000190425001903a5000803b0023903448219036482c90424801903e500190234000802a00008034000080360000803a002190364020903b4820903e581f90365021903b5827802300009026500080360000803e00009040500080420003903c4803803b00219036481f9039482b903c4802903e4822903648219039402e802600008036000080390000803c0000803e000080400002901f3805903b4001903e40299037301d903b3824903e38219037381f903b4009801f000080370000803e001d902b4001903e402590373825903b3834902a3802802b0000803e0008903e403990364029903b4829903d500290283800802a00008036000080370000803b0000803e002790374022903b4023903d3800904350239037381f903b4022903d40229037382a903b4037902a3806903e40028028000080370000803d00009042480080430006803b00279036381b903b4829902b3800903d400290404001802a000080360000803b0000803e00008042002490344824903b4020902a5001903e480090424805802b000080340000803b0000803d00008040002290364024903b482490284803903d4001802a000080360000803b0000803e000080420000904338289037402b903b402d903d4804904340279037402a903b4039902a38038028000080370000903b5000803d0000904248008043002c90364800ff2f00
