%YAML 1.1
%TAG !u! tag:unity3d.com,2011:
--- !u!114 &11400000
MonoBehaviour:
  m_ObjectHideFlags: 0
  m_CorrespondingSourceObject: {fileID: 0}
  m_PrefabInstance: {fileID: 0}
  m_PrefabAsset: {fileID: 0}
  m_GameObject: {fileID: 0}
  m_Enabled: 1
  m_EditorHideFlags: 0
  m_Script: {fileID: 11500000, guid: f8ecede2929b6024cb347ef9dc77f85d, type: 3}
  m_Name: F-chopin-Void-1-SM
  m_EditorClassIdentifier: 
  midiFileBytes: 4d546864000000060001000200604d54726b0000000b00ff51030ea60000ff2f004d54726b000010a500c00000903038019024301d802400008030008118901d28029029188102903028059024183b902b28019037284890352804801d00008024000090292000802b0000803000088037004c903c30039030284490373001902b20409035300190292800802b00008030000080370000803c0046903c38029030285090373001902b20008030000080350012803c00058029003e9035280290292016802b00008037006090302801903c280d8035000a8029008101904330028030000090372000803c00589046300280370000903a2000804300509044300390382000803a000080460055904330029037200180380000804400589048300380370000903c200080430063904b3003903f2001803c00008048005990483002903c2800803f0000804b005a904b3002903f280d904d400290413001803c0000803f000080480000804b000c904f400180410000804d0002904330810f904f38039043208100904f28019043208604904f300290482000904b2802903c2000904320820f905030019044180190472001803c000090412000804300008043000080480000904a2800804b0000804f008718903c2800804100008044000080470000804a000080500046903f20179043281390482811904a2810904b2810904f38129054381590574019905b4023906040820f903f28039033200190272000903c200190302802903718008043000080480000804a0000804b0000804f00008054000080570000805b000080600084129038280290201800903f2801903c280180270000902c180080300000903318008037008411903f3002903a3001902e2001902220009037200280200000802c00009033180080380000803c00830c903e300390352001903a2002902e180190221802803300008037000090381800803f0083139027200090372000903f2801903a20019033180280220000902e18008035000080380000803e008d118027000180370001803f0004803a0005802e000090313000904430009050301880310000804400008050000890383000903d300090413000904930009055301880380000803d00008041000890383000903d3000904130088049000080550008904830009054300c8048000080540003904930009055300880380000803d0000804100138049000080550003903130009046300090523018803100008046000080520008903a3000903d300090423000904e3000905a3018803a0000803d000080420008903a3000903d300090423008804e0000805a0008904d30009059300c804d000080590003904e3000905a3008803a0000803d000080420013804e0000805a00039031400090494000904d40188031000080490000804d000890384000903d40009041400090494000904d401880380000803d00008041000890384000903d40009041400c80490000804d000390494000904d400c80490000804d000390494000904d400880380000803d00008041001380490000804d00039038400090484000904e40188038000080480000804e0008903f40009042400090484000904e4018803f0000804200089038400c80480000804e000390484000904e40088038000480480000804e0003903f40009042400090484000904e4018803f00008042000080480000804e000890313000904430009050301880310000804400008050000890383000903d300090413000904930009055301880380000803d00008041000890383000903d3000904130088049000080550008904830009054300c8048000080540003904930009055300880380000803d0000804100138049000080550003902e30009046300090523018802e0000804600008052000890363000903a3000903d3000904630009052301880360000803a0000803d000890363000903a3000903d300c8046000080520003904530009051300c8045000080510003904630009052300880360000803a0000803d00138046000080520003902c300090423000904e3018802c000080420000804e0008903330009036300090423000904e30188033000080360008903330009036300c80420000804e00039048300c80480003904630088033000080360004804600039048300c8048000390313000903d3000904130009049300c8041000080490003904130009049300880310000803d00048041000080490003902c30009038300090423000904b300c80420000804b000390423000904b3008802c00008038000480420000804b0003902530009031300090413000904930188025000080310000804100008049002490313000904430009050301880310000804400008050000890383000903d300090413000904930009055301880380000803d00008041000890383000903d3000904130088049000080550008904830009054300c8048000080540003904930009055300880380000803d0000804100138049000080550003903130009046300090523018803100008046000080520008903a3000903d300090423000904e3000905a3018803a0000803d000080420008903a3000903d300090423008804e0000805a0008904d30009059300c804d000080590003904e3000905a3008803a0000803d000080420013804e0000805a00039031400090494000904d40188031000080490000804d000890384000903d40009041400090494000904d401880380000803d00008041000890384000903d40009041400c80490000804d000390494000904d400c80490000804d000390494000904d400880380000803d00008041001380490000804d00039038400090484000904e40188038000080480000804e0008903f40009042400090484000904e4018803f0000804200089038400c80480000804e000390484000904e40088038000480480000804e0003903f40009042400090484000904e4018803f00008042000080480000804e000890313000904430009050301880310000804400008050000890383000903d300090413000904930009055301880380000803d00008041000890383000903d3000904130088049000080550008904830009054300c8048000080540003904930009055300880380000803d0000804100138049000080550003902e30009046300090523018802e0000804600008052000890363000903a3000903d3000904630009052301880360000803a0000803d000890363000903a3000903d300c8046000080520003904530009051300c8045000080510003904630009052300880360000803a0000803d00138046000080520003902c300090423000904e3018802c000080420000804e0008903330009036300090423000904e30188033000080360008903330009036300c80420000804e00039048300c80480003904630088033000080360004804600039048300c8048000390313000903d3000904130009049300c8041000080490003904130009049300880310000803d00048041000080490003902c30009038300090423000904b300c80420000804b000390423000904b3008802c00008038000480420000804b00039025300090313000904130009049301880250000803100008041000080490024902c300090483000904b3018802c000080480000804b00089033300090383000903c3000904b3000905030188033000080380000803c00089033300090383000903c300c804b00008050000390483000904b300c80480000804b000390483000904b30088033000080380000803c001380480000804b0003902c300090493000904d3018802c000080490000804d00089035300090383000903d3000904d3000905030188035000080380000803d00089035300090383000903d300c804d00008050000390493000904d300c80490000804d000390493000904d30088035000080380000803d001380490000804d0003902c3000904e300090523018802c0000804e0000805200089036300090383000903c3000904e3000905230188036000080380000803c00089036300090383000903c300c804e000080520003904b3000904e300c804b0000804e0003904e3000905230088036000080380000803c0013804e00008052000390313000904d30009050301880310000804d0000805000089035300090383000903d3000904930188035000080380000803d00089035300090383000903d300c80490003904b300c804b0003904d30088035000080380000803d0004804d0003904e300c804e00039031300090503018803100008050000890383000903d3000904130009055301880380000803d00008041000890383000903d30009041300c805500039048300c804800039049300880380000803d00008041001380490003902e300090523018802e00008052000890363000903a3000903d30009052301880360000803a0000803d000890363000903a3000903d300c805200039045300c804500039046300880360000803a0000803d001380460003902c4000904e4018802c0000804e00089033400090364000904e40188033000080360008903340009036400c804e00039048400c8048000390464008803300008036000e9049400380460004903140009048400080490018803100008048000890384000904440188038000080440008903d400090494018803d000080490024902c300090483000904b3018802c000080480000804b00089033300090383000903c3000904b3000905030188033000080380000803c00089033300090383000903c300c804b00008050000390483000904b300c80480000804b000390483000904b30088033000080380000803c001380480000804b0003902c300090493000904d3018802c000080490000804d00089035300090383000903d3000904d3000905030188035000080380000803d00089035300090383000903d300c804d00008050000390493000904d300c80490000804d000390493000904d30088035000080380000803d001380490000804d0003902c3000904e300090523018802c0000804e0000805200089036300090383000903c3000904e3000905230188036000080380000803c00089036300090383000903c300c804e000080520003904b3000904e300c804b0000804e0003904e3000905230088036000080380000803c0013804e00008052000390313000904d30009050301880310000804d0000805000089035300090383000903d3000904930188035000080380000803d00089035300090383000903d300c80490003904b300c804b0003904d30088035000080380000803d0004804d0003904e300c804e00039031300090503018803100008050000890383000903d3000904130009055301880380000803d00008041000890383000903d30009041300c805500039048300c804800039049300880380000803d00008041001380490003902e300090523018802e00008052000890363000903a3000903d30009052301880360000803a0000803d000890363000903a3000903d300c805200039045300c804500039046300880360000803a0000803d001380460003902c4000904e4018802c0000804e00089033400090364000904e40188033000080360008903340009036400c804e00039048400c8048000390464008803300008036000e9049400380460004903140009048400080490018803100008048000890384000904440188038000080440008903d400090494018803d000080490024902a40009046400090494018802a000080460000804900089031400090364000903a400090464000904940188031000080360000803a00089031400090364000903a400c8046000080490003904240009046400c804200008046000390424000904640088031000080360000803a00138042000080460003902a4000ff2f00
