%YAML 1.1
%TAG !u! tag:unity3d.com,2011:
--- !u!114 &11400000
MonoBehaviour:
  m_ObjectHideFlags: 0
  m_CorrespondingSourceObject: {fileID: 0}
  m_PrefabInstance: {fileID: 0}
  m_PrefabAsset: {fileID: 0}
  m_GameObject: {fileID: 0}
  m_Enabled: 1
  m_EditorHideFlags: 0
  m_Script: {fileID: 11500000, guid: f8ecede2929b6024cb347ef9dc77f85d, type: 3}
  m_Name: F-journey-Wander-1-M
  m_EditorClassIdentifier: 
  midiFileBytes: 4d546864000000060001000600604d54726b0000000b00ff51030ea60000ff2f004d54726b0000043700c4180094385000943d5000944450009449501594385000943d5000944450009449501594385000943d5000944450009449501594385000943d5000944450009449501594385000943d5000944450009449501594385000943d5000944450009449501584380000843d0000944050009444500084490015944050009444501594405000944450159440500094445015944050009444501594405000944450159440500094445005943f500084400000944250008444000f943d5000843f00009440500084420015843d0000944050009444501594405000944450159440500094445015944050009444501594405000944450159440500094445015943d50009440500084440015943b5000843d00008440001594385000843b0000943d5000944450009449501594385000943d5000944450009449501594385000943d5000944450009449501594385000943d5000944450009449501594385000943d5000944450009449501594385000943d5000944450009449501584380000843d0000944050009444500084490015944050009444501594405000944450159440500094445015944050009444501594405000944450159440500094445005943f500084400000944250008444000f943d5000843f00009440500084420015843d0000944050009444501594405000944450159440500094445015944050009444501594405000944450159440500094445015943d50009440500084440015943b5000843d00008440001594385000843b0000943d501594385000943d501594385000943d501594385000943d501594385000943d501594385000943d501594385000943d501594385000943d501594385000943d501594385000943d501594385000943d501594385000943d501594385000943d501594385000943d501594385000943d501594385000943d501594385000943d501594385000943d501594385000943d501594385000943d501594385000943d501594385000943d501594385000943d501594385000943d501594385000943d501594385000943d501594385000943d501594385000943d501594385000943d501594385000943d501594385000943d501594385000943d501594385000943d501594385000943d501594385000943d501594385000943d501594385000943d501594385000943d501594385000943d501594385000943d501594385000943d501594385000943d501594385000943d501594385000943d501594385000943d501594385000943d501594385000943d501594385000943d501594385000943d501594385000943d501594385000943d501594385000943d501594385000943d501594385000943d501594385000943d501594385000943d501594385000943d501594385000943d501594385000943d501594385000943d501594385000943d501594385000943d501594385000943d501594385000943d501584380000843d0000ff2f004d54726b0000024b00c128871a914450009150501581440000815000159149500091555015814900008155001591425000914e501581420000814e001591445000915050158144000081500015913d50009144500091495015813d0000814400008149001591405000914c501581400000814c001591425000914e501581420000814e0015913d500091495015813d000081490015914450009150501581440000815000159149500091555015814900008155001591405000914c501581400000814c001591425000914e501581420000814e0015913d50009144500091495015813d0000814400008149001591405000914c501581400000814c001591425000914e501581420000814e0015913d500091495015813d000081490015914450009150501581440000815000159149500091555015814900008155001591425000914e501581420000814e001591445000915050158144000081500015913d50009144500091495015813d0000814400008149001591405000914c501581400000814c001591425000914e501581420000814e0015913d500091495015813d000081490015914450009150501581440000815000159149500091555015814900008155001591405000914c501581400000814c001591425000914e501581420000814e0015913d50009144500091495015813d0000814400008149001591405000914c501581400000814c001591425000914e501581420000814e0015913d500091495015813d00008149008a01915050840d914e500081500054914c5000814e0015914b5000814c008339914b5000ff2f004d54726b000003ac00c0009145903b6815803b0000903d6815803d000090406815903d680080400015903b6800803d0015803b0000903d6815803d000090406815903d680080400015903b6800803d0015803b0000903d6815803d000090406815903d680080400015903b6800803d0015803b0000903d6815803d000090406815903d680080400015903b6800803d0015803b0000903d6815803d000090406815903d680080400015903b6800803d0015803b0000903d6815803d000090406815903d680080400015903b6800803d0015803b0000903d6815803d000090406815903d680080400015803d000090426815903f680080420015903b6800803f0015803b0000903d6815803d000090406815903d680080400015903b6800803d0015803b0000903d6815803d000090406815903d680080400015903b6800803d0015803b0000903d6815803d000090406815903d680080400015903b6800803d0015803b0000903d6815803d000090406815903d680080400015903b6800803d0015803b0000903d6815803d000090406815903d680080400015903b6800803d0015803b0000903d6815803d000090406815903d680080400015903b6800803d0015803b0000903d6815803d000090406815903d680080400015803d000090426815903f680080420015903b6800803f0015803b0000903d6815803d000090406815903d680080400015903b6800803d0015803b0000903d6815803d000090406815903d680080400015903b6800803d0015803b0000903d6815803d000090406815903d680080400015903b6800803d0015803b0000903d6815803d000090406815903d680080400015903b6800803d0015803b0000903d6815803d000090406815903d680080400015903b6800803d0015803b0000903d6815803d000090406815903d680080400015903b6800803d0015803b0000903d6815803d000090406815903d680080400015803d000090426815903f680080420015903b6800803f0015803b0000903d6815803d000090406815903d680080400015903b6800803d0015803b0000903d6815803d000090406815903d680080400015903b6800803d0015803b0000903d6815803d000090406815903d680080400015903b6800803d0015803b0000903d6815803d000090406815903d680080400015903b6800803d0015803b0000903d6815803d000090406815903d680080400015903b6800803d0015803b0000903d6815803d000090406815903d680080400015903b6800803d0015803b0000903d6815803d000090406800ff2f004d54726b0000074000c320915a9319500093255015831900009320500083250000932c50158320000093255000832c0000933150159323500083250000932f5000833100158323000093255000832f0000933150159320500083250000932c500083310015931950008320000093255000832c0015831900009320500083250000932c50158320000093255000832c0000933150159320500083250000932c5000833100158320000093235000832c0000932f50159320500083230000932c5000832f00158320000093255000832c000093315015931c5000832500009328500083310015931b5000831c0000932750008328001593195000831b00009325500083270015831900009320500083250000932c50158320000093255000832c0000933150159323500083250000932f5000833100158323000093255000832f0000933150159320500083250000932c500083310015931950008320000093255000832c0015831900009320500083250000932c50158320000093255000832c0000933150159320500083250000932c5000833100158320000093235000832c0000932f50159320500083230000932c5000832f00158320000093255000832c000093315015931c5000832500009328500083310015931b5000831c0000932750008328001593195000831b00009325500083270015831900009320500083250000932c50158320000093255000832c0000933150159323500083250000932f5000833100158323000093255000832f0000933150159320500083250000932c500083310015931950008320000093255000832c0015831900009320500083250000932c50158320000093255000832c0000933150159320500083250000932c5000833100158320000093235000832c0000932f50159320500083230000932c5000832f00158320000093255000832c000093315015931c5000832500009328500083310015931b5000831c0000932750008328001593195000831b00009325500083270015831900009320500083250000932c50158320000093255000832c0000933150159323500083250000932f5000833100158323000093255000832f0000933150159320500083250000932c500083310015931950008320000093255000832c0015831900009320500083250000932c50158320000093255000832c0000933150159320500083250000932c5000833100158320000093235000832c0000932f50159320500083230000932c5000832f00158320000093255000832c000093315015931c5000832500009328500083310015931b5000831c0000932750008328001593195000831b00009325500083270015831900009320500083250000932c50158320000093255000832c0000933150159323500083250000932f5000833100158323000093255000832f0000933150159320500083250000932c500083310015931950008320000093255000832c0015831900009320500083250000932c50158320000093255000832c0000933150159320500083250000932c5000833100158320000093235000832c0000932f50159320500083230000932c5000832f00158320000093255000832c000093315015931c5000832500009328500083310015931b5000831c0000932750008328001593195000831b00009325500083270015831900009320500083250000932c50158320000093255000832c0000933150159323500083250000932f5000833100158323000093255000832f0000933150159320500083250000932c500083310015931950008320000093255000832c0015831900009320500083250000932c50158320000093255000832c0000933150159320500083250000932c5000833100158320000093235000832c0000932f50159320500083230000932c5000832f00158320000093255000832c000093315015931c5000832500009328500083310015931b5000831c0000932750008328001593195000831b00009325500083270015831900009320500083250000932c50158320000093255000832c0000933150159323500083250000932f5000833100158323000093255000832f0000933150159320500083250000932c500083310015931950008320000093255000832c0015831900009320500083250000932c50158320000093255000832c0000933150159320500083250000932c5000833100158320000093235000832c0000932f50159320500083230000932c5000832f00158320000093255000832c000093315015931c5000832500009328500083310015931b5000831c0000932750008328001593195000831b00009325500083270015831900009320500083250000932c50158320000093255000832c0000933150159323500083250000932f5000833100158323000093255000832f0000933150159320500083250000932c500083310015931950008320000093255000832c0015831900009320500083250000932c50158320000093255000832c0000933150159320500083250000932c5000833100158320000093235000832c0000932f5000ff2f004d54726b0000006d00c738967a9744500097495015874400008749008226974450009749501587440000874900822697445000974950158744000087490082269744500097495015874400008749008226974450009749501587440000874900822697445000974950158744000087490000ff2f00
