%YAML 1.1
%TAG !u! tag:unity3d.com,2011:
--- !u!114 &11400000
MonoBehaviour:
  m_ObjectHideFlags: 0
  m_CorrespondingSourceObject: {fileID: 0}
  m_PrefabInstance: {fileID: 0}
  m_PrefabAsset: {fileID: 0}
  m_GameObject: {fileID: 0}
  m_Enabled: 1
  m_EditorHideFlags: 0
  m_Script: {fileID: 11500000, guid: f8ecede2929b6024cb347ef9dc77f85d, type: 3}
  m_Name: F-journey-Hope-1-EM
  m_EditorClassIdentifier: 
  midiFileBytes: 4d546864000000060001000500604d54726b0000000b00ff51030ea60000ff2f004d54726b000002a800c32000932c508117832c0016932c50810493275000832c001d8327000d932450811883240016932450811a83240015932c50811a832c0016932c50810493275000832c001d8327000e93245081088324002493275081048327002b932c508116832c0016932c508105832c002c93305082308330002c932c508117832c0015932c508103832c002b932c50811a832c000d933150758331000e932c501d832c000e932750811c8327000e932750810983270022932750810a8327000f932750738327000c932e501d832e000e93255081098325000c93255081058325000e932c501c832c000e93245081078324000e93245081048324000e932b501e832b000f932750810a8327000d93275081058327000e932e501e832e000c932750728327000f932e501c832e000e932750810683270023932c508107832c0023932c507a832c000a9327501d8327000e932c508108832c00239325507483250009932c501c832c000e932550810983250023932450748324000f9327501e8327000f932c508117832c0016932c50810293275000832c001d8327000e932450811983240016932450810493265004832400198326000e932050811983200016932c50810393275000832c001d8327000e932450811a832400159324506d932b500783240014832b0024932050810883200023932950738329000e9329501d8329000d932b50811e832b000e932b5075832b000e9326501d8326000e932050811a83200016932c5074832c000f9327501c8327000e9324508117832400159324506c932b500783240015832b0024932050810c83200023932c5072832c000e9327501c8327000f9324508119832400169324506c932b500783240015832b0023932050810a83200024932950758329000e9329501d8329000e932b5073832b000e9326501d83260000ff2f004d54726b0000162300c4180094385000943c5000943f50009444500d84380005843c0000843f00029438500f84380007943c500e843c0008943f501384440001843f0001943850009441500f84380007943c500f843c0007943f500f843f00079444501384410003943850009443500f84380007943c500f843c0007943f500f843f000794445013844400028444000194385000844300009444500f84380007943c500e843c0008943f500e843f00089438500e8438000384440003943750009444500f84370007943c500f843c000184440006943f50009443500f843f00079444500f844400048443000294375000944b500f84370007943c500f843c0004844b0002943f50009448500f843f00079444501484480002943750009449500e84370008943c500e843c0008943f500e843f00089444500e844400089437500f84370007943c500f843c0007943f500f843f0007944450048449000b84440006943850009444500f84380007943c500f843c0007943f500f843f00079444500f844400079438500e84380008943c500e843c0008943f500e843f000894445014844400029438500f84380007943c500f843c0007943f500e843f0008943850009444500f8438000684440001943c500f843c0007943f500f843f00079444500f844400079448500e8448000484440003944450009448500e844800089444500e84440008943f5000944650009448500684440007843f0000844800089446500f844600048446000294435000944b500f84430000844b00079448500f844800048443000294415000944350009448500e8443000084480007944450138441000284440001943f50009441500f843f0007943d500f843d0007943f500f843f00079441500e84410008943f50009446500e844600089441500e84410008943f500e843f0008943d500e843d0003843f000184410003943f50009444500f84380007943c500f843c0001843f0005943f50009441500e843f000894445008844100098444000394385000943f500f84380007943c500f843c0001843f0005943c5000943f500f843f000794445013843c000084440003943850009441500e84380008943c500f843c0008943c5000943f500c84410003843f000894445012844400039438500f84380000843c0007943c500f843c0007943f500f843f00079444500f8444000794375000944350008444000f84370007943c500f843c0007943f500f843f00069443501084430001844300069437500e84370008943c500e843c0007943c5000943f500e843c0000843f0007943f500094435014844300029437500f84370007943c500f843c0007943f5007843f0007843f0007943c50009443500f84430003843c00039437500f84370007943c500f843c0007943f500f843f0007943f50009443500e84430007843f0001943850009444500e84380008943c500e843c0007943f500e843f00079444501284440001844400039438500f84380007943c500f843c0007943f500f843f0006944450138444000294385000943f500f84380007943c500f843c0007943f500e843f000894445010843f000284440002844400019438500e84380008943c500e843c0008943f50009448500e843f00048448000394445000944850128448000184440003943850009444500084480000944b500e844d000184380000844b0003944d5003943d500a844d0004843d0001944b50059441500b844b000384410000944b50079444500b844b000684440001944b50029438500d844b000284380006943d50009449500f843d00079441500f844100079444500a84490008944d50029438500e84380008943d500e843d00089441500e8441000894445012844d00018444000184440001943850009444500f84380007943d500f843d00079441500f84410007944450118444000184440003943a500094465000944f500b844f0003843a0004944d5003943f5008844d0003944f5004843f000794435003844f0008944d50048443000794465002844d0008944d500784460003943a5002844d00068446000394495003843a0008943f50028449000894485004843f0007944350028448000894465004844300079446500384460002944d5008844d000684460002943a5000944850009450500984500003944f5003843a0004844f0003943f5003944d500b843f00079441500e84410008944650128448000184460000844d0002943a5000944d500f843a0006943f500f843f00079441500f844100079446500f844d000284460003943a5000944b5003944f500b843a0007943f500f843f00079443500f844300079446501284460004943a500e843a0008943f500e843f00089443500e844300089446501284460004943a500f843a0006943f500f843f0004844b000294435000844f001284430003943a500f843a0007943f500f843f0005943f500f843f0007944150108441000184460004943d50009450500a84500002944f5002843d0005844f000294415003944d500a844100089444500d8444000894445000944950118444000184490003943d500f843d00079441500f8441000794445007844d00098444000594445000944950118444000184490002943d5002944d5006844d000494505003843d00048450000294415006944d5008844100079444500f8444000694445000944950128444000184490002943d500e843d00079441500e844100089444500e8444000794465006844d000984460006943c500094485000944f5007844f000494505003843c000484500003943f5000944f500a844f0004843f0001944d500694435002844d0009944b50038443000794485003844b00099448500584480003943c500f843c0007943f500f843f000794435007844800088443000794435000944850118443000184480003943c5005944f5008844f0003843c0001944d5004943f5005844d0005944f5004843f000794435004844f0005944d50048443000794485004844d0007944b500684480002844b0001943c500894485006843c0008943f500e843f00079443500f84430008944450008448000c8448000384440007943f50009457500c84570004843f0004945650029443500b8456000484430005945650029446500c845600048446000594545001944b500d84540004844b0004943f50029454500984540004843f000194525005944350068452000594525004844300079446500484520003945050088446000284500004944b50039450500a84500003844b0002944f5002943f5007844f000394505005843f00048450000294435004944f500a84430001844f0004945050029446500c8450000384460003944f5003944b500e844f0004844b0003943f500f843f00069443500f84430007944650108446000694485001944d50038448000494485001944d500484480003844d000194465003943f5000945250098452000594525001843f0006944350028452000694505006844300028450000584460002944650009450500c8450000384460002944f5004944b5005844f000494505007844b000284500003943f5000944f500d844f0001843f0001944b50069443500e844300089446500a844b000584460005944b5001944b5010844b0005943f500094575003844b000884570003944f5001843f000694435003844f0004945650078443000284560003945250029446500d845200028446000094545006944b500584540003944f5007844f0001844b000494565001943f500c8456000194525002843f00079443500184520006945050078443000184500003945250039446500e84460006944b500084520012844b00049438500f84380006943f500f843f00079444500f844400079448500784480004944b500094505006844b000084500004944450078444000394435007844300049441500e84410007943f500e843f0007943f500f843f00069438500f84380007943f500f843f00079444500f844400079446500f84460007944450178444001c8438000f9433500094445000944b500a84440000844b0004944d500384330003844d00019438500e84380008943f500e843f00089444500e8444000894485000944a500784480003944b500094505007844a0000844b000084500004944450078444000394435007844300049441500f84410006943f500e843f0007943d500b944f5004843d0004844f0002943d500c94505003843d00079441500184500008944f500684410003844f000394445008944d500784440007944d5001844d0009944b5004944d5001844d0002844d0004944d5003844b0004844d0001944b5008844b00019449500c9448500184490009844800009448500884480003944950068448000284490002944450009448500a8448000294465003944d500184440002844d000284460001943d500094445000944d500e843d0007844d0001944150039449500b84410008944450078449000784440001944950069449500b84490007844900039444500f844400079441500e8444000184410001944150069444500e844400079444500f8441000084440004943c5001943c5001943c500d843c0002843c0002843a0003943d5000943e5003943c500a843d0005843e0002843c0002943f5002943f500d843f0002843f000394415003944150108441000284410001944350029443501384430002944450018443000194445002843c00108444000194465003944650018444001484460002944b501184460002844b00019438500094445001943c5000944b500e84380008943c500b84440003843c0008943f500e843f0007843c000194445003943f500b84440006843f000194385000943f500e84380007943c500e843f0001843c0001943c5006943f500f843f0007944b500d843c000494445003844b0002943850009443500f84380007943c500e84430001843c000094445007943f500f843f00079444500f8444000284440001944b50039438500e84380008943c500e843c0002844b000394485002943f500e843f00089444500e8444000484480001844b0001944b50019437500f84370007943c500f843c0007943f500f843f00079443500f844300079437500f84370007943c500f843c0007943f500e843f000794435014844300029437500e84370008943c500e843c0008943f500e843f0000844b00089443500e844300089437500e84370008943c500f843c0007943f500f843f00079443500f844300069438500f84380007943c500f843c0007943f50009448500f843f000084480007944450009446500f844400008446000694385000944d500f84380007943c500e843c0008943f5005844d0009843f000894445000944b500e84440000844b000894385000944d500e84380008943c500e843c0008943f500e843f00089444500f84440004844d00029438500f84380007943c50009448500f843c000084480007943f50009446500f843f0000844600079444500f8444000384440003943750009443500f84370007943c500f843c0007943f500e843f00089443500e844300089437500e84370008943c500e843c0008943f500e843f00089443500a84430005844300069437500f84370007943c500f843c0006943e5001943f500f843e0000843f0007943f50009443500f844300079437500f84370001843f000494415001943c500e843c000184410004943f5001943f500e843f000894435004843f000a84430004943f50039438500e84380008943c500e843c0008943f5008843f0006843f0005943f50029444500f844400079438500f84380007943c500a843f0004843c0002943c5005943f5003843c0006943c5005843f0004843c000294445007943f500a84440003843f0001943550019443500d843500079438500f84380007943c5000944150008443000e843c00089441500e84410008943550008441000e84350007943c5001943f500d843c0001843f0006943c5000943e500f843c0007943f50009441500f8441000384410001943e50019437500f84370003843e0003943b5000943f500f843b0004843f0002843e0001943e50009441500f843e0002943e50049443500a843e00068441000184430003943e50019437500f84370007943b500f843b0007943e500e843e00089443501184430003843e00019437500e84370008943b500e843b0008943e500e843e00089443500f844300079437500f84370007943b500e843b0007943e500f843e00079443500f844300069438500f84380007943c5000944b500f843c0000844b0007943f5000944b500e843f0000844b000894445000944b500e84440000844b0008943850009444500e8438000084440008943c50009444500e843c000084440008943f50009444500e843f000084440008943a50009444500f84440007943850009444500f84380007943c500b84440004843c000594445001943f500f843f00079444500f844400079438500a8444000584380007943c50009443500e84430001843c0007943f50009444500c843a0002843f000084440007944450009446500e8444000084460007943750009448500e84370008943c500e843c000784480001943f50009448500e843f00089443500e84430007943750038448000b84370007943c50009446500f843c00008446000494445002943f500f843f00079443500f8443000084440003944350039437500f84370007943c500f843c0007943f500e843f00079443500f844300069437500e84370008943c50038443000b843c0007943f500e843f00089443500e844300079438500e84380008943c5000944b500f843c0000844b0007943f5000944b500f843f0000844b000794445000944b500f84440000844b0007943850009444500f8438000084440007943c5000944450089444500594485003843c000084440007943f5000944450018448000e843f00008444000794445007944450078444000194485001844400049438500094445000944b50018448000c84380008943c500e843c000584440003943f500094445001844b000c843f00089444500e84440008943850078444000784380007943c50029443500c843c000484430003943f50039444500b843f000684440001944450009446500f8444000084460007943750009448500f84370007943c500f843c000084480007943f50009448500f843f00079443500e84430005844800029437500f84370007943c50009446500e843c000084460008943f50009444500e843f00089443500e8443000084440008943750019443500d84370007943c500f843c0007943f500f843f00079443500f84430006943750048443000b84370007943c500f843c0006943f500f843f0005944450019443500784440004944650048443000484460002943850029448500c84380008943c500e843c000384480005943f50009448500e843f0008944450048448000a84440005944850029438500e84380008943c500c84480002944b5001843c0007943f500e844b0001843f0002944850049444500f844400079435500f843500079438500f8438000184480006943c50009446500f843c000084460007944150009444500f8441000084440007943550019444500e84350007943c5000944350008444000e843c000584430002943c50009441500f84410007943f50009441500e84410004843c000394375000943e50008441000e84370008943b500e843b0002843e0002943f5003943e500e843e00089443500f843f000084430004944150029437500f84370007943b500c84410003843b000294435004943e500f843e0007944350048443000b84430000ff2f004d54726b0000052400c1280091385000913f50009144500091485055813f0082069137500081380000913f50009143500081440000914850825d8137000091385000913f5000814300009144500091485058913c5000813f000091415000914450008148002c813c0000913d50008141000091435000814400009146502c814400009146505881460000914850579137500081380000913c5000813d0000913f5000814300008146000081480000914b505691445000814b00568137000091385000813c0000913d5000813f000091435000814400812f91385000913c5000813d0000913f500081430000914850825d9137500081380000913c5000913f50009143500081440000914850825c8137000091385000913c5000913f50008143000091445000914850825a91385000813c0000913d5000813f0000914150009144500081480000914950812781440000914950812e81380000913a5000813d0000913f50008141000091435000814400009146500081490000914b5000914f50812a914d5000814f00812b915250816e914b500091525055813a0000913d5000813f00009141500081430000914450008146000091495000814b0000914d500081520081298150000091525054915050008152005291545003913c5000813d0000913f50008141000091435000814400009148500081490000914b5000814d0000914f5000815000812a914b50812a813c0000913f5000914350009146500081480000914b5000914f50812b914f5081298143000091465000914b5000814f000091525056914f500081520001814f0054914d5000814f008126914b500391385000913f5000914450008146000091485000814b0000814d0015913f500f813f0007914450009148500f814400008148000791465000914a501181480000814a00048146000091485000914b5027814800039143502781430003814b0000914f5016913f500f813f00079144500f814400079146500f81460007914450298144000391485000814f000091505027814800049146500081500000915250429146501181460004814600009148502781480003914350278143000391415000915050008152006e8141000f913f5000914b500081500028813f0002913d500091495000814b00812a913d5002913a5000813d00009148500081490015813a0002913c5015913f5001813c0012813f00029141501481410001914350179144500181430015914650028144002781460004913c5000913f5000914450009148508204813c0000813f0000814400008148002b814400009148502b81480000914b50825e91385000913f50009144500091485000814b00825d81380000913c5000913f50009143500081440000914850825b91385000813c0000913f50008143000091445000914850812b81380000913c5000813f00009141500091445000914850812b913b5000813c0000913e5000813f0000914350008144000091475000814800825a91385000813b0000813e0000913f50008143000091445000814700009148508130914850812d81380000913c5000913f50009143500081440000914850817e814300049143502681430005914150278141000491385000813c0000913f500091445000914850812f914850812b81380000913c5000913f500091435000814400009148508201814300049143502681430005914150278141000391385000813c0000913f500091445000914850812e81380000913c5000813f00009141500091445000914850812e913b5000813c0000913e5000813f000091435000814400009147500081480000ff2f004d54726b000001df00c5498a729544502a8544000195465024854600069544502a85440001953f504d853f000c953f501e853f0024953f5010853f0006953f5010853f0006954450258544000795465029854600029543503d85430005953f5012853f0003953f5039853f0009953f5029853f0017953f5010853f0006953f5010853f000695445026854400069546501185460004954650128546000395485013854800039548503e854800039544500e854400079544505585440018954b502b854b0000954d5013854d0003954d505295495000854d00129549503f85490004954d50812a854d0004954f507d854f0003954d5011854d0004954b5012854b0003954f5068854d0003954b5038854b0008854d0000954f508119854f0027854f00029550502685500003954f502a854f0001954f5021854f00099550503485500006955050128550000695505041855000119550501985500005955250248552000395505029855000009552502b855200019554501785520026855400019554505f8554001d9552503f855200029550504185500001954f506285520005954f5015854f0006954f503f854f0010954f5019854f00049550502d85500003954f5022854f000095505024855000029552505c85520001954f504f854f00811a854d0000ff2f00
