%YAML 1.1
%TAG !u! tag:unity3d.com,2011:
--- !u!114 &11400000
MonoBehaviour:
  m_ObjectHideFlags: 0
  m_CorrespondingSourceObject: {fileID: 0}
  m_PrefabInstance: {fileID: 0}
  m_PrefabAsset: {fileID: 0}
  m_GameObject: {fileID: 0}
  m_Enabled: 1
  m_EditorHideFlags: 0
  m_Script: {fileID: 11500000, guid: f8ecede2929b6024cb347ef9dc77f85d, type: 3}
  m_Name: F-journey-Pass-Through-1-M
  m_EditorClassIdentifier: 
  midiFileBytes: 4d546864000000060001000300604d54726b0000000b00ff51030ea60000ff2f004d54726b0000007b00c320009325502b8325002b9320502b8320002c9321502b8321002b9320502c8320002b9325502b8325002c9320502b8320002b9321502c8321002b9320502b8320002c9325502b8325002b9320502c8320002b9321502b8321002c9320502b8320002b9325502c8325002b9320502b8320002c93215000ff2f004d54726b0000023300c12815913d5016813d00009145500091495015913d50008145000081490016813d0016913d5015813d00009144500091475016913d50008144000081470016813d0015913d5016813d00009142500091455016913d50008142000081450015813d0016913d5016813d00009140500091445015913d50008140000081440016813d0016913d5015813d00009145500091495016913d50008145000081490016813d0015913d5016813d00009144500091475016913d50008144000081470015813d0016913d5016813d00009142500091455015913d50008142000081450016813d0016913d5015813d00009140500091445016913d50008140000081440016813d0015913d500091445016813d0000814400009145500091495016913d50008145000081490015813d00009144500081450016913d50009142500081440016813d000091405000814200009144500091475015913d5000814000009144500081470016813d0016913d50008144000091455015813d00009142500091455016913d50008142000081450016813d00009140500081420015913d5016813d00009140500091445016913d50008140000081440015813d000081400016913d500091445016813d0000814400009145500091495015913d5000914450008145000081490016813d000091445016913d50009142500081440015813d000091405000814200009144500091475016913d500081400000814400008147000091495016813d0015913d50009147500081490000ff2f00
