%YAML 1.1
%TAG !u! tag:unity3d.com,2011:
--- !u!114 &11400000
MonoBehaviour:
  m_ObjectHideFlags: 0
  m_CorrespondingSourceObject: {fileID: 0}
  m_PrefabInstance: {fileID: 0}
  m_PrefabAsset: {fileID: 0}
  m_GameObject: {fileID: 0}
  m_Enabled: 1
  m_EditorHideFlags: 0
  m_Script: {fileID: 11500000, guid: f8ecede2929b6024cb347ef9dc77f85d, type: 3}
  m_Name: F-journey-Green-Grass-1-M
  m_EditorClassIdentifier: 
  midiFileBytes: 4d546864000000060001000300604d54726b0000000b00ff51030ea60000ff2f004d54726b00000a8b00c41800943550009439500094415000944850289445500a8448001b8435000084390000844100029435500094395000944150009448500a844500059446501f844800068439000294355000943a50009441500084460000944a50299446500a844a001c843a000294355000943a500094415000944a500a8446000594485024844a0005843a0002943550009439500094415000944850299445500a8448001f9435500094395000944150009448500a8445000594455024844800058439000294355000943a50009441500084450000944a50299446500a844a001c843a000294355000943a500094415000944a500a8446000594485024844a0005843a0002943550009439500094415000844800299445500a8435001f9435500094395000944150009448500a844500059446501f84410000844800058439000294355000943a50009441500084460000944a50299446500a844a001c843a000294355000943a500094415000944a500a844600059448502484410000844a0005843a0002943550009439500094415000944850299445500a8448001f9435500094395000944150009448500a844500059445502484410000844800058439000294355000943a50009441500084450000944a50299446500a844a001c843a000294355000943a500094415000944a500a844600059448502484410000844a0005843a000294355000943950009441500094455000844800529435500094395000944150009445504d84390002843500008441000084450002943a5000943e500094415050843e000084410002943a5000943e5000944150238443000594415027843a0000843e00008441000294395000943c500094415050843c00008441000294395000943c50009441505084390000843c000084410002943c500094405000944350508440000084430002943c5000944050009443503b84430002843c0002944150058443000b843c0000844000029435500094395000944150009445505084350000843900008441000084450002943550009439500094415000944550248441002c844500028435000084390000943a5000943e50009441505184410001943a5000943e5000944150288441000194415023843a0005844100019435500094395000843a0000943c5000843e0000944150508435000084390000843c0000844100029435500094395000943c5000944150529435500094395000943c500094415028844100019441502884350000843c0000844100019435500094395000943c500094415050844100019435500094395000843c00009441500094455051843500008445000194355000943950009441500094455027844100029441502784350000843900008441000084450002943a5000943e500094415050843e000084410002943a5000943e5000944150248443000594415027843a0000843e00008441000294395000943c500094415050843c00008441000294395000943c50009441505284390000943c50009440500084410000944350508440000084430002943c5000944050009443503b84430002843c0002944150058443000b843c0000844000029435500094395000944150009445505084350000843900008441000084450002943550009439500094415000944550248441002c844500028435000084390000943a5000943e50009441505184410001943a5000943e5000944150288441000194415023843a0005844100019435500094395000843a0000943c5000843e0000944150508435000084390000843c0000844100029435500094395000943c5000944150529435500094395000943c500094415028844100019441502884350000843c0000844100019435500094395000943c500094415050844100019435500094395000843c000094415027844100298435000084390002943550009439500094415027843900029437502784350000843700008439000084410002943550009437500094395000944150278437000294375027843700029435500094395000944150278435002984350000843900008441000294355000943750009439500094415028843700019437502784370000843900008441000294345000943950009441502784390002943950278434000084350000843900008441000294345000943950009441502784340000843900029439502784340000843900008441000294345000943950009441502784390002943950288434000084390000844100019434500094395000944150368441001b8434000084390000844100029432500094375000943950009440502784400026843900038437000084390000844000029437500094395000944050278440002984370000843900008440000184320001943250009437500094395000944050278440002984400006843700008439000084400023943950009440501c8440000b843200008439000084400001942e500094395000943e50009441500684390033843e001894395000943e503a843e000e8441000d84390024943a5005843a000e943c5008843c000c943e5007843e000c944050088440000c944150058441000e944350078443000c842e000194355000943950009441500094455047844500089435500094395000944150009445503b84410000844500029441500094455011843500028441000084450001943550009439500094415000944550288441000084450001944150009445502884410000844500019435500094395000944150009445501384410000844500019441500094455013844100008445000194415000944550278435000184410000844500019435500094395000944150009445503c84410000844500019441500094455011843500028441000084450001943550009439500094415000944550278441000084450001944150009445502784350000843900008441000084450001943550009439500094415000944550288441000084450001944150009445501384410000844500019441500094455013843500008441000084450001943550009439500094415000944550288441000084450001944150009445502084410000844500078441000184350000943550009439500094415027844100029441502384450004843500019435500094395000944150009445502884410001944150009445502784350000843900008441000084450002943a5000943e50009441500094435027843e000084410002943e500094415027843a0000843e000084410002943a5000943e5000944150278441000294435027843a0000843e0000844100008443000294395000943c500094415050843c00008441000294395000943c500094415024844300059445502784390000843c000084410002943c50009440500094435027843c00008440000084430002943c50009440500094435027843c00008440000084430002943c50009440500094435027844500029445501d84450009843c00008440000084430002943c5000944050009443502784430002944350138443000194435013843c00008440000084430001943c5000944050009443503c8443000294415011843c00008440000084430001844100019435500094395000944150009448504884480009943550009439500094415000944850348448000894485011844100038435000084390000943a5000943e50009441500f844800049446503c843e000084410000ff2f004d54726b000001b100c1288850914850299145500081480052814500009146505191435000814600519141500081430052814100009145507b81450081239148502991455000814800528145000091465052914350008146005291415000814300528141000091455081618145003d914850299145500081480052814500009146505291435000814600529141500081430052814100009145507b81450081239148502991455000814800528145000091465052914350008146005291415000814300528141000091455081618145003d914550298145000091485052914850669148503e9148505281480000914950810f8149008163914550298145000091485052914850529148503c9148502891485014914a50018148003a814a0002914850578148000d914550299143500081450026814300019141502781410000914350638143000091455082068145006691455014814500009148501481480000914a50810e91485000814a001d8148000b914850299145500081480051814500009146505291435000814600529141500081430052814100009145507b81450082459148502991455000814800518145000091465000ff2f00
