%YAML 1.1
%TAG !u! tag:unity3d.com,2011:
--- !u!114 &11400000
MonoBehaviour:
  m_ObjectHideFlags: 0
  m_CorrespondingSourceObject: {fileID: 0}
  m_PrefabInstance: {fileID: 0}
  m_PrefabAsset: {fileID: 0}
  m_GameObject: {fileID: 0}
  m_Enabled: 1
  m_EditorHideFlags: 0
  m_Script: {fileID: 11500000, guid: f8ecede2929b6024cb347ef9dc77f85d, type: 3}
  m_Name: F-journey-Unsteady-1-EM
  m_EditorClassIdentifier: 
  midiFileBytes: 4d546864000000060001000500604d54726b0000000b00ff51030ea60000ff2f004d54726b0000031400c3200093205025932050259320502693205025832000009323502593235026932350259323502583230000932550269325502593255025932550268325000093285025932850259328502693285025832800009338500a9338500b933850099338500a933350008338000a833300009334500a9333500083340009932c500083330033832c0027932a5028932a5028932a5028832a0028932050289320502693205027832000279323501293205000832300148320000093255012932350008325001393225000832300139320500083220012832000009323501293225000832300129320500083220013832000139320501393205026932050299320502883200013931e5013931e5027931e5026831e00812493235029932350299323502993235029832300009327502993275029932750299327502983270000932850299328502993285029932850299328502a93285029932850289328502a93235000832800299323502993235029932350298323000093275029932750299327502993275028832700009328502a93285029932850289328502a93285029932850299328502993285029932350008328002993235029932350299323502983230000932750289327502a93275028932750288327000093285029932850289328502993285029932850299328502993285029932850299323500083280029932350299323502993235029832300009327502993275028932750289327502983270000932850299328502993285029932850289328502a932850299328502993285029931c500083280029931c5029931c5028831c00009327502a932750299327502993275029932350008327002993235029932350289323502a83230000932a5029932a5028932a502a932a5029832a0000932c5028932c502a932c5029932c5029932a5000832c0029932a5029932a5029932a502993285000832a00812693275000832800812793255000832700812783250000932a50812693205000832a0026932050269320502693205026832000009323502693235026932350269323502683230000932550269325502693255000ff2f004d54726b0000113f00c12800913f5000914b5009813f000091445000814b000091505009913f500081440000914b50008150000a913b5000813f000091475000814b0009813b00009142500081470000914e5009913f500081420000914b5000814e000a913b5000813f000091475000814b0009813b0000914450008147000091505009913f500081440000914b50008150000a913b5000813f000091475000814b0009813b00009142500081470000914e5009913f500081420000914b5000814e000a913b5000813f000091475000814b0009813b0000914450008147000091505009913f500081440000914b50008150000a913b5000813f000091475000814b0009813b00009142500081470000914e5009913f500081420000914b5000814e000a913b5000813f000091475000814b0009813b0000914450008147000091505009913f500081440000914b50008150000a913b5000813f000091475000814b0009813b00009142500081470000914e5009913f500081420000914b5000814e000a913b5000813f000091475000814b0009813b0000914450008147000091505009913f500081440000914b50008150000a913b5000813f000091475000814b0009813b00009142500081470000914e5009913f500081420000914b5000814e000a913b5000813f000091475000814b0009813b00009144500081470000915050099142500081440000914e50008150000a913f500081420000914b5000814e0009913b5000813f000091475000814b0009813b000091445000814700009150500a913f500081440000914b500081500009913b5000813f000091475000814b0009813b00009142500081470000914e500a913f500081420000914b5000814e0009913b5000813f000091475000814b0009813b000091445000814700009150500a913f500081440000914b500081500009913b5000813f000091475000814b0009813b00009142500081470000914e500a913f500081420000914b5000814e0009913b5000813f000091475000814b0009813b000091445000814700009150500a9142500081440000914e500081500009913f500081420000914b5000814e0009913b5000813f000091475000814b000a813b0000914450008147000091505009913f500081440000914b500081500009913b5000813f000091475000814b000a813b00009142500081470000914e5009913f500081420000914b5000814e0009913b5000813f000091475000814b000a813b0000914450008147000091505009913f500081440000914b500081500009913b5000813f000091475000814b000a813b00009142500081470000914e5009913f500081420000914b5000814e0009913b5000813f000091475000814b000191425009813b0000914450008147000091505009913b500091445000915050018142000a9144500b913f500991445008913b500281440008913f500a913b5009913f500b913b500a913f500a913b5014913f500b913f500991405001813b000991405009913f500181400009913f500a913f500a913f500a913b500a913f500a913b500a913f500a913b500a913f500a913b500a813f0001913d5009813b0001913d5009813d0000913f500a913f5008913f500c813f0001913f5009913f500a913f500a813f0001913f5009913b5009913f5009913b500a913f5009913b5007913f500a913f5008813f00009140500b9140500981400001913f500b813f00009140500c913f50008140000a813f0001913b5000913f500c913a5000813b000991385000813a000c81380000913d500b813d0000813f000091405001913b500a913d500081400008813b0001913a500491385000813a000881380000913d5000913f500a813d0000813f000091405001913b5009913d500081400007913a5000813b0006813a0000913b5001913d5009813b0000913d5001913a5006913b5000813d0007813b0000913f5007813a0000913b5000913d5000813f0007913b5000813d0009813b0000913f5001913a500991385000813a000881380000913d5002813f000091405005913b5000813d0006813b0001913f500081400004913d5004813f000091405004913a5000813d000581400001813a0000913f5003913d5005813f000091405003913b5000813d0007913f500081400001913a5000813b0009813a0000813f00009140500191385008913f50008140000181380000913d500a91335000813d0000813f000091405009913f50008140000181330000913b5009813f000091405001913a5000813b0009913f50008140000191385000813a00099133500081380000813f00009140500a813f00009140500181330000913d500981400001813d0000913f5009913f5001913f5009813f000091405001813d0000913f5008913f500081400008813f000091405001813f000091405009913f500081400009813f000091405001813f000091405009913f500081400001913f500081400009813f000091405001813f000091405009913f500081400009813f000091405001813f000091405009913f500081400001913f500081400008813f000091405002813f000091405008913f500081400001813f000091405007813f000091405002813f000091405009913f500081400001913f500081400001913b5008813f00009140500a913f500081400008813f000091405001913f5009913f500081400007913f5001813f000091405009813f000091405001913f500081400007913f500081400001813f000091405009813f000091405007913f500081400002913f500081400009813f000091405001813f0002913b5000913f5005913f500081400008813f000091405002913f500081400009813f00009140500881400001913f5001913f5008813f000091405001913f500181400008913b5000913f5015913b5000913f5014913b5000913f5015913b5000913f5015913b5000913f5014913b5000913f5015913b5000913f5014913b5000913f5015913b5000913f5014913b5000913f5015913b5000913f5014913b5000913f5015913b5000913f5015913b5000913f5014913b5000913f5015913b5000913f5014913b5000913f5014913b5000913f5015913b5000913f5015913b5000913f5014913b5000913f5015913b5000913f5014913b5000913f5014913b5000913f5015913b5000913f5015913b5000913f5015913b5000913f5014913b5000913f5015913b5000913f5014913b5000913f5014913b5000913f5015913b5000913f5015913b5000913f5014913b5000913f5015913b5000913f5014913b5000913f5015913b5000913f5014913b5000913f5015913b5000913f5015913b5000913f5014913b5000913f5014913b5000913f5015913b5000913f5014913b5000913f5015913b5000913f5014913b5000913f5015913b5000913f5014913b5000913f5014913b5000913f5015913b5000913f5015913b5000913f5014913b5000913f5015913b5000913f5014913b5000913f5014913b5000913f5015913b5000913f5015913b5000913f5014913b5000913f5015913b5000913f5014913b5000913f5015913b5000913f5014913b5000913f5015913b5000913f5014913b5000913f5015913b5000913f5014913b5000913f5015913b5000913f5014913b5000913f5015913b5000913f5014913b5000913f5015913b5000913f5014913b5000913f5015913b5000913f5014913b5000913f5014913b5000913f5015913b5000913f5015913b5000913f5013913b5000913f5015913b5000913f5014913b5000913f5014913b5000913f5015913b5000913f5014913b5000913f5014913b5000913f5014913b5000913f5015913b5000913f5014913b5000913f5015913b5000913f5014913b5000913f5015913b5000913f5014913b5000913f5014913b5000913f5015913b5000913f5015913b5000913f5014913b5000913f5015913b5000913f5014913b5000913f5014913b5000913f5015913b5000913f5015913b5000913f5014913b5000913f5015913b5000913f5014913b5000913f5014913b5000913f5015913b5000913f5015913b5000913f5014913b5000913f5015913b5000913f5013913b5000913f5013913b5000913f5015913b5000913f5014913b5000913f5015913b5000913f5014913b5000913f5015913b5000913f5014913b5000913f5015913b5000913f5014913b5000913f5015913b5000913f5014913b5000913f5014913b5000913f5015913b5000913f5015913b5000913f5014913b5000913f5015913b5000913f5014913b5000913f501591385000913b5000813f00009140501481380000813b000081400015913b5000913f500091445014913b5000913f500091445015913b5000913f500091445014913b5000913f500091445015913b5000913f500091445014913b5000913f500091445014913b5000913f500091445015913a5000913b5000913f50009142500081440015913a5000913b5000913f500091425014913a5000913b5000913f500091425015913a5000913b5000913f500091425014913a5000913b5000913f500091425015913a5000913b5000913f500091425014813a0000813b0000813f000081420015913b5000913f500091425014913b5000913f500091425015913b5000913f500091425014913b5000913f500091425015913b5000913f500091425014913b5000913f500091425014913b5000913f500091425015913b5000913f500091425015913b5000913f500091425014913a5000913b5000913f500091425015913a5000913b5000913f500091425014913a5000913b5000913f500091425014913a5000913b5000913f500091425015913a5000913b5000913f500091425015913a5000913b5000913f500091425014813a0000813b0000813f000081420015913b5000913f500091445014913b5000913f500091445014913b5000913f500091445015913b5000913f500091445015913b5000913f500091445014913b5000913f500091445015913b5000913f500091445014913b5000913f500091445015913b5000913f50009142500081440014913b5000913f500091425015913b5000913f500091425014913b5000913f500091425015913b5000913f500091425014913b5000913f500091425015913b5000913f500091425014913b5000913f5000914250009147501591385000913b5000813f000091405000814200009147501481380000913b5000914050009144500091475014913b500091405000914450009147507e913a5000913b5000913f50008140000091425000814400009146500091475015813a0000913b5000913f50009142500091465015913b5000913f500091425000914650009147507d91385000913b5000913d5000813f000091405000814200009144500081460000814700009149501481380000913b5000913d5000914050009144500091495015913b5000913d500091405000914450009149507e913b5000913d500091405000914450009147500091495014913b5000913d500091405000914450009147500091495015913b5000913d50009140500091445000914750009149507d813b0000813d0000913f500081400000814400008147000081490009813f00009144500a913f50008144000a913b5000813f0009813b00009142500a913f500081420009913b5000813f000a813b000091445009913f50008144000a913b5000813f0009813b00009142500a913f500081420009913b5000813f000a813b000091445009913f50008144000a913b5000813f0009813b00009142500a913f500081420009913b5000813f000a813b000091445009913f500081440009913b5000813f000a813b000091425009913f50008142000a913b5000813f0009813b00009144500a913f500081440009913b5000813f000a813b000091425009913f50008142000a913b5000813f0009813b00009144500a9142500081440009913f50008142000a913b5000813f0009813b00009144500a913f500081440009913b5000813f000a813b000091425009913f50008142000a913b5000813f0009813b0000ff2f004d54726b0000030900c418846a94385002843b00119438500c94445009843b00009444501284440001843800009447501384470001944750149447501494465000844700139442500084460014943650149436500a84360000943f500a943f500a843f00009440500a943f500084400014943f501e943f500a843f00009440500a943f50008440000a843f000084420014943850149438500a84380000943f5009943f500a843f000094405009943f500084400014943f501f943f501b943d5000843f0012943b5000843d0014843b0000943d5012943b5000843d0013943a5000843b001394385000843a001284380000943b5012943a5000843b001294385000843a001384380013943850139438501384380000943f5013943f5014943f5015943f5014943f502794365000843f001384360000943f5013943f501494365000843f00139436501384360000943b5013943f500a943f5009943f5009843b0000943f5009843f00009440500a8440000094425008943f500084400009943f500084420009943f5009943f500094405009943f500084400009943f5008943f5009843f00009440500a943f500084400009943f5009943f508139843f000094445014944250008444001594425029943f500084420029943b5000843f008248843b008525942f503d842f00009436505284360000943b5067943b5009943b500a94385000843b005c9442500a8442000094475014843800299440500084470029943b50008440008138942f5000843b003e842f00009436505184360000943b505c9442500a943b50008442000094475009943b500a94385000843b00298447000094495052843800529449505294495015944950299447500084490014943b501594445000844700149444503e843b00009444503d944250008444002994425052943b5052843b000094425067944250149442502994425052943b5052843b0000944250678442000094475081619447502b94475015944750298447005394475015944750149447502b944750159447503f9447503e944750159447503d94475015944750299447502b84470000ff2f004d54726b0000001400c0008d08803b0000803f000080440000ff2f00
