%YAML 1.1
%TAG !u! tag:unity3d.com,2011:
--- !u!114 &11400000
MonoBehaviour:
  m_ObjectHideFlags: 0
  m_CorrespondingSourceObject: {fileID: 0}
  m_PrefabInstance: {fileID: 0}
  m_PrefabAsset: {fileID: 0}
  m_GameObject: {fileID: 0}
  m_Enabled: 1
  m_EditorHideFlags: 0
  m_Script: {fileID: 11500000, guid: f8ecede2929b6024cb347ef9dc77f85d, type: 3}
  m_Name: F-journey-Let-Fall-M
  m_EditorClassIdentifier: 
  midiFileBytes: 4d546864000000060001000500604d54726b0000000b00ff51030ea60000ff2f004d54726b0000011400c320009323503283230000932e5019932e5019932c5000832e0032932a5000832c003293285000832a0032932750008328001993275019932550008327003293235000832500329323503283230000932e5019932e5019932c5000832e0032932a5000832c003293285000832a00329327500083280032932550008327001993235000832500198323000093275032832700009328503293275000832800329325500083270032932350008325003293215000832300814b83210000932350009323504d83230013931e504d831e00149323504c83230013931e504c831e00139325504d832500139320504c832000149325504c83250012931e504d831e00139323504c83230014931e504c831e0000ff2f004d54726b000004db00c00000902f780090367800903b7800903f78009042780090477800904b780090537800905f78199047780090537800905f78199047780090537800905f78199047780090537800905f78199047780090537800905f781990467800804700009052780080530000905e7800805f00199046780090527800905e781990447800804600009050780080520000905c7800805e00199044780090507800905c78199044780090507800905c784b802f00009033780080360000903a7800803b0000903d7800803f000090427800904678008047000090497800804b0000904e781980330000903b7800803d0000903f7819903a7800803b0000903d7800803f0019803a0000903b7800803d0000903f78008044000080500000805c0019902f780090367800803a0000903b7800903f780090427800804600009047780080490000904b7800804e000090537800905f78199047780090537800905f78199047780090537800905f78199047780090537800905f78199047780090537800905f78199047780090537800905f781990467800804700009052780080530000905e7800805f00199046780090527800905e781990447800804600009050780080520000905c7800805e00199044780090507800905c78199044780090507800905c7832802f00009033780080360000903a7800803b0000903d7800803f000090427800904678008047000090497800804b0000904e784b9044780090507800905c7819803300009034780090387800803a0000903b7800803d0000904078008042000090447800804600009047780080490000904c7800804e000090507800905c78199044780090507800905c78199044780090507800905c78199044780090507800905c78199044780090507800905c78329042780080440000904e780080500000905a7800805c0032902f7800803400008038000090397800903b7800903f78008040000080420000804400009045780090477800904b7800804c0000904e7800905a78328042000090447800804e000090507800805a0000905c78329042780080440000904e780080500000905a7800805c0067902f78009036780080390000903a7800803b0000903d7800803f00009042780080450000904678008047000090497800804b0000904e7800905a7800902f780090477800904b7800904e7830903b7801904b7800904e786090477800904b7800804e0025803b0008802f0001904e7801902f7800903b78008047000090537801804b003090477800904b7800904e780080530001903b782e803b00009042780190477800904b7800804e002f903f78008042000190477800804b002980420000804b0003802f0002904078009044780090497801803f00009044780090477800904b78309044780090477800804b0000904c782f804400008047000090497800804c0030904478008049002d803b000290317800903d780090407800904478009047780190407800904478009047785d80310000803d000080400000804400008047000190367800904078009042780090467800904978199049781780490000904b7818804b0000904c78168036000080400000804200008046000080490001902f7800903a7800903f78009042780180400000904278008044000090467800904b7800804c00309042780090467800904b786080420000904b780180460000804b0000ff2f004d54726b0000014c00c900893399245000995250189952501899255000992a500099525018992a50009952501899245000992a5000995250189952501899255000995250189952501899245000995250189952501899255000992a500099525018992a50009952501899245000992a500099525018995250179925500099525019992450009952501799245000995250189952501899255000992a500099525018992a50009952501799245000992a5000995250199952501799255000995250189952501899245000995250189952501899255000992a500099525018992a50009952501799245000992a500099525018995250189925500099525018992450009952501799245000995250199952501799255000992a500099525018992a50009952501999245000992a50009952501899525017992550009952501999525004892400008952000089250000892a0000ff2f004d54726b0000016400c418896394365000943b5000943f501984360000843b0000843f002f94365000943b5000943f500d84360000843b0000843f0023943b5000943f50019436500c843b0000843f00018436003a94365000943b5000943f501984360000843b0000843f002f943b5000943f50019436500b843b000184360000843f002394365000943b5000943f500c84360000843b0000843f003b94385000943b50009440501884380000843b00008440003094385000943b50009440500c84380000843b00008440002494385000943b50009440500c8438000084400001843b003a94385000943b50009440501884380000843b00008440002f94365000943a50009440500d84360000843a0000844000239436500094405001943a500c8436000084400001843a003a94365000943a5000943f501884360000843a0000843f003094365000943a5000943f500e84360000843a0000843f002294365000943a5000943f5000ff2f00
